<?xml version="1.0" encoding="UTF-8" standalone="no"?>
<!DOCTYPE svg PUBLIC "-//W3C//DTD SVG 1.1//EN" "http://www.w3.org/Graphics/SVG/1.1/DTD/svg11.dtd">
<svg xmlns="http://www.w3.org/2000/svg" version="1.1" viewBox="0.00 0.00 2508.00 627.00">
<g stroke-width="2.00" fill="none" stroke-linecap="butt">
<path stroke="#00593c" vector-effect="non-scaling-stroke" d="
  M 354.28 326.71
  L 300.33 326.71
  A 0.96 0.95 10.0 0 0 299.43 327.33
  Q 290.58 351.08 265.47 354.15
  C 249.04 356.15 232.95 351.21 221.85 338.95
  C 209.06 324.84 206.88 302.54 211.10 285.05
  C 215.00 268.89 226.90 255.28 242.84 250.68
  Q 253.29 247.67 264.90 248.87
  Q 275.59 249.97 285.46 256.83
  Q 295.66 263.92 299.56 276.29
  A 0.93 0.92 80.9 0 0 300.44 276.93
  L 353.32 276.93
  A 0.78 0.77 -4.4 0 0 354.09 276.04
  Q 348.75 239.93 319.95 219.12
  C 313.95 214.78 307.19 211.74 300.07 208.44
  C 291.38 204.41 283.43 203.74 271.99 201.78
  Q 264.44 200.49 258.01 200.67
  Q 243.08 201.09 228.92 204.27
  C 220.72 206.12 212.67 209.62 205.54 213.04
  C 178.50 226.03 160.58 254.08 156.05 283.27
  Q 151.15 314.90 162.45 343.42
  C 173.94 372.45 198.36 390.97 228.24 398.00
  Q 259.86 405.44 290.88 397.49
  C 298.34 395.58 306.66 392.23 313.00 388.76
  Q 340.87 373.54 351.14 343.63
  C 352.42 339.92 353.24 335.13 354.46 330.24
  Q 354.99 328.09 354.69 327.02
  A 0.43 0.41 -7.0 0 0 354.28 326.71"
/>
<path stroke="#808080" vector-effect="non-scaling-stroke" d="
  M 1490.56 337.94
  C 1490.96 353.99 1496.43 369.07 1508.29 380.52
  C 1516.46 388.40 1529.28 394.32 1540.19 397.10
  Q 1573.75 405.64 1608.48 398.11
  C 1624.07 394.74 1639.61 386.93 1649.35 374.10
  C 1658.17 362.47 1660.50 346.95 1659.18 332.79
  C 1657.15 311.13 1643.44 296.67 1624.06 289.17
  C 1604.28 281.51 1577.11 275.67 1563.66 271.89
  C 1556.39 269.85 1548.41 266.17 1549.35 257.33
  C 1550.53 246.15 1565.18 243.20 1574.00 243.28
  C 1582.95 243.35 1591.68 244.28 1598.11 250.64
  Q 1602.79 255.27 1603.41 261.78
  A 0.57 0.57 0.0 0 0 1603.98 262.29
  L 1655.70 262.29
  A 0.54 0.54 0.0 0 0 1656.24 261.74
  C 1655.74 239.20 1643.10 220.38 1622.86 210.64
  Q 1611.85 205.34 1598.29 202.78
  Q 1564.78 196.46 1533.24 208.49
  C 1512.79 216.28 1496.92 232.55 1494.99 255.22
  C 1493.57 272.00 1497.24 287.44 1509.25 299.35
  C 1517.81 307.85 1529.82 312.88 1541.53 316.21
  C 1555.96 320.32 1570.79 323.28 1586.04 327.45
  C 1594.30 329.71 1604.47 332.77 1605.07 342.28
  C 1605.72 352.63 1596.54 356.81 1587.92 358.45
  Q 1571.77 361.52 1557.05 355.00
  Q 1546.01 350.12 1544.84 338.08
  A 0.71 0.70 87.3 0 0 1544.14 337.44
  L 1491.04 337.44
  A 0.49 0.48 89.4 0 0 1490.56 337.94"
/>
<path stroke="#00593c" vector-effect="non-scaling-stroke" d="
  M 755.34 398.40
  L 802.35 398.40
  A 0.98 0.98 0.0 0 0 803.33 397.42
  L 803.33 202.59
  A 0.44 0.44 0.0 0 0 802.89 202.15
  L 753.88 202.15
  A 0.50 0.50 0.0 0 0 753.38 202.65
  L 753.38 268.91
  A 0.26 0.26 0.0 0 1 752.93 269.08
  C 749.51 265.19 745.71 260.97 741.20 258.23
  Q 729.91 251.37 716.25 250.96
  Q 679.98 249.89 659.83 276.37
  C 650.75 288.32 645.58 303.47 644.47 318.74
  Q 643.43 333.09 645.85 345.15
  C 649.52 363.42 659.35 380.65 674.39 390.29
  Q 695.90 404.06 722.94 400.77
  Q 742.47 398.40 753.74 382.55
  A 0.39 0.39 0.0 0 1 754.27 382.46
  Q 754.59 382.67 754.58 383.00
  Q 754.35 392.09 754.65 397.75
  A 0.69 0.68 -1.3 0 0 755.34 398.40"
/>
<path stroke="#808080" vector-effect="non-scaling-stroke" d="
  M 2148.88 217.04
  L 2148.88 253.55
  A 0.62 0.62 0.0 0 1 2148.26 254.17
  L 2128.82 254.17
  A 0.53 0.52 90.0 0 0 2128.30 254.70
  L 2128.30 294.22
  A 0.56 0.55 90.0 0 0 2128.85 294.78
  L 2147.97 294.78
  A 0.92 0.91 -0.0 0 1 2148.89 295.69
  Q 2149.04 348.34 2149.03 350.25
  C 2148.88 370.59 2157.34 388.49 2177.82 395.04
  C 2193.44 400.04 2210.58 398.93 2226.65 398.24
  A 0.53 0.52 -1.1 0 0 2227.16 397.72
  L 2227.16 357.54
  A 0.42 0.42 0.0 0 0 2226.73 357.12
  Q 2217.65 357.36 2211.01 357.15
  C 2198.85 356.78 2197.61 348.63 2197.86 337.74
  Q 2197.97 332.82 2197.82 295.53
  A 0.76 0.76 0.0 0 1 2198.58 294.77
  L 2226.42 294.77
  A 0.73 0.73 0.0 0 0 2227.15 294.04
  L 2227.15 254.94
  A 0.77 0.76 -90.0 0 0 2226.39 254.17
  L 2198.47 254.17
  A 0.58 0.58 0.0 0 1 2197.89 253.59
  L 2197.89 213.00
  A 0.52 0.52 0.0 0 0 2197.32 212.48
  L 2149.47 216.40
  A 0.64 0.64 0.0 0 0 2148.88 217.04"
/>
<path stroke="#808080" vector-effect="non-scaling-stroke" d="
  M 1724.68 270.73
  L 1724.68 254.96
  A 0.78 0.77 -0.0 0 0 1723.90 254.19
  L 1676.63 254.19
  A 0.52 0.51 -0.0 0 0 1676.11 254.70
  L 1676.11 449.77
  A 0.47 0.47 0.0 0 0 1676.58 450.24
  L 1724.71 450.24
  A 1.06 1.06 0.0 0 0 1725.77 449.18
  L 1725.77 384.48
  A 0.49 0.49 0.0 0 1 1726.64 384.18
  C 1742.51 404.38 1771.79 405.01 1793.84 396.06
  C 1817.01 386.64 1830.50 365.84 1833.70 341.50
  C 1836.52 320.12 1833.43 297.63 1821.22 279.66
  Q 1811.99 266.06 1798.52 258.84
  C 1782.84 250.44 1761.43 247.71 1744.80 254.85
  Q 1732.99 259.92 1725.54 270.99
  A 0.47 0.47 0.0 0 1 1724.68 270.73"
/>
<path stroke="#808080" vector-effect="non-scaling-stroke" d="
  M 1927.60 401.57
  C 1968.06 400.83 2001.48 379.02 2006.40 336.44
  C 2009.14 312.69 2001.63 287.78 1984.05 271.27
  C 1968.28 256.44 1946.06 250.46 1924.82 250.86
  C 1903.57 251.25 1881.59 258.04 1866.37 273.44
  C 1849.42 290.59 1842.83 315.76 1846.45 339.39
  C 1852.94 381.76 1887.14 402.32 1927.60 401.57"
/>
<path stroke="#808080" vector-effect="non-scaling-stroke" d="
  M 2367.20 296.90
  C 2366.41 274.67 2351.28 260.87 2330.90 255.08
  Q 2298.70 245.92 2268.74 256.26
  C 2254.30 261.24 2240.93 271.40 2237.08 286.77
  Q 2234.11 298.65 2237.02 310.01
  C 2241.93 329.19 2258.96 336.12 2276.39 340.39
  Q 2292.55 344.34 2306.69 346.82
  Q 2311.67 347.70 2316.17 349.69
  C 2323.02 352.73 2323.86 360.12 2317.87 364.63
  C 2311.49 369.43 2299.45 368.62 2292.17 366.63
  Q 2282.78 364.07 2280.73 354.87
  A 0.89 0.89 0.0 0 0 2279.86 354.18
  L 2234.12 354.18
  A 0.81 0.81 0.0 0 0 2233.31 355.05
  Q 2233.79 361.83 2235.90 368.67
  C 2240.74 384.35 2255.59 393.66 2270.79 397.68
  Q 2299.72 405.32 2329.54 398.53
  C 2346.84 394.60 2363.95 384.61 2368.29 366.00
  Q 2370.69 355.70 2368.70 344.52
  C 2365.60 327.02 2349.69 317.27 2333.57 313.37
  Q 2313.44 308.49 2295.92 305.39
  Q 2291.96 304.70 2288.22 302.84
  C 2280.35 298.96 2282.06 289.87 2289.69 287.11
  Q 2299.02 283.74 2309.06 286.48
  C 2314.52 287.96 2318.98 291.42 2319.92 297.11
  A 0.47 0.46 -5.2 0 0 2320.38 297.49
  L 2366.63 297.49
  A 0.57 0.57 0.0 0 0 2367.20 296.90"
/>
<path stroke="#00593c" vector-effect="non-scaling-stroke" d="
  M 527.00 339.01
  A 0.53 0.53 0.0 0 1 527.53 338.41
  L 630.86 338.41
  A 0.58 0.58 0.0 0 0 631.44 337.90
  Q 633.57 320.20 628.71 302.75
  Q 621.65 277.40 600.30 263.31
  C 590.34 256.74 578.44 252.85 566.99 251.49
  Q 558.58 250.49 546.29 251.33
  C 534.51 252.13 523.36 255.35 513.43 260.51
  Q 488.15 273.62 479.18 301.23
  C 470.06 329.33 476.10 362.50 498.77 382.48
  C 517.73 399.17 545.18 403.54 569.50 400.80
  C 594.69 397.97 616.35 385.82 626.24 361.74
  Q 627.48 358.70 628.17 355.84
  A 0.78 0.78 0.0 0 0 627.45 354.88
  C 617.58 354.46 609.02 353.99 599.52 352.77
  Q 589.47 351.47 580.98 350.74
  A 1.31 1.30 18.0 0 0 579.75 351.36
  Q 573.30 361.84 560.98 363.08
  C 544.88 364.69 529.07 355.81 527.00 339.01"
/>
<path stroke="#00593c" vector-effect="non-scaling-stroke" d="
  M 972.64 354.87
  C 960.90 354.35 953.68 353.93 944.76 352.80
  Q 934.60 351.51 924.90 350.94
  A 0.81 0.81 0.0 0 0 924.15 351.34
  Q 919.07 360.19 908.92 362.38
  Q 899.60 364.40 891.68 362.05
  Q 874.21 356.86 871.56 339.00
  A 0.48 0.48 0.0 0 1 872.04 338.45
  L 975.48 338.45
  A 1.02 1.01 -87.2 0 0 976.49 337.53
  Q 978.57 317.31 972.02 298.27
  Q 965.20 278.41 949.32 266.15
  C 929.08 250.53 899.18 247.51 875.47 253.95
  Q 855.95 259.25 843.05 271.21
  C 824.90 288.05 817.52 312.03 819.96 336.47
  Q 822.61 363.02 841.42 381.23
  Q 850.16 389.70 865.39 395.88
  Q 867.14 396.59 871.13 397.51
  C 875.34 398.48 881.00 400.17 885.65 400.76
  Q 907.67 403.56 929.94 397.66
  C 946.95 393.15 962.37 381.28 969.42 365.18
  Q 971.29 360.89 973.10 355.54
  A 0.51 0.51 0.0 0 0 972.64 354.87"
/>
<path stroke="#00593c" vector-effect="non-scaling-stroke" d="
  M 1142.01 397.44
  Q 1142.27 394.88 1142.26 393.00
  Q 1142.14 338.56 1142.24 311.84
  C 1142.30 294.97 1138.48 277.40 1126.13 265.55
  Q 1112.13 252.11 1092.00 251.22
  Q 1080.97 250.74 1075.00 251.75
  Q 1067.73 252.98 1058.11 257.84
  C 1052.06 260.89 1046.48 266.83 1042.67 271.97
  A 0.45 0.44 63.4 0 1 1041.87 271.70
  L 1041.87 255.23
  A 1.07 1.07 0.0 0 0 1040.80 254.16
  L 993.60 254.16
  A 0.45 0.45 0.0 0 0 993.15 254.61
  L 993.15 397.52
  A 0.89 0.89 0.0 0 0 994.04 398.41
  L 1042.10 398.41
  A 0.52 0.52 0.0 0 0 1042.62 397.92
  Q 1042.82 394.08 1042.80 390.25
  Q 1042.69 362.70 1042.76 322.05
  C 1042.77 318.31 1043.42 314.33 1044.39 311.14
  C 1047.55 300.78 1058.05 294.46 1068.74 294.45
  Q 1085.27 294.43 1090.21 308.84
  C 1091.56 312.79 1091.77 317.25 1091.77 321.75
  Q 1091.72 386.13 1091.77 397.60
  A 0.81 0.80 89.6 0 0 1092.57 398.40
  L 1140.96 398.40
  A 1.06 1.05 -87.3 0 0 1142.01 397.44"
/>
<path stroke="#00593c" vector-effect="non-scaling-stroke" d="
  M 1310.89 309.74
  C 1310.38 300.35 1307.41 289.94 1302.95 283.05
  Q 1296.30 272.75 1287.67 266.34
  C 1267.96 251.70 1241.35 248.10 1217.79 252.86
  C 1197.19 257.03 1179.96 267.80 1169.04 285.22
  C 1154.59 308.28 1153.14 342.40 1167.02 366.31
  Q 1173.40 377.30 1181.59 383.64
  Q 1192.85 392.34 1202.93 395.82
  Q 1233.28 406.29 1265.95 397.69
  C 1271.94 396.11 1278.40 393.20 1283.60 390.08
  C 1300.60 379.89 1309.81 363.54 1311.53 343.71
  A 0.20 0.20 0.0 0 0 1311.33 343.50
  L 1263.59 342.03
  A 0.97 0.95 9.0 0 0 1262.64 342.71
  C 1257.80 358.35 1240.05 362.20 1226.32 357.00
  C 1217.92 353.82 1212.12 346.17 1209.77 337.77
  Q 1208.77 334.18 1208.77 328.71
  Q 1208.76 321.64 1209.09 319.59
  Q 1211.19 306.31 1221.15 299.02
  C 1227.89 294.08 1235.98 293.23 1243.89 294.64
  C 1252.06 296.10 1260.79 302.46 1262.41 311.12
  A 1.00 1.00 0.0 0 0 1263.43 311.93
  L 1310.27 310.42
  A 0.64 0.64 0.0 0 0 1310.89 309.74"
/>
<path stroke="#00593c" vector-effect="non-scaling-stroke" d="
  M 1373.61 338.47
  L 1476.43 338.47
  A 0.99 0.98 -87.5 0 0 1477.41 337.57
  Q 1478.80 321.83 1475.48 306.62
  C 1474.28 301.15 1472.10 295.67 1469.95 290.79
  C 1464.22 277.76 1452.77 266.13 1440.10 259.69
  Q 1428.51 253.80 1414.75 251.83
  C 1388.64 248.09 1359.62 255.27 1341.30 274.55
  C 1326.37 290.26 1319.93 313.63 1321.80 335.13
  C 1323.70 356.91 1335.07 376.70 1352.91 388.32
  C 1371.64 400.52 1396.92 403.96 1419.27 400.18
  C 1436.04 397.34 1449.28 392.00 1460.58 380.07
  Q 1470.35 369.76 1473.91 355.74
  A 0.66 0.66 0.0 0 0 1473.29 354.91
  C 1458.31 354.47 1442.15 352.26 1426.97 350.73
  A 1.20 1.20 0.0 0 0 1425.89 351.20
  Q 1423.23 354.74 1421.88 356.11
  C 1415.15 362.95 1405.39 363.80 1396.14 362.60
  C 1383.78 361.01 1375.01 350.88 1373.18 338.97
  A 0.44 0.43 86.0 0 1 1373.61 338.47"
/>
<path stroke="#00593c" vector-effect="non-scaling-stroke" d="
  M 420.58 273.68
  L 421.12 255.83
  A 1.61 1.61 0.0 0 0 419.51 254.17
  L 371.69 254.17
  A 0.53 0.53 0.0 0 0 371.16 254.70
  L 371.16 397.37
  A 1.03 1.03 0.0 0 0 372.19 398.40
  L 420.44 398.40
  A 1.26 1.25 -0.2 0 0 421.70 397.14
  Q 421.55 358.99 421.62 329.05
  C 421.65 317.72 425.66 307.91 435.93 302.56
  C 446.16 297.24 457.82 298.27 469.30 299.73
  A 0.46 0.46 0.0 0 0 469.82 299.27
  L 469.82 253.72
  A 0.43 0.42 -85.2 0 0 469.47 253.30
  Q 449.50 249.49 433.77 260.29
  C 428.41 263.98 424.72 268.71 421.60 273.98
  A 0.55 0.55 0.0 0 1 420.58 273.68"
/>
<path stroke="#808080" vector-effect="non-scaling-stroke" d="
  M 2071.49 273.56
  L 2071.49 254.90
  A 0.72 0.72 0.0 0 0 2070.77 254.18
  L 2023.17 254.18
  A 0.57 0.56 -90.0 0 0 2022.61 254.75
  L 2022.61 397.85
  A 0.62 0.61 90.0 0 0 2023.22 398.47
  L 2071.69 398.47
  A 0.73 0.72 -89.6 0 0 2072.41 397.75
  Q 2072.52 389.83 2072.32 330.75
  C 2072.29 319.13 2075.19 308.74 2085.84 303.00
  C 2096.87 297.06 2108.13 298.42 2120.35 299.61
  A 0.45 0.45 0.0 0 0 2120.85 299.16
  L 2120.85 254.26
  A 0.61 0.61 0.0 0 0 2120.36 253.66
  C 2101.27 249.60 2082.31 256.64 2072.10 273.73
  A 0.33 0.33 0.0 0 1 2071.49 273.56"
/>
<path stroke="#00593c" vector-effect="non-scaling-stroke" d="
  M 696.04 326.11
  C 695.81 343.55 706.33 358.49 724.92 358.74
  C 743.50 358.98 754.41 344.32 754.64 326.88
  C 754.87 309.43 744.35 294.49 725.76 294.24
  C 707.18 294.00 696.27 308.66 696.04 326.11"
/>
<path stroke="#808080" vector-effect="non-scaling-stroke" d="
  M 1725.10 327.08
  C 1725.44 344.54 1736.45 359.15 1755.05 358.79
  C 1773.65 358.42 1784.09 343.40 1783.75 325.94
  C 1783.41 308.48 1772.40 293.87 1753.80 294.23
  C 1735.20 294.59 1724.76 309.62 1725.10 327.08"
/>
<path stroke="#808080" vector-effect="non-scaling-stroke" d="
  M 1896.70 325.87
  C 1896.36 344.00 1906.71 358.51 1925.93 358.87
  C 1945.14 359.23 1956.03 345.11 1956.37 326.99
  C 1956.70 308.86 1946.36 294.35 1927.14 293.99
  C 1907.92 293.63 1897.04 307.75 1896.70 325.87"
/>
<path stroke="#00593c" vector-effect="non-scaling-stroke" d="
  M 554.53 311.42
  Q 570.79 311.36 581.48 311.30
  A 0.51 0.51 0.0 0 0 581.97 310.69
  C 579.16 296.90 568.53 288.50 554.44 288.55
  C 540.36 288.60 529.78 297.08 527.07 310.89
  A 0.51 0.51 0.0 0 0 527.57 311.50
  Q 538.26 311.48 554.53 311.42"
/>
<path stroke="#00593c" vector-effect="non-scaling-stroke" d="
  M 899.32 311.38
  Q 915.62 311.37 926.33 311.34
  A 0.51 0.51 0.0 0 0 926.82 310.74
  C 924.05 296.91 913.42 288.45 899.31 288.46
  C 885.19 288.47 874.57 296.93 871.82 310.76
  A 0.51 0.51 0.0 0 0 872.31 311.37
  Q 883.02 311.39 899.32 311.38"
/>
<path stroke="#00593c" vector-effect="non-scaling-stroke" d="
  M 1401.00 311.44
  Q 1417.27 311.44 1427.95 311.42
  A 0.51 0.51 0.0 0 0 1428.45 310.81
  C 1425.69 297.01 1415.09 288.57 1401.00 288.57
  C 1386.92 288.57 1376.31 297.01 1373.55 310.81
  A 0.51 0.51 0.0 0 0 1374.05 311.42
  Q 1384.73 311.44 1401.00 311.44"
/>
</g>
<path fill="#000000" d="
  M 2508.00 0.00
  L 2508.00 627.00
  L 0.00 627.00
  L 0.00 0.00
  L 2508.00 0.00
  Z
  M 354.28 326.71
  L 300.33 326.71
  A 0.96 0.95 10.0 0 0 299.43 327.33
  Q 290.58 351.08 265.47 354.15
  C 249.04 356.15 232.95 351.21 221.85 338.95
  C 209.06 324.84 206.88 302.54 211.10 285.05
  C 215.00 268.89 226.90 255.28 242.84 250.68
  Q 253.29 247.67 264.90 248.87
  Q 275.59 249.97 285.46 256.83
  Q 295.66 263.92 299.56 276.29
  A 0.93 0.92 80.9 0 0 300.44 276.93
  L 353.32 276.93
  A 0.78 0.77 -4.4 0 0 354.09 276.04
  Q 348.75 239.93 319.95 219.12
  C 313.95 214.78 307.19 211.74 300.07 208.44
  C 291.38 204.41 283.43 203.74 271.99 201.78
  Q 264.44 200.49 258.01 200.67
  Q 243.08 201.09 228.92 204.27
  C 220.72 206.12 212.67 209.62 205.54 213.04
  C 178.50 226.03 160.58 254.08 156.05 283.27
  Q 151.15 314.90 162.45 343.42
  C 173.94 372.45 198.36 390.97 228.24 398.00
  Q 259.86 405.44 290.88 397.49
  C 298.34 395.58 306.66 392.23 313.00 388.76
  Q 340.87 373.54 351.14 343.63
  C 352.42 339.92 353.24 335.13 354.46 330.24
  Q 354.99 328.09 354.69 327.02
  A 0.43 0.41 -7.0 0 0 354.28 326.71
  Z
  M 1490.56 337.94
  C 1490.96 353.99 1496.43 369.07 1508.29 380.52
  C 1516.46 388.40 1529.28 394.32 1540.19 397.10
  Q 1573.75 405.64 1608.48 398.11
  C 1624.07 394.74 1639.61 386.93 1649.35 374.10
  C 1658.17 362.47 1660.50 346.95 1659.18 332.79
  C 1657.15 311.13 1643.44 296.67 1624.06 289.17
  C 1604.28 281.51 1577.11 275.67 1563.66 271.89
  C 1556.39 269.85 1548.41 266.17 1549.35 257.33
  C 1550.53 246.15 1565.18 243.20 1574.00 243.28
  C 1582.95 243.35 1591.68 244.28 1598.11 250.64
  Q 1602.79 255.27 1603.41 261.78
  A 0.57 0.57 0.0 0 0 1603.98 262.29
  L 1655.70 262.29
  A 0.54 0.54 0.0 0 0 1656.24 261.74
  C 1655.74 239.20 1643.10 220.38 1622.86 210.64
  Q 1611.85 205.34 1598.29 202.78
  Q 1564.78 196.46 1533.24 208.49
  C 1512.79 216.28 1496.92 232.55 1494.99 255.22
  C 1493.57 272.00 1497.24 287.44 1509.25 299.35
  C 1517.81 307.85 1529.82 312.88 1541.53 316.21
  C 1555.96 320.32 1570.79 323.28 1586.04 327.45
  C 1594.30 329.71 1604.47 332.77 1605.07 342.28
  C 1605.72 352.63 1596.54 356.81 1587.92 358.45
  Q 1571.77 361.52 1557.05 355.00
  Q 1546.01 350.12 1544.84 338.08
  A 0.71 0.70 87.3 0 0 1544.14 337.44
  L 1491.04 337.44
  A 0.49 0.48 89.4 0 0 1490.56 337.94
  Z
  M 755.34 398.40
  L 802.35 398.40
  A 0.98 0.98 0.0 0 0 803.33 397.42
  L 803.33 202.59
  A 0.44 0.44 0.0 0 0 802.89 202.15
  L 753.88 202.15
  A 0.50 0.50 0.0 0 0 753.38 202.65
  L 753.38 268.91
  A 0.26 0.26 0.0 0 1 752.93 269.08
  C 749.51 265.19 745.71 260.97 741.20 258.23
  Q 729.91 251.37 716.25 250.96
  Q 679.98 249.89 659.83 276.37
  C 650.75 288.32 645.58 303.47 644.47 318.74
  Q 643.43 333.09 645.85 345.15
  C 649.52 363.42 659.35 380.65 674.39 390.29
  Q 695.90 404.06 722.94 400.77
  Q 742.47 398.40 753.74 382.55
  A 0.39 0.39 0.0 0 1 754.27 382.46
  Q 754.59 382.67 754.58 383.00
  Q 754.35 392.09 754.65 397.75
  A 0.69 0.68 -1.3 0 0 755.34 398.40
  Z
  M 2148.88 217.04
  L 2148.88 253.55
  A 0.62 0.62 0.0 0 1 2148.26 254.17
  L 2128.82 254.17
  A 0.53 0.52 90.0 0 0 2128.30 254.70
  L 2128.30 294.22
  A 0.56 0.55 90.0 0 0 2128.85 294.78
  L 2147.97 294.78
  A 0.92 0.91 -0.0 0 1 2148.89 295.69
  Q 2149.04 348.34 2149.03 350.25
  C 2148.88 370.59 2157.34 388.49 2177.82 395.04
  C 2193.44 400.04 2210.58 398.93 2226.65 398.24
  A 0.53 0.52 -1.1 0 0 2227.16 397.72
  L 2227.16 357.54
  A 0.42 0.42 0.0 0 0 2226.73 357.12
  Q 2217.65 357.36 2211.01 357.15
  C 2198.85 356.78 2197.61 348.63 2197.86 337.74
  Q 2197.97 332.82 2197.82 295.53
  A 0.76 0.76 0.0 0 1 2198.58 294.77
  L 2226.42 294.77
  A 0.73 0.73 0.0 0 0 2227.15 294.04
  L 2227.15 254.94
  A 0.77 0.76 -90.0 0 0 2226.39 254.17
  L 2198.47 254.17
  A 0.58 0.58 0.0 0 1 2197.89 253.59
  L 2197.89 213.00
  A 0.52 0.52 0.0 0 0 2197.32 212.48
  L 2149.47 216.40
  A 0.64 0.64 0.0 0 0 2148.88 217.04
  Z
  M 1724.68 270.73
  L 1724.68 254.96
  A 0.78 0.77 -0.0 0 0 1723.90 254.19
  L 1676.63 254.19
  A 0.52 0.51 -0.0 0 0 1676.11 254.70
  L 1676.11 449.77
  A 0.47 0.47 0.0 0 0 1676.58 450.24
  L 1724.71 450.24
  A 1.06 1.06 0.0 0 0 1725.77 449.18
  L 1725.77 384.48
  A 0.49 0.49 0.0 0 1 1726.64 384.18
  C 1742.51 404.38 1771.79 405.01 1793.84 396.06
  C 1817.01 386.64 1830.50 365.84 1833.70 341.50
  C 1836.52 320.12 1833.43 297.63 1821.22 279.66
  Q 1811.99 266.06 1798.52 258.84
  C 1782.84 250.44 1761.43 247.71 1744.80 254.85
  Q 1732.99 259.92 1725.54 270.99
  A 0.47 0.47 0.0 0 1 1724.68 270.73
  Z
  M 1927.60 401.57
  C 1968.06 400.83 2001.48 379.02 2006.40 336.44
  C 2009.14 312.69 2001.63 287.78 1984.05 271.27
  C 1968.28 256.44 1946.06 250.46 1924.82 250.86
  C 1903.57 251.25 1881.59 258.04 1866.37 273.44
  C 1849.42 290.59 1842.83 315.76 1846.45 339.39
  C 1852.94 381.76 1887.14 402.32 1927.60 401.57
  Z
  M 2367.20 296.90
  C 2366.41 274.67 2351.28 260.87 2330.90 255.08
  Q 2298.70 245.92 2268.74 256.26
  C 2254.30 261.24 2240.93 271.40 2237.08 286.77
  Q 2234.11 298.65 2237.02 310.01
  C 2241.93 329.19 2258.96 336.12 2276.39 340.39
  Q 2292.55 344.34 2306.69 346.82
  Q 2311.67 347.70 2316.17 349.69
  C 2323.02 352.73 2323.86 360.12 2317.87 364.63
  C 2311.49 369.43 2299.45 368.62 2292.17 366.63
  Q 2282.78 364.07 2280.73 354.87
  A 0.89 0.89 0.0 0 0 2279.86 354.18
  L 2234.12 354.18
  A 0.81 0.81 0.0 0 0 2233.31 355.05
  Q 2233.79 361.83 2235.90 368.67
  C 2240.74 384.35 2255.59 393.66 2270.79 397.68
  Q 2299.72 405.32 2329.54 398.53
  C 2346.84 394.60 2363.95 384.61 2368.29 366.00
  Q 2370.69 355.70 2368.70 344.52
  C 2365.60 327.02 2349.69 317.27 2333.57 313.37
  Q 2313.44 308.49 2295.92 305.39
  Q 2291.96 304.70 2288.22 302.84
  C 2280.35 298.96 2282.06 289.87 2289.69 287.11
  Q 2299.02 283.74 2309.06 286.48
  C 2314.52 287.96 2318.98 291.42 2319.92 297.11
  A 0.47 0.46 -5.2 0 0 2320.38 297.49
  L 2366.63 297.49
  A 0.57 0.57 0.0 0 0 2367.20 296.90
  Z
  M 527.00 339.01
  A 0.53 0.53 0.0 0 1 527.53 338.41
  L 630.86 338.41
  A 0.58 0.58 0.0 0 0 631.44 337.90
  Q 633.57 320.20 628.71 302.75
  Q 621.65 277.40 600.30 263.31
  C 590.34 256.74 578.44 252.85 566.99 251.49
  Q 558.58 250.49 546.29 251.33
  C 534.51 252.13 523.36 255.35 513.43 260.51
  Q 488.15 273.62 479.18 301.23
  C 470.06 329.33 476.10 362.50 498.77 382.48
  C 517.73 399.17 545.18 403.54 569.50 400.80
  C 594.69 397.97 616.35 385.82 626.24 361.74
  Q 627.48 358.70 628.17 355.84
  A 0.78 0.78 0.0 0 0 627.45 354.88
  C 617.58 354.46 609.02 353.99 599.52 352.77
  Q 589.47 351.47 580.98 350.74
  A 1.31 1.30 18.0 0 0 579.75 351.36
  Q 573.30 361.84 560.98 363.08
  C 544.88 364.69 529.07 355.81 527.00 339.01
  Z
  M 972.64 354.87
  C 960.90 354.35 953.68 353.93 944.76 352.80
  Q 934.60 351.51 924.90 350.94
  A 0.81 0.81 0.0 0 0 924.15 351.34
  Q 919.07 360.19 908.92 362.38
  Q 899.60 364.40 891.68 362.05
  Q 874.21 356.86 871.56 339.00
  A 0.48 0.48 0.0 0 1 872.04 338.45
  L 975.48 338.45
  A 1.02 1.01 -87.2 0 0 976.49 337.53
  Q 978.57 317.31 972.02 298.27
  Q 965.20 278.41 949.32 266.15
  C 929.08 250.53 899.18 247.51 875.47 253.95
  Q 855.95 259.25 843.05 271.21
  C 824.90 288.05 817.52 312.03 819.96 336.47
  Q 822.61 363.02 841.42 381.23
  Q 850.16 389.70 865.39 395.88
  Q 867.14 396.59 871.13 397.51
  C 875.34 398.48 881.00 400.17 885.65 400.76
  Q 907.67 403.56 929.94 397.66
  C 946.95 393.15 962.37 381.28 969.42 365.18
  Q 971.29 360.89 973.10 355.54
  A 0.51 0.51 0.0 0 0 972.64 354.87
  Z
  M 1142.01 397.44
  Q 1142.27 394.88 1142.26 393.00
  Q 1142.14 338.56 1142.24 311.84
  C 1142.30 294.97 1138.48 277.40 1126.13 265.55
  Q 1112.13 252.11 1092.00 251.22
  Q 1080.97 250.74 1075.00 251.75
  Q 1067.73 252.98 1058.11 257.84
  C 1052.06 260.89 1046.48 266.83 1042.67 271.97
  A 0.45 0.44 63.4 0 1 1041.87 271.70
  L 1041.87 255.23
  A 1.07 1.07 0.0 0 0 1040.80 254.16
  L 993.60 254.16
  A 0.45 0.45 0.0 0 0 993.15 254.61
  L 993.15 397.52
  A 0.89 0.89 0.0 0 0 994.04 398.41
  L 1042.10 398.41
  A 0.52 0.52 0.0 0 0 1042.62 397.92
  Q 1042.82 394.08 1042.80 390.25
  Q 1042.69 362.70 1042.76 322.05
  C 1042.77 318.31 1043.42 314.33 1044.39 311.14
  C 1047.55 300.78 1058.05 294.46 1068.74 294.45
  Q 1085.27 294.43 1090.21 308.84
  C 1091.56 312.79 1091.77 317.25 1091.77 321.75
  Q 1091.72 386.13 1091.77 397.60
  A 0.81 0.80 89.6 0 0 1092.57 398.40
  L 1140.96 398.40
  A 1.06 1.05 -87.3 0 0 1142.01 397.44
  Z
  M 1310.89 309.74
  C 1310.38 300.35 1307.41 289.94 1302.95 283.05
  Q 1296.30 272.75 1287.67 266.34
  C 1267.96 251.70 1241.35 248.10 1217.79 252.86
  C 1197.19 257.03 1179.96 267.80 1169.04 285.22
  C 1154.59 308.28 1153.14 342.40 1167.02 366.31
  Q 1173.40 377.30 1181.59 383.64
  Q 1192.85 392.34 1202.93 395.82
  Q 1233.28 406.29 1265.95 397.69
  C 1271.94 396.11 1278.40 393.20 1283.60 390.08
  C 1300.60 379.89 1309.81 363.54 1311.53 343.71
  A 0.20 0.20 0.0 0 0 1311.33 343.50
  L 1263.59 342.03
  A 0.97 0.95 9.0 0 0 1262.64 342.71
  C 1257.80 358.35 1240.05 362.20 1226.32 357.00
  C 1217.92 353.82 1212.12 346.17 1209.77 337.77
  Q 1208.77 334.18 1208.77 328.71
  Q 1208.76 321.64 1209.09 319.59
  Q 1211.19 306.31 1221.15 299.02
  C 1227.89 294.08 1235.98 293.23 1243.89 294.64
  C 1252.06 296.10 1260.79 302.46 1262.41 311.12
  A 1.00 1.00 0.0 0 0 1263.43 311.93
  L 1310.27 310.42
  A 0.64 0.64 0.0 0 0 1310.89 309.74
  Z
  M 1373.61 338.47
  L 1476.43 338.47
  A 0.99 0.98 -87.5 0 0 1477.41 337.57
  Q 1478.80 321.83 1475.48 306.62
  C 1474.28 301.15 1472.10 295.67 1469.95 290.79
  C 1464.22 277.76 1452.77 266.13 1440.10 259.69
  Q 1428.51 253.80 1414.75 251.83
  C 1388.64 248.09 1359.62 255.27 1341.30 274.55
  C 1326.37 290.26 1319.93 313.63 1321.80 335.13
  C 1323.70 356.91 1335.07 376.70 1352.91 388.32
  C 1371.64 400.52 1396.92 403.96 1419.27 400.18
  C 1436.04 397.34 1449.28 392.00 1460.58 380.07
  Q 1470.35 369.76 1473.91 355.74
  A 0.66 0.66 0.0 0 0 1473.29 354.91
  C 1458.31 354.47 1442.15 352.26 1426.97 350.73
  A 1.20 1.20 0.0 0 0 1425.89 351.20
  Q 1423.23 354.74 1421.88 356.11
  C 1415.15 362.95 1405.39 363.80 1396.14 362.60
  C 1383.78 361.01 1375.01 350.88 1373.18 338.97
  A 0.44 0.43 86.0 0 1 1373.61 338.47
  Z
  M 420.58 273.68
  L 421.12 255.83
  A 1.61 1.61 0.0 0 0 419.51 254.17
  L 371.69 254.17
  A 0.53 0.53 0.0 0 0 371.16 254.70
  L 371.16 397.37
  A 1.03 1.03 0.0 0 0 372.19 398.40
  L 420.44 398.40
  A 1.26 1.25 -0.2 0 0 421.70 397.14
  Q 421.55 358.99 421.62 329.05
  C 421.65 317.72 425.66 307.91 435.93 302.56
  C 446.16 297.24 457.82 298.27 469.30 299.73
  A 0.46 0.46 0.0 0 0 469.82 299.27
  L 469.82 253.72
  A 0.43 0.42 -85.2 0 0 469.47 253.30
  Q 449.50 249.49 433.77 260.29
  C 428.41 263.98 424.72 268.71 421.60 273.98
  A 0.55 0.55 0.0 0 1 420.58 273.68
  Z
  M 2071.49 273.56
  L 2071.49 254.90
  A 0.72 0.72 0.0 0 0 2070.77 254.18
  L 2023.17 254.18
  A 0.57 0.56 -90.0 0 0 2022.61 254.75
  L 2022.61 397.85
  A 0.62 0.61 90.0 0 0 2023.22 398.47
  L 2071.69 398.47
  A 0.73 0.72 -89.6 0 0 2072.41 397.75
  Q 2072.52 389.83 2072.32 330.75
  C 2072.29 319.13 2075.19 308.74 2085.84 303.00
  C 2096.87 297.06 2108.13 298.42 2120.35 299.61
  A 0.45 0.45 0.0 0 0 2120.85 299.16
  L 2120.85 254.26
  A 0.61 0.61 0.0 0 0 2120.36 253.66
  C 2101.27 249.60 2082.31 256.64 2072.10 273.73
  A 0.33 0.33 0.0 0 1 2071.49 273.56
  Z"
/>
<path fill="#00b278" d="
  M 354.69 327.02
  Q 354.99 328.09 354.46 330.24
  C 353.24 335.13 352.42 339.92 351.14 343.63
  Q 340.87 373.54 313.00 388.76
  C 306.66 392.23 298.34 395.58 290.88 397.49
  Q 259.86 405.44 228.24 398.00
  C 198.36 390.97 173.94 372.45 162.45 343.42
  Q 151.15 314.90 156.05 283.27
  C 160.58 254.08 178.50 226.03 205.54 213.04
  C 212.67 209.62 220.72 206.12 228.92 204.27
  Q 243.08 201.09 258.01 200.67
  Q 264.44 200.49 271.99 201.78
  C 283.43 203.74 291.38 204.41 300.07 208.44
  C 307.19 211.74 313.95 214.78 319.95 219.12
  Q 348.75 239.93 354.09 276.04
  A 0.78 0.77 -4.4 0 1 353.32 276.93
  L 300.44 276.93
  A 0.93 0.92 80.9 0 1 299.56 276.29
  Q 295.66 263.92 285.46 256.83
  Q 275.59 249.97 264.90 248.87
  Q 253.29 247.67 242.84 250.68
  C 226.90 255.28 215.00 268.89 211.10 285.05
  C 206.88 302.54 209.06 324.84 221.85 338.95
  C 232.95 351.21 249.04 356.15 265.47 354.15
  Q 290.58 351.08 299.43 327.33
  A 0.96 0.95 10.0 0 1 300.33 326.71
  L 354.28 326.71
  A 0.43 0.41 -7.0 0 1 354.69 327.02
  Z"
/>
<path fill="#ffffff" d="
  M 1490.56 337.94
  A 0.49 0.48 89.4 0 1 1491.04 337.44
  L 1544.14 337.44
  A 0.71 0.70 87.3 0 1 1544.84 338.08
  Q 1546.01 350.12 1557.05 355.00
  Q 1571.77 361.52 1587.92 358.45
  C 1596.54 356.81 1605.72 352.63 1605.07 342.28
  C 1604.47 332.77 1594.30 329.71 1586.04 327.45
  C 1570.79 323.28 1555.96 320.32 1541.53 316.21
  C 1529.82 312.88 1517.81 307.85 1509.25 299.35
  C 1497.24 287.44 1493.57 272.00 1494.99 255.22
  C 1496.92 232.55 1512.79 216.28 1533.24 208.49
  Q 1564.78 196.46 1598.29 202.78
  Q 1611.85 205.34 1622.86 210.64
  C 1643.10 220.38 1655.74 239.20 1656.24 261.74
  A 0.54 0.54 0.0 0 1 1655.70 262.29
  L 1603.98 262.29
  A 0.57 0.57 0.0 0 1 1603.41 261.78
  Q 1602.79 255.27 1598.11 250.64
  C 1591.68 244.28 1582.95 243.35 1574.00 243.28
  C 1565.18 243.20 1550.53 246.15 1549.35 257.33
  C 1548.41 266.17 1556.39 269.85 1563.66 271.89
  C 1577.11 275.67 1604.28 281.51 1624.06 289.17
  C 1643.44 296.67 1657.15 311.13 1659.18 332.79
  C 1660.50 346.95 1658.17 362.47 1649.35 374.10
  C 1639.61 386.93 1624.07 394.74 1608.48 398.11
  Q 1573.75 405.64 1540.19 397.10
  C 1529.28 394.32 1516.46 388.40 1508.29 380.52
  C 1496.43 369.07 1490.96 353.99 1490.56 337.94
  Z"
/>
<path fill="#00b278" d="
  M 755.34 398.40
  A 0.69 0.68 -1.3 0 1 754.65 397.75
  Q 754.35 392.09 754.58 383.00
  Q 754.59 382.67 754.27 382.46
  A 0.39 0.39 0.0 0 0 753.74 382.55
  Q 742.47 398.40 722.94 400.77
  Q 695.90 404.06 674.39 390.29
  C 659.35 380.65 649.52 363.42 645.85 345.15
  Q 643.43 333.09 644.47 318.74
  C 645.58 303.47 650.75 288.32 659.83 276.37
  Q 679.98 249.89 716.25 250.96
  Q 729.91 251.37 741.20 258.23
  C 745.71 260.97 749.51 265.19 752.93 269.08
  A 0.26 0.26 0.0 0 0 753.38 268.91
  L 753.38 202.65
  A 0.50 0.50 0.0 0 1 753.88 202.15
  L 802.89 202.15
  A 0.44 0.44 0.0 0 1 803.33 202.59
  L 803.33 397.42
  A 0.98 0.98 0.0 0 1 802.35 398.40
  L 755.34 398.40
  Z
  M 696.04 326.11
  C 695.81 343.55 706.33 358.49 724.92 358.74
  C 743.50 358.98 754.41 344.32 754.64 326.88
  C 754.87 309.43 744.35 294.49 725.76 294.24
  C 707.18 294.00 696.27 308.66 696.04 326.11
  Z"
/>
<path fill="#ffffff" d="
  M 2149.47 216.40
  L 2197.32 212.48
  A 0.52 0.52 0.0 0 1 2197.89 213.00
  L 2197.89 253.59
  A 0.58 0.58 0.0 0 0 2198.47 254.17
  L 2226.39 254.17
  A 0.77 0.76 -90.0 0 1 2227.15 254.94
  L 2227.15 294.04
  A 0.73 0.73 0.0 0 1 2226.42 294.77
  L 2198.58 294.77
  A 0.76 0.76 0.0 0 0 2197.82 295.53
  Q 2197.97 332.82 2197.86 337.74
  C 2197.61 348.63 2198.85 356.78 2211.01 357.15
  Q 2217.65 357.36 2226.73 357.12
  A 0.42 0.42 0.0 0 1 2227.16 357.54
  L 2227.16 397.72
  A 0.53 0.52 -1.1 0 1 2226.65 398.24
  C 2210.58 398.93 2193.44 400.04 2177.82 395.04
  C 2157.34 388.49 2148.88 370.59 2149.03 350.25
  Q 2149.04 348.34 2148.89 295.69
  A 0.92 0.91 -0.0 0 0 2147.97 294.78
  L 2128.85 294.78
  A 0.56 0.55 -90.0 0 1 2128.30 294.22
  L 2128.30 254.70
  A 0.53 0.52 90.0 0 1 2128.82 254.17
  L 2148.26 254.17
  A 0.62 0.62 0.0 0 0 2148.88 253.55
  L 2148.88 217.04
  A 0.64 0.64 0.0 0 1 2149.47 216.40
  Z"
/>
<path fill="#ffffff" d="
  M 1724.68 270.73
  A 0.47 0.47 0.0 0 0 1725.54 270.99
  Q 1732.99 259.92 1744.80 254.85
  C 1761.43 247.71 1782.84 250.44 1798.52 258.84
  Q 1811.99 266.06 1821.22 279.66
  C 1833.43 297.63 1836.52 320.12 1833.70 341.50
  C 1830.50 365.84 1817.01 386.64 1793.84 396.06
  C 1771.79 405.01 1742.51 404.38 1726.64 384.18
  A 0.49 0.49 0.0 0 0 1725.77 384.48
  L 1725.77 449.18
  A 1.06 1.06 0.0 0 1 1724.71 450.24
  L 1676.58 450.24
  A 0.47 0.47 0.0 0 1 1676.11 449.77
  L 1676.11 254.70
  A 0.52 0.51 -0.0 0 1 1676.63 254.19
  L 1723.90 254.19
  A 0.78 0.77 0.0 0 1 1724.68 254.96
  L 1724.68 270.73
  Z
  M 1725.10 327.08
  C 1725.44 344.54 1736.45 359.15 1755.05 358.79
  C 1773.65 358.42 1784.09 343.40 1783.75 325.94
  C 1783.41 308.48 1772.40 293.87 1753.80 294.23
  C 1735.20 294.59 1724.76 309.62 1725.10 327.08
  Z"
/>
<path fill="#ffffff" d="
  M 1924.82 250.86
  C 1946.06 250.46 1968.28 256.44 1984.05 271.27
  C 2001.63 287.78 2009.14 312.69 2006.40 336.44
  C 2001.48 379.02 1968.06 400.83 1927.60 401.57
  C 1887.14 402.32 1852.94 381.76 1846.45 339.39
  C 1842.83 315.76 1849.42 290.59 1866.37 273.44
  C 1881.59 258.04 1903.57 251.25 1924.82 250.86
  Z
  M 1896.70 325.87
  C 1896.36 344.00 1906.71 358.51 1925.93 358.87
  C 1945.14 359.23 1956.03 345.11 1956.37 326.99
  C 1956.70 308.86 1946.36 294.35 1927.14 293.99
  C 1907.92 293.63 1897.04 307.75 1896.70 325.87
  Z"
/>
<path fill="#ffffff" d="
  M 2367.20 296.90
  A 0.57 0.57 0.0 0 1 2366.63 297.49
  L 2320.38 297.49
  A 0.47 0.46 -5.2 0 1 2319.92 297.11
  C 2318.98 291.42 2314.52 287.96 2309.06 286.48
  Q 2299.02 283.74 2289.69 287.11
  C 2282.06 289.87 2280.35 298.96 2288.22 302.84
  Q 2291.96 304.70 2295.92 305.39
  Q 2313.44 308.49 2333.57 313.37
  C 2349.69 317.27 2365.60 327.02 2368.70 344.52
  Q 2370.69 355.70 2368.29 366.00
  C 2363.95 384.61 2346.84 394.60 2329.54 398.53
  Q 2299.72 405.32 2270.79 397.68
  C 2255.59 393.66 2240.74 384.35 2235.90 368.67
  Q 2233.79 361.83 2233.31 355.05
  A 0.81 0.81 0.0 0 1 2234.12 354.18
  L 2279.86 354.18
  A 0.89 0.89 0.0 0 1 2280.73 354.87
  Q 2282.78 364.07 2292.17 366.63
  C 2299.45 368.62 2311.49 369.43 2317.87 364.63
  C 2323.86 360.12 2323.02 352.73 2316.17 349.69
  Q 2311.67 347.70 2306.69 346.82
  Q 2292.55 344.34 2276.39 340.39
  C 2258.96 336.12 2241.93 329.19 2237.02 310.01
  Q 2234.11 298.65 2237.08 286.77
  C 2240.93 271.40 2254.30 261.24 2268.74 256.26
  Q 2298.70 245.92 2330.90 255.08
  C 2351.28 260.87 2366.41 274.67 2367.20 296.90
  Z"
/>
<path fill="#00b278" d="
  M 527.00 339.01
  C 529.07 355.81 544.88 364.69 560.98 363.08
  Q 573.30 361.84 579.75 351.36
  A 1.31 1.30 18.0 0 1 580.98 350.74
  Q 589.47 351.47 599.52 352.77
  C 609.02 353.99 617.58 354.46 627.45 354.88
  A 0.78 0.78 0.0 0 1 628.17 355.84
  Q 627.48 358.70 626.24 361.74
  C 616.35 385.82 594.69 397.97 569.50 400.80
  C 545.18 403.54 517.73 399.17 498.77 382.48
  C 476.10 362.50 470.06 329.33 479.18 301.23
  Q 488.15 273.62 513.43 260.51
  C 523.36 255.35 534.51 252.13 546.29 251.33
  Q 558.58 250.49 566.99 251.49
  C 578.44 252.85 590.34 256.74 600.30 263.31
  Q 621.65 277.40 628.71 302.75
  Q 633.57 320.20 631.44 337.90
  A 0.58 0.58 0.0 0 1 630.86 338.41
  L 527.53 338.41
  A 0.53 0.53 0.0 0 0 527.00 339.01
  Z
  M 554.53 311.42
  Q 570.79 311.36 581.48 311.30
  A 0.51 0.51 0.0 0 0 581.97 310.69
  C 579.16 296.90 568.53 288.50 554.44 288.55
  C 540.36 288.60 529.78 297.08 527.07 310.89
  A 0.51 0.51 0.0 0 0 527.57 311.50
  Q 538.26 311.48 554.53 311.42
  Z"
/>
<path fill="#00b278" d="
  M 972.64 354.87
  A 0.51 0.51 0.0 0 1 973.10 355.54
  Q 971.29 360.89 969.42 365.18
  C 962.37 381.28 946.95 393.15 929.94 397.66
  Q 907.67 403.56 885.65 400.76
  C 881.00 400.17 875.34 398.48 871.13 397.51
  Q 867.14 396.59 865.39 395.88
  Q 850.16 389.70 841.42 381.23
  Q 822.61 363.02 819.96 336.47
  C 817.52 312.03 824.90 288.05 843.05 271.21
  Q 855.95 259.25 875.47 253.95
  C 899.18 247.51 929.08 250.53 949.32 266.15
  Q 965.20 278.41 972.02 298.27
  Q 978.57 317.31 976.49 337.53
  A 1.02 1.01 -87.2 0 1 975.48 338.45
  L 872.04 338.45
  A 0.48 0.48 0.0 0 0 871.56 339.00
  Q 874.21 356.86 891.68 362.05
  Q 899.60 364.40 908.92 362.38
  Q 919.07 360.19 924.15 351.34
  A 0.81 0.81 0.0 0 1 924.90 350.94
  Q 934.60 351.51 944.76 352.80
  C 953.68 353.93 960.90 354.35 972.64 354.87
  Z
  M 899.32 311.38
  Q 915.62 311.37 926.33 311.34
  A 0.51 0.51 0.0 0 0 926.82 310.74
  C 924.05 296.91 913.42 288.45 899.31 288.46
  C 885.19 288.47 874.57 296.93 871.82 310.76
  A 0.51 0.51 0.0 0 0 872.31 311.37
  Q 883.02 311.39 899.32 311.38
  Z"
/>
<path fill="#00b278" d="
  M 1142.01 397.44
  A 1.06 1.05 -87.3 0 1 1140.96 398.40
  L 1092.57 398.40
  A 0.81 0.80 89.6 0 1 1091.77 397.60
  Q 1091.72 386.13 1091.77 321.75
  C 1091.77 317.25 1091.56 312.79 1090.21 308.84
  Q 1085.27 294.43 1068.74 294.45
  C 1058.05 294.46 1047.55 300.78 1044.39 311.14
  C 1043.42 314.33 1042.77 318.31 1042.76 322.05
  Q 1042.69 362.70 1042.80 390.25
  Q 1042.82 394.08 1042.62 397.92
  A 0.52 0.52 0.0 0 1 1042.10 398.41
  L 994.04 398.41
  A 0.89 0.89 0.0 0 1 993.15 397.52
  L 993.15 254.61
  A 0.45 0.45 0.0 0 1 993.60 254.16
  L 1040.80 254.16
  A 1.07 1.07 0.0 0 1 1041.87 255.23
  L 1041.87 271.70
  A 0.45 0.44 63.4 0 0 1042.67 271.97
  C 1046.48 266.83 1052.06 260.89 1058.11 257.84
  Q 1067.73 252.98 1075.00 251.75
  Q 1080.97 250.74 1092.00 251.22
  Q 1112.13 252.11 1126.13 265.55
  C 1138.48 277.40 1142.30 294.97 1142.24 311.84
  Q 1142.14 338.56 1142.26 393.00
  Q 1142.27 394.88 1142.01 397.44
  Z"
/>
<path fill="#00b278" d="
  M 1310.89 309.74
  A 0.64 0.64 0.0 0 1 1310.27 310.42
  L 1263.43 311.93
  A 1.00 1.00 0.0 0 1 1262.41 311.12
  C 1260.79 302.46 1252.06 296.10 1243.89 294.64
  C 1235.98 293.23 1227.89 294.08 1221.15 299.02
  Q 1211.19 306.31 1209.09 319.59
  Q 1208.76 321.64 1208.77 328.71
  Q 1208.77 334.18 1209.77 337.77
  C 1212.12 346.17 1217.92 353.82 1226.32 357.00
  C 1240.05 362.20 1257.80 358.35 1262.64 342.71
  A 0.97 0.95 9.0 0 1 1263.59 342.03
  L 1311.33 343.50
  A 0.20 0.20 0.0 0 1 1311.53 343.71
  C 1309.81 363.54 1300.60 379.89 1283.60 390.08
  C 1278.40 393.20 1271.94 396.11 1265.95 397.69
  Q 1233.28 406.29 1202.93 395.82
  Q 1192.85 392.34 1181.59 383.64
  Q 1173.40 377.30 1167.02 366.31
  C 1153.14 342.40 1154.59 308.28 1169.04 285.22
  C 1179.96 267.80 1197.19 257.03 1217.79 252.86
  C 1241.35 248.10 1267.96 251.70 1287.67 266.34
  Q 1296.30 272.75 1302.95 283.05
  C 1307.41 289.94 1310.38 300.35 1310.89 309.74
  Z"
/>
<path fill="#00b278" d="
  M 1373.61 338.47
  A 0.44 0.43 86.0 0 0 1373.18 338.97
  C 1375.01 350.88 1383.78 361.01 1396.14 362.60
  C 1405.39 363.80 1415.15 362.95 1421.88 356.11
  Q 1423.23 354.74 1425.89 351.20
  A 1.20 1.20 0.0 0 1 1426.97 350.73
  C 1442.15 352.26 1458.31 354.47 1473.29 354.91
  A 0.66 0.66 0.0 0 1 1473.91 355.74
  Q 1470.35 369.76 1460.58 380.07
  C 1449.28 392.00 1436.04 397.34 1419.27 400.18
  C 1396.92 403.96 1371.64 400.52 1352.91 388.32
  C 1335.07 376.70 1323.70 356.91 1321.80 335.13
  C 1319.93 313.63 1326.37 290.26 1341.30 274.55
  C 1359.62 255.27 1388.64 248.09 1414.75 251.83
  Q 1428.51 253.80 1440.10 259.69
  C 1452.77 266.13 1464.22 277.76 1469.95 290.79
  C 1472.10 295.67 1474.28 301.15 1475.48 306.62
  Q 1478.80 321.83 1477.41 337.57
  A 0.99 0.98 -87.5 0 1 1476.43 338.47
  L 1373.61 338.47
  Z
  M 1401.00 311.44
  Q 1417.27 311.44 1427.95 311.42
  A 0.51 0.51 0.0 0 0 1428.45 310.81
  C 1425.69 297.01 1415.09 288.57 1401.00 288.57
  C 1386.92 288.57 1376.31 297.01 1373.55 310.81
  A 0.51 0.51 0.0 0 0 1374.05 311.42
  Q 1384.73 311.44 1401.00 311.44
  Z"
/>
<path fill="#00b278" d="
  M 420.58 273.68
  A 0.55 0.55 0.0 0 0 421.60 273.98
  C 424.72 268.71 428.41 263.98 433.77 260.29
  Q 449.50 249.49 469.47 253.30
  A 0.43 0.42 -85.2 0 1 469.82 253.72
  L 469.82 299.27
  A 0.46 0.46 0.0 0 1 469.30 299.73
  C 457.82 298.27 446.16 297.24 435.93 302.56
  C 425.66 307.91 421.65 317.72 421.62 329.05
  Q 421.55 358.99 421.70 397.14
  A 1.26 1.25 -0.2 0 1 420.44 398.40
  L 372.19 398.40
  A 1.03 1.03 0.0 0 1 371.16 397.37
  L 371.16 254.70
  A 0.53 0.53 0.0 0 1 371.69 254.17
  L 419.51 254.17
  A 1.61 1.61 0.0 0 1 421.12 255.83
  L 420.58 273.68
  Z"
/>
<path fill="#ffffff" d="
  M 2071.49 273.56
  A 0.33 0.33 0.0 0 0 2072.10 273.73
  C 2082.31 256.64 2101.27 249.60 2120.36 253.66
  A 0.61 0.61 0.0 0 1 2120.85 254.26
  L 2120.85 299.16
  A 0.45 0.45 0.0 0 1 2120.35 299.61
  C 2108.13 298.42 2096.87 297.06 2085.84 303.00
  C 2075.19 308.74 2072.29 319.13 2072.32 330.75
  Q 2072.52 389.83 2072.41 397.75
  A 0.73 0.72 -89.6 0 1 2071.69 398.47
  L 2023.22 398.47
  A 0.62 0.61 90.0 0 1 2022.61 397.85
  L 2022.61 254.75
  A 0.57 0.56 -90.0 0 1 2023.17 254.18
  L 2070.77 254.18
  A 0.72 0.72 0.0 0 1 2071.49 254.90
  L 2071.49 273.56
  Z"
/>
<path fill="#000000" d="
  M 554.53 311.42
  Q 538.26 311.48 527.57 311.50
  A 0.51 0.51 0.0 0 1 527.07 310.89
  C 529.78 297.08 540.36 288.60 554.44 288.55
  C 568.53 288.50 579.16 296.90 581.97 310.69
  A 0.51 0.51 0.0 0 1 581.48 311.30
  Q 570.79 311.36 554.53 311.42
  Z"
/>
<path fill="#000000" d="
  M 899.32 311.38
  Q 883.02 311.39 872.31 311.37
  A 0.51 0.51 0.0 0 1 871.82 310.76
  C 874.57 296.93 885.19 288.47 899.31 288.46
  C 913.42 288.45 924.05 296.91 926.82 310.74
  A 0.51 0.51 0.0 0 1 926.33 311.34
  Q 915.62 311.37 899.32 311.38
  Z"
/>
<path fill="#000000" d="
  M 1401.00 288.57
  C 1415.09 288.57 1425.69 297.01 1428.45 310.81
  A 0.51 0.51 0.0 0 1 1427.95 311.42
  Q 1417.27 311.44 1401.00 311.44
  Q 1384.73 311.44 1374.05 311.42
  A 0.51 0.51 0.0 0 1 1373.55 310.81
  C 1376.31 297.01 1386.92 288.57 1401.00 288.57
  Z"
/>
<path fill="#000000" d="
  M 1927.14 293.99
  C 1946.36 294.35 1956.70 308.86 1956.37 326.99
  C 1956.03 345.11 1945.14 359.23 1925.93 358.87
  C 1906.71 358.51 1896.36 344.00 1896.70 325.87
  C 1897.04 307.75 1907.92 293.63 1927.14 293.99
  Z"
/>
<path fill="#000000" d="
  M 725.76 294.24
  C 744.35 294.49 754.87 309.43 754.64 326.88
  C 754.41 344.32 743.50 358.98 724.92 358.74
  C 706.33 358.49 695.81 343.55 696.04 326.11
  C 696.27 308.66 707.18 294.00 725.76 294.24
  Z"
/>
<path fill="#000000" d="
  M 1725.10 327.08
  C 1724.76 309.62 1735.20 294.59 1753.80 294.23
  C 1772.40 293.87 1783.41 308.48 1783.75 325.94
  C 1784.09 343.40 1773.65 358.42 1755.05 358.79
  C 1736.45 359.15 1725.44 344.54 1725.10 327.08
  Z"
/>
</svg>
