<?xml version="1.0" encoding="UTF-8" standalone="no"?>
<!DOCTYPE svg PUBLIC "-//W3C//DTD SVG 1.1//EN" "http://www.w3.org/Graphics/SVG/1.1/DTD/svg11.dtd">
<svg xmlns="http://www.w3.org/2000/svg" version="1.1" viewBox="0.00 0.00 1254.00 1254.00">
<g stroke-width="2.00" fill="none" stroke-linecap="butt">
<path stroke="#095f3f" vector-effect="non-scaling-stroke" d="
  M 946.76 389.89
  A 0.62 0.61 -3.1 0 0 947.31 389.28
  L 947.31 241.09
  A 0.39 0.39 0.0 0 0 946.92 240.70
  Q 794.77 240.70 622.51 240.73
  C 556.05 240.75 491.49 256.29 435.59 290.61
  Q 379.39 325.10 341.42 378.29
  Q 324.68 401.75 311.32 430.00
  C 288.66 477.91 276.71 531.69 275.54 584.25
  Q 275.06 605.62 275.72 632.00
  Q 277.40 698.90 301.29 761.23
  Q 330.12 836.42 387.55 888.60
  Q 426.20 923.71 473.91 945.63
  C 520.02 966.82 571.10 977.58 622.25 977.61
  Q 708.19 977.66 946.63 977.64
  A 0.68 0.68 0.0 0 0 947.31 976.96
  L 947.31 829.33
  A 0.57 0.57 0.0 0 0 946.77 828.76
  C 940.28 828.48 932.86 828.68 927.34 828.68
  Q 666.33 828.64 654.25 828.67
  Q 624.03 828.76 614.00 828.20
  C 574.10 826.00 535.10 812.69 503.55 788.20
  Q 488.48 776.51 477.42 764.34
  Q 456.02 740.79 442.86 712.70
  Q 435.88 697.80 431.90 685.41
  Q 424.29 661.67 421.75 636.98
  C 415.14 572.80 431.38 506.91 474.12 457.88
  C 512.70 413.63 565.70 389.98 624.00 389.99
  Q 940.57 390.01 945.50 389.95
  Q 946.26 389.94 946.76 389.89"
/>
<path stroke="#818181" vector-effect="non-scaling-stroke" d="
  M 738.84 625.41
  Q 916.14 625.40 916.71 625.45
  A 0.48 0.47 -87.8 0 1 917.15 625.92
  L 917.19 669.87
  A 0.45 0.44 -90.0 0 0 917.63 670.32
  L 945.82 670.32
  A 0.55 0.55 0.0 0 0 946.37 669.77
  L 946.37 551.98
  A 0.62 0.62 0.0 0 0 945.75 551.36
  L 917.63 551.36
  A 0.47 0.47 0.0 0 0 917.16 551.83
  L 917.16 597.05
  A 0.78 0.78 0.0 0 1 916.39 597.83
  Q 907.66 597.85 738.84 597.86
  Q 570.01 597.87 561.28 597.85
  A 0.78 0.78 0.0 0 1 560.51 597.07
  L 560.51 551.85
  A 0.47 0.47 0.0 0 0 560.04 551.38
  L 531.92 551.39
  A 0.62 0.62 0.0 0 0 531.30 552.01
  L 531.31 669.80
  A 0.55 0.55 0.0 0 0 531.86 670.35
  L 560.05 670.34
  A 0.45 0.44 90.0 0 0 560.49 669.89
  L 560.52 625.94
  A 0.48 0.47 87.8 0 1 560.96 625.47
  Q 561.53 625.42 738.84 625.41"
/>
</g>
<path fill="#030303" d="
  M 1254.00 0.00
  L 1254.00 1254.00
  L 0.00 1254.00
  L 0.00 0.00
  L 1254.00 0.00
  Z
  M 946.76 389.89
  A 0.62 0.61 -3.1 0 0 947.31 389.28
  L 947.31 241.09
  A 0.39 0.39 0.0 0 0 946.92 240.70
  Q 794.77 240.70 622.51 240.73
  C 556.05 240.75 491.49 256.29 435.59 290.61
  Q 379.39 325.10 341.42 378.29
  Q 324.68 401.75 311.32 430.00
  C 288.66 477.91 276.71 531.69 275.54 584.25
  Q 275.06 605.62 275.72 632.00
  Q 277.40 698.90 301.29 761.23
  Q 330.12 836.42 387.55 888.60
  Q 426.20 923.71 473.91 945.63
  C 520.02 966.82 571.10 977.58 622.25 977.61
  Q 708.19 977.66 946.63 977.64
  A 0.68 0.68 0.0 0 0 947.31 976.96
  L 947.31 829.33
  A 0.57 0.57 0.0 0 0 946.77 828.76
  C 940.28 828.48 932.86 828.68 927.34 828.68
  Q 666.33 828.64 654.25 828.67
  Q 624.03 828.76 614.00 828.20
  C 574.10 826.00 535.10 812.69 503.55 788.20
  Q 488.48 776.51 477.42 764.34
  Q 456.02 740.79 442.86 712.70
  Q 435.88 697.80 431.90 685.41
  Q 424.29 661.67 421.75 636.98
  C 415.14 572.80 431.38 506.91 474.12 457.88
  C 512.70 413.63 565.70 389.98 624.00 389.99
  Q 940.57 390.01 945.50 389.95
  Q 946.26 389.94 946.76 389.89
  Z
  M 738.84 625.41
  Q 916.14 625.40 916.71 625.45
  A 0.48 0.47 -87.8 0 1 917.15 625.92
  L 917.19 669.87
  A 0.45 0.44 -90.0 0 0 917.63 670.32
  L 945.82 670.32
  A 0.55 0.55 0.0 0 0 946.37 669.77
  L 946.37 551.98
  A 0.62 0.62 0.0 0 0 945.75 551.36
  L 917.63 551.36
  A 0.47 0.47 0.0 0 0 917.16 551.83
  L 917.16 597.05
  A 0.78 0.78 0.0 0 1 916.39 597.83
  Q 907.66 597.85 738.84 597.86
  Q 570.01 597.87 561.28 597.85
  A 0.78 0.78 0.0 0 1 560.51 597.07
  L 560.51 551.85
  A 0.47 0.47 0.0 0 0 560.04 551.38
  L 531.92 551.39
  A 0.62 0.62 0.0 0 0 531.30 552.01
  L 531.31 669.80
  A 0.55 0.55 0.0 0 0 531.86 670.35
  L 560.05 670.34
  A 0.45 0.44 90.0 0 0 560.49 669.89
  L 560.52 625.94
  A 0.48 0.47 87.8 0 1 560.96 625.47
  Q 561.53 625.42 738.84 625.41
  Z"
/>
<path fill="#0fbb7b" d="
  M 946.76 389.89
  Q 946.26 389.94 945.50 389.95
  Q 940.57 390.01 624.00 389.99
  C 565.70 389.98 512.70 413.63 474.12 457.88
  C 431.38 506.91 415.14 572.80 421.75 636.98
  Q 424.29 661.67 431.90 685.41
  Q 435.88 697.80 442.86 712.70
  Q 456.02 740.79 477.42 764.34
  Q 488.48 776.51 503.55 788.20
  C 535.10 812.69 574.10 826.00 614.00 828.20
  Q 624.03 828.76 654.25 828.67
  Q 666.33 828.64 927.34 828.68
  C 932.86 828.68 940.28 828.48 946.77 828.76
  A 0.57 0.57 0.0 0 1 947.31 829.33
  L 947.31 976.96
  A 0.68 0.68 0.0 0 1 946.63 977.64
  Q 708.19 977.66 622.25 977.61
  C 571.10 977.58 520.02 966.82 473.91 945.63
  Q 426.20 923.71 387.55 888.60
  Q 330.12 836.42 301.29 761.23
  Q 277.40 698.90 275.72 632.00
  Q 275.06 605.62 275.54 584.25
  C 276.71 531.69 288.66 477.91 311.32 430.00
  Q 324.68 401.75 341.42 378.29
  Q 379.39 325.10 435.59 290.61
  C 491.49 256.29 556.05 240.75 622.51 240.73
  Q 794.77 240.70 946.92 240.70
  A 0.39 0.39 0.0 0 1 947.31 241.09
  L 947.31 389.28
  A 0.62 0.61 -3.1 0 1 946.76 389.89
  Z"
/>
<path fill="#ffffff" d="
  M 738.84 597.86
  Q 907.66 597.85 916.39 597.83
  A 0.78 0.78 0.0 0 0 917.16 597.05
  L 917.16 551.83
  A 0.47 0.47 0.0 0 1 917.63 551.36
  L 945.75 551.36
  A 0.62 0.62 0.0 0 1 946.37 551.98
  L 946.37 669.77
  A 0.55 0.55 0.0 0 1 945.82 670.32
  L 917.63 670.32
  A 0.45 0.44 90.0 0 1 917.19 669.87
  L 917.15 625.92
  A 0.48 0.47 -87.8 0 0 916.71 625.45
  Q 916.14 625.40 738.84 625.41
  Q 561.53 625.42 560.96 625.47
  A 0.48 0.47 87.8 0 0 560.52 625.94
  L 560.49 669.89
  A 0.45 0.44 90.0 0 1 560.05 670.34
  L 531.86 670.35
  A 0.55 0.55 0.0 0 1 531.31 669.80
  L 531.30 552.01
  A 0.62 0.62 0.0 0 1 531.92 551.39
  L 560.04 551.38
  A 0.47 0.47 0.0 0 1 560.51 551.85
  L 560.51 597.07
  A 0.78 0.78 0.0 0 0 561.28 597.85
  Q 570.01 597.87 738.84 597.86
  Z"
/>
</svg>
