<?xml version="1.0" encoding="UTF-8" standalone="no"?>
<!DOCTYPE svg PUBLIC "-//W3C//DTD SVG 1.1//EN" "http://www.w3.org/Graphics/SVG/1.1/DTD/svg11.dtd">
<svg xmlns="http://www.w3.org/2000/svg" version="1.1" viewBox="0.00 0.00 2172.00 724.00">
<g stroke-width="2.00" fill="none" stroke-linecap="butt">
<path stroke="#818182" vector-effect="non-scaling-stroke" d="
  M 304.39 463.28
  L 209.34 463.21
  A 0.69 0.69 0.0 0 1 208.65 462.52
  L 208.65 453.54
  A 3.59 3.58 90.0 0 0 205.07 449.95
  L 204.58 449.95
  A 3.38 3.37 90.0 0 0 201.21 453.33
  L 201.20 480.07
  A 3.51 3.51 0.0 0 0 204.67 483.58
  L 204.84 483.58
  A 3.74 3.74 0.0 0 0 208.66 479.83
  L 208.63 470.96
  A 0.75 0.74 90.0 0 1 209.37 470.21
  L 304.45 470.14"
/>
<path stroke="#01623d" vector-effect="non-scaling-stroke" d="
  M 304.45 470.14
  L 304.52 494.75
  A 0.41 0.40 90.0 0 1 304.12 495.16
  L 118.37 495.16
  A 3.84 3.84 0.0 0 0 114.55 499.37
  L 114.57 499.63
  A 4.63 4.63 0.0 0 0 119.18 503.82
  Q 322.31 503.86 492.79 503.81
  Q 495.55 503.81 496.53 503.08
  C 499.00 501.22 498.28 497.49 496.44 495.68
  Q 495.49 494.75 492.39 494.93
  C 478.92 495.73 462.36 495.18 447.05 495.18
  Q 367.75 495.15 312.64 495.31
  A 0.64 0.64 0.0 0 1 312.00 494.66
  L 312.39 470.15"
/>
<path stroke="#818182" vector-effect="non-scaling-stroke" d="
  M 312.39 470.15
  L 405.55 470.20
  A 0.72 0.72 0.0 0 1 406.27 470.93
  L 406.27 479.98
  A 3.60 3.60 0.0 0 0 409.97 483.58
  L 410.00 483.58
  A 3.79 3.78 89.7 0 0 413.74 479.79
  L 413.69 453.17
  A 3.20 3.19 89.9 0 0 410.50 449.98
  L 409.78 449.98
  A 3.52 3.51 -90.0 0 0 406.27 453.50
  L 406.27 462.30
  A 0.91 0.91 0.0 0 1 405.36 463.21
  L 312.04 463.27"
/>
<path stroke="#01623d" vector-effect="non-scaling-stroke" d="
  M 312.04 463.27
  Q 312.41 459.18 312.41 455.00
  Q 312.17 310.60 312.26 250.50
  Q 312.29 224.07 312.11 218.07
  Q 312.06 216.44 312.30 214.73
  A 0.63 0.62 12.9 0 1 313.10 214.23
  Q 321.22 216.78 326.57 222.77
  Q 332.15 229.01 334.34 232.83
  Q 335.87 235.52 339.49 241.88
  C 343.38 248.71 344.91 253.32 348.77 262.12
  Q 351.23 267.72 353.30 273.23
  Q 362.76 298.43 369.61 319.62
  C 380.41 353.05 390.86 382.16 405.79 412.50
  Q 418.15 437.61 435.10 457.17
  C 450.82 475.31 469.30 488.73 493.53 492.38
  A 3.61 3.61 0.0 0 0 497.64 489.35
  L 497.67 489.17
  A 4.14 4.14 0.0 0 0 494.60 484.54
  C 485.84 482.27 476.75 480.26 468.45 474.66
  Q 454.59 465.31 448.57 458.97
  Q 425.85 435.01 411.29 404.24
  Q 397.24 374.53 386.93 344.32
  C 382.72 331.97 379.30 322.59 375.51 310.90
  Q 368.09 287.96 359.80 266.45
  Q 352.14 246.55 345.81 235.48
  Q 339.07 223.69 336.23 220.57
  Q 330.35 214.11 326.73 211.50
  C 314.95 203.03 301.40 203.39 289.85 211.61
  C 278.08 219.99 269.66 234.58 263.71 247.73
  Q 252.17 273.21 243.66 298.11
  C 229.30 340.12 221.78 364.08 206.81 396.29
  Q 194.03 423.79 176.62 446.10
  Q 164.10 462.14 147.12 472.83
  Q 133.50 481.41 117.77 484.17
  A 4.08 4.07 80.6 0 0 114.45 488.81
  L 114.49 489.06
  A 4.03 4.02 80.4 0 0 119.18 492.40
  Q 127.48 490.89 133.49 488.72
  Q 137.74 487.19 146.76 482.85
  C 155.81 478.48 164.16 471.62 170.96 465.55
  Q 175.52 461.49 181.38 454.34
  Q 190.13 443.68 191.58 441.57
  Q 203.07 424.82 212.50 405.02
  Q 222.94 383.07 231.09 361.11
  Q 235.09 350.30 247.94 311.90
  Q 255.88 288.15 265.10 265.83
  C 271.31 250.81 278.39 235.25 288.70 223.64
  Q 294.59 217.00 303.61 214.42
  A 0.55 0.54 81.8 0 1 304.31 214.95
  L 304.39 463.28"
/>
<path stroke="#80e1ba" vector-effect="non-scaling-stroke" d="
  M 312.04 463.27
  L 304.39 463.28"
/>
<path stroke="#80e1ba" vector-effect="non-scaling-stroke" d="
  M 312.39 470.15
  L 304.45 470.14"
/>
<path stroke="#01623d" vector-effect="non-scaling-stroke" d="
  M 690.27 384.81
  L 650.67 384.81
  A 0.97 0.96 -82.1 0 0 649.74 385.52
  C 645.92 399.14 635.05 407.22 621.02 408.40
  C 611.90 409.16 604.90 406.97 597.18 402.34
  C 587.25 396.39 580.70 382.51 581.31 370.86
  C 582.08 356.05 589.76 342.06 604.39 337.10
  Q 619.84 331.87 633.97 338.61
  C 641.88 342.39 647.99 349.74 649.80 358.29
  A 0.66 0.65 84.0 0 0 650.44 358.81
  L 689.56 358.81
  A 0.57 0.57 0.0 0 0 690.13 358.20
  C 689.56 348.59 686.87 340.71 682.75 332.28
  Q 676.05 318.56 662.67 309.28
  Q 651.89 301.80 640.95 299.02
  C 598.54 288.24 556.31 307.31 543.68 350.50
  Q 540.47 361.50 540.92 375.50
  Q 541.65 398.07 553.86 415.70
  C 561.22 426.32 572.94 435.25 584.61 439.92
  Q 611.32 450.61 640.40 443.58
  C 650.38 441.17 660.21 435.98 668.01 429.74
  C 680.69 419.58 688.89 401.84 691.03 385.67
  A 0.77 0.76 3.6 0 0 690.27 384.81"
/>
<path stroke="#818182" vector-effect="non-scaling-stroke" d="
  M 1560.61 344.95
  L 1596.53 344.95
  A 0.28 0.27 90.0 0 0 1596.80 344.67
  Q 1596.90 327.97 1587.31 315.59
  C 1581.33 307.86 1571.58 302.06 1562.22 299.86
  C 1546.08 296.08 1528.41 296.95 1513.18 303.97
  Q 1494.73 312.48 1490.65 332.71
  C 1487.65 347.59 1491.25 363.32 1503.26 373.49
  C 1509.27 378.59 1519.09 382.78 1526.53 384.74
  Q 1545.97 389.88 1550.01 391.00
  C 1554.73 392.31 1558.98 393.98 1560.75 398.82
  C 1562.43 403.38 1559.62 408.37 1555.36 410.16
  Q 1548.79 412.92 1541.52 412.18
  C 1531.65 411.16 1525.68 405.61 1524.46 395.78
  A 0.75 0.74 86.5 0 0 1523.72 395.12
  L 1488.51 395.12
  A 0.44 0.44 0.0 0 0 1488.07 395.55
  Q 1487.71 408.99 1493.65 420.60
  C 1504.97 442.75 1530.54 445.90 1552.70 444.42
  C 1570.52 443.23 1588.86 434.91 1596.19 417.97
  Q 1601.70 405.22 1599.02 390.57
  C 1596.04 374.30 1584.59 363.66 1569.00 358.33
  Q 1559.94 355.23 1557.73 354.76
  Q 1545.85 352.20 1536.40 348.89
  C 1530.99 347.00 1524.89 343.07 1529.02 336.41
  C 1531.95 331.67 1540.00 330.53 1545.11 331.00
  C 1552.91 331.71 1558.72 336.44 1559.83 344.28
  A 0.79 0.79 0.0 0 0 1560.61 344.95"
/>
<path stroke="#01623d" vector-effect="non-scaling-stroke" d="
  M 972.82 433.96
  L 972.82 442.54
  A 0.88 0.87 0.0 0 0 973.70 443.41
  L 1007.55 443.41
  A 0.79 0.79 0.0 0 0 1008.34 442.62
  L 1008.34 299.22
  A 0.31 0.31 0.0 0 0 1008.03 298.91
  L 971.38 298.91
  A 0.44 0.44 0.0 0 0 970.94 299.35
  L 970.94 345.32
  A 0.31 0.31 0.0 0 1 970.41 345.54
  C 962.95 338.09 950.88 335.17 940.71 335.84
  Q 918.11 337.33 904.67 353.68
  C 893.42 367.37 890.22 385.77 893.08 403.51
  C 895.69 419.67 906.39 434.45 921.30 441.19
  C 930.88 445.52 940.60 446.08 951.91 444.93
  Q 964.65 443.62 972.09 433.72
  A 0.41 0.40 -26.7 0 1 972.82 433.96"
/>
<path stroke="#818182" vector-effect="non-scaling-stroke" d="
  M 1929.62 338.88
  L 1915.56 338.88
  A 0.86 0.86 0.0 0 0 1914.70 339.74
  L 1914.70 368.50
  A 0.74 0.73 90.0 0 0 1915.43 369.24
  L 1929.59 369.24
  A 0.82 0.81 0.0 0 1 1930.41 370.05
  Q 1930.33 406.69 1930.50 412.00
  C 1930.87 423.90 1937.95 433.99 1948.36 439.13
  C 1959.17 444.47 1973.71 443.77 1985.97 441.45
  A 0.70 0.69 85.1 0 0 1986.54 440.76
  L 1986.54 411.62
  A 0.81 0.80 85.7 0 0 1985.62 410.82
  Q 1978.33 411.92 1972.29 411.29
  C 1964.27 410.46 1963.88 402.97 1963.93 396.75
  Q 1964.07 379.90 1964.13 369.89
  A 0.65 0.64 -0.0 0 1 1964.78 369.25
  L 1985.24 369.25
  A 0.59 0.58 0.0 0 0 1985.83 368.67
  L 1985.83 339.28
  A 0.42 0.42 0.0 0 0 1985.41 338.86
  L 1964.62 338.86
  A 0.55 0.54 90.0 0 1 1964.08 338.31
  L 1964.08 311.64
  A 0.80 0.80 0.0 0 0 1963.28 310.84
  L 1930.89 310.84
  A 0.47 0.47 0.0 0 0 1930.42 311.31
  L 1930.42 338.08
  A 0.80 0.80 0.0 0 1 1929.62 338.88"
/>
<path stroke="#01623d" vector-effect="non-scaling-stroke" d="
  M 811.67 399.88
  L 885.79 399.88
  A 0.99 0.98 3.3 0 0 886.77 399.01
  Q 889.45 375.61 877.01 357.06
  C 873.35 351.60 867.09 346.36 861.80 343.04
  C 856.74 339.87 847.76 337.20 842.69 336.31
  Q 815.81 331.59 793.31 346.53
  C 784.91 352.10 778.23 362.70 775.07 372.02
  Q 771.03 383.90 772.85 399.69
  C 775.48 422.45 793.29 439.56 815.29 444.14
  Q 836.32 448.51 855.62 441.88
  C 866.63 438.10 877.54 429.39 882.71 418.11
  Q 885.62 411.74 886.24 410.06
  A 0.87 0.87 0.0 0 0 885.47 408.90
  L 850.26 407.22
  A 1.62 1.61 -70.3 0 0 848.86 407.89
  C 839.74 420.66 813.93 417.99 811.06 400.59
  A 0.62 0.62 0.0 0 1 811.67 399.88"
/>
<path stroke="#01623d" vector-effect="non-scaling-stroke" d="
  M 1474.55 408.91
  L 1438.78 407.20
  A 1.16 1.15 19.1 0 0 1437.76 407.69
  Q 1435.68 410.64 1432.56 412.88
  C 1427.23 416.70 1417.88 416.06 1412.17 413.77
  Q 1403.27 410.20 1401.72 400.32
  A 0.35 0.35 0.0 0 1 1402.07 399.92
  L 1474.87 399.92
  A 1.15 1.15 0.0 0 0 1476.01 398.94
  Q 1477.14 391.62 1475.98 384.53
  Q 1475.89 383.96 1473.66 373.96
  C 1471.31 363.45 1464.18 351.29 1454.99 345.27
  C 1437.07 333.54 1415.09 331.99 1395.70 340.98
  Q 1382.82 346.95 1375.32 357.58
  C 1368.38 367.42 1364.77 379.04 1364.93 391.27
  Q 1365.03 398.54 1365.74 402.25
  C 1370.51 427.38 1389.45 442.88 1414.49 445.22
  Q 1430.17 446.68 1444.04 442.11
  C 1459.41 437.04 1469.66 424.24 1474.70 409.12
  A 0.16 0.16 0.0 0 0 1474.55 408.91"
/>
<path stroke="#01623d" vector-effect="non-scaling-stroke" d="
  M 1126.16 408.86
  L 1092.16 407.23
  A 1.36 1.36 0.0 0 0 1091.04 407.74
  C 1085.73 414.41 1077.07 416.84 1068.85 415.31
  C 1060.57 413.77 1055.29 408.59 1053.52 400.34
  A 0.37 0.36 -6.3 0 1 1053.88 399.90
  L 1126.98 399.90
  A 1.18 1.17 -89.5 0 0 1128.15 398.74
  C 1128.24 391.73 1129.02 386.73 1127.64 380.75
  C 1126.20 374.51 1124.98 368.25 1122.05 363.21
  C 1119.22 358.33 1116.10 353.23 1112.09 349.66
  Q 1097.53 336.69 1077.51 335.44
  Q 1062.87 334.52 1049.19 339.88
  C 1014.77 353.39 1004.57 398.09 1027.79 426.35
  Q 1035.95 436.28 1047.96 441.17
  C 1060.31 446.19 1077.58 446.99 1090.24 443.95
  Q 1118.03 437.27 1126.88 409.89
  A 0.79 0.79 0.0 0 0 1126.16 408.86"
/>
<path stroke="#01623d" vector-effect="non-scaling-stroke" d="
  M 1360.52 399.78
  A 0.24 0.24 0.0 0 0 1360.28 399.52
  L 1325.20 399.52
  A 1.43 1.42 10.5 0 0 1323.87 400.43
  C 1319.47 411.90 1307.02 414.14 1296.35 410.22
  Q 1294.12 409.41 1291.19 405.95
  Q 1285.79 399.59 1285.57 393.09
  C 1285.23 382.92 1289.42 373.59 1299.44 370.49
  C 1309.41 367.40 1320.32 370.86 1323.28 381.46
  A 1.19 1.18 82.3 0 0 1324.42 382.33
  L 1359.27 382.33
  A 0.51 0.51 0.0 0 0 1359.78 381.83
  C 1359.88 372.90 1356.28 362.66 1350.68 355.65
  C 1340.11 342.42 1325.67 336.42 1308.78 335.60
  C 1288.42 334.61 1268.46 342.98 1257.70 360.62
  C 1244.46 382.32 1245.91 410.05 1263.58 428.92
  C 1282.75 449.40 1322.08 450.85 1343.37 433.32
  Q 1358.51 420.85 1360.52 399.78"
/>
<path stroke="#01623d" vector-effect="non-scaling-stroke" d="
  M 1170.62 348.68
  L 1170.62 338.96
  A 0.61 0.61 0.0 0 0 1170.01 338.35
  L 1136.01 338.35
  A 0.77 0.77 0.0 0 0 1135.24 339.12
  L 1135.24 443.03
  A 0.36 0.35 -0.0 0 0 1135.60 443.38
  L 1170.92 443.38
  A 0.60 0.59 -0.5 0 0 1171.52 442.78
  Q 1171.39 407.81 1171.71 390.04
  Q 1171.84 383.03 1173.28 380.06
  Q 1178.64 369.01 1189.64 369.14
  C 1197.39 369.23 1203.60 373.42 1205.44 381.30
  C 1206.10 384.15 1206.60 389.11 1206.64 392.93
  Q 1206.91 418.26 1206.65 442.86
  A 0.54 0.53 -0.0 0 0 1207.19 443.39
  L 1241.34 443.39
  A 0.64 0.64 0.0 0 0 1241.98 442.76
  Q 1242.25 415.89 1242.03 380.66
  Q 1241.97 372.04 1241.01 367.50
  Q 1239.44 360.06 1236.79 354.98
  Q 1229.06 340.17 1211.55 336.71
  C 1198.16 334.07 1179.96 336.79 1171.59 348.98
  A 0.53 0.53 0.0 0 1 1170.62 348.68"
/>
<path stroke="#818182" vector-effect="non-scaling-stroke" d="
  M 1641.25 347.49
  L 1641.25 339.23
  A 0.57 0.57 0.0 0 0 1640.68 338.66
  L 1607.14 338.66
  A 0.68 0.68 0.0 0 0 1606.46 339.34
  L 1606.46 480.80
  A 0.75 0.75 0.0 0 0 1607.21 481.55
  L 1641.20 481.55
  A 0.66 0.65 -0.0 0 0 1641.86 480.90
  L 1641.86 436.43
  A 0.47 0.47 0.0 0 1 1642.64 436.07
  C 1651.53 443.68 1661.78 445.24 1673.45 444.49
  Q 1694.45 443.14 1707.74 425.50
  C 1715.45 415.26 1719.09 400.84 1718.32 388.52
  C 1717.50 375.31 1714.08 363.19 1705.69 352.84
  C 1693.86 338.25 1677.29 334.07 1659.00 337.45
  C 1652.11 338.73 1646.41 342.86 1641.79 347.70
  A 0.31 0.31 0.0 0 1 1641.25 347.49"
/>
<path stroke="#01623d" vector-effect="non-scaling-stroke" d="
  M 734.71 443.12
  Q 734.62 440.37 734.74 394.07
  Q 734.78 379.53 746.90 373.98
  C 754.48 370.52 762.68 371.82 770.72 372.91
  A 0.48 0.48 0.0 0 0 771.27 372.43
  L 771.27 338.00
  A 0.85 0.85 0.0 0 0 770.59 337.17
  Q 763.95 335.75 755.82 336.66
  Q 741.69 338.25 734.62 350.45
  A 0.45 0.44 -30.0 0 1 733.79 350.23
  L 733.79 339.23
  A 0.56 0.56 0.0 0 0 733.23 338.67
  L 697.97 338.67
  A 0.38 0.37 90.0 0 0 697.60 339.05
  L 697.60 442.85
  A 0.58 0.58 0.0 0 0 698.18 443.43
  L 734.41 443.43
  A 0.30 0.30 0.0 0 0 734.71 443.12"
/>
<path stroke="#818182" vector-effect="non-scaling-stroke" d="
  M 1734.41 356.85
  C 1722.04 373.24 1719.27 393.27 1726.97 412.38
  C 1736.51 436.05 1757.92 445.75 1782.49 444.71
  C 1815.92 443.30 1838.38 417.75 1834.48 384.54
  C 1831.51 359.27 1812.87 338.34 1786.58 336.79
  Q 1777.50 336.25 1771.41 336.89
  C 1756.97 338.40 1743.22 345.17 1734.41 356.85"
/>
<path stroke="#818182" vector-effect="non-scaling-stroke" d="
  M 2080.61 370.61
  Q 2080.89 358.76 2072.48 349.42
  C 2061.57 337.29 2041.33 334.89 2025.90 337.07
  C 2005.63 339.92 1990.93 352.15 1992.05 373.60
  C 1993.25 396.43 2017.35 401.60 2035.02 404.52
  C 2038.76 405.14 2048.29 406.89 2047.66 412.40
  C 2046.84 419.58 2035.54 418.86 2030.79 417.69
  Q 2024.23 416.08 2023.12 409.00
  A 0.63 0.62 -4.3 0 0 2022.50 408.47
  L 1991.49 408.47
  A 0.59 0.59 0.0 0 0 1990.90 409.04
  C 1990.42 427.43 2004.59 440.23 2022.28 443.30
  C 2041.38 446.62 2071.90 444.50 2080.02 423.04
  Q 2086.34 406.34 2077.44 392.23
  C 2072.81 384.88 2062.66 380.60 2054.39 378.61
  Q 2050.57 377.69 2031.63 373.64
  C 2029.14 373.11 2024.86 371.05 2025.16 367.93
  C 2025.73 361.78 2034.42 361.54 2039.13 362.38
  Q 2046.46 363.69 2047.96 370.86
  A 0.61 0.60 84.1 0 0 2048.55 371.35
  L 2079.85 371.35
  A 0.76 0.76 0.0 0 0 2080.61 370.61"
/>
<path stroke="#818182" vector-effect="non-scaling-stroke" d="
  M 1875.60 350.40
  L 1875.60 339.48
  A 0.68 0.68 0.0 0 0 1874.92 338.80
  L 1842.10 338.80
  A 0.44 0.44 0.0 0 0 1841.66 339.24
  L 1841.66 441.65
  A 0.59 0.59 0.0 0 0 1842.25 442.24
  L 1875.77 442.24
  A 0.61 0.60 0.0 0 0 1876.38 441.64
  Q 1876.29 415.43 1876.36 393.01
  Q 1876.40 378.72 1888.36 373.40
  C 1894.78 370.54 1903.61 370.91 1910.86 371.71
  A 0.39 0.39 0.0 0 0 1911.29 371.32
  L 1911.29 338.59
  A 0.78 0.78 0.0 0 0 1910.63 337.82
  Q 1902.14 336.48 1893.76 337.82
  C 1885.12 339.19 1881.04 343.86 1876.29 350.61
  A 0.38 0.38 0.0 0 1 1875.60 350.40"
/>
<path stroke="#01623d" vector-effect="non-scaling-stroke" d="
  M 947.6961 369.2516
  A 21.59 21.05 -98.4 0 0 930.0258 393.6850
  A 21.59 21.05 -98.4 0 0 954.0039 411.9684
  A 21.59 21.05 -98.4 0 0 971.6742 387.5350
  A 21.59 21.05 -98.4 0 0 947.6961 369.2516"
/>
<path stroke="#01623d" vector-effect="non-scaling-stroke" d="
  M 830.77 378.11
  Q 839.82 378.08 849.71 377.88
  A 0.52 0.52 0.0 0 0 850.18 377.15
  C 846.72 368.99 839.66 364.83 830.73 364.86
  C 821.79 364.89 814.76 369.09 811.35 377.27
  A 0.52 0.52 0.0 0 0 811.82 377.99
  Q 821.72 378.14 830.77 378.11"
/>
<path stroke="#01623d" vector-effect="non-scaling-stroke" d="
  M 1420.91 377.94
  Q 1429.79 377.91 1438.86 377.74
  A 0.38 0.38 0.0 0 0 1439.21 377.24
  C 1436.33 369.26 1429.30 364.84 1420.85 364.87
  C 1412.40 364.90 1405.41 369.39 1402.60 377.38
  A 0.38 0.38 0.0 0 0 1402.96 377.89
  Q 1412.03 377.98 1420.91 377.94"
/>
<path stroke="#01623d" vector-effect="non-scaling-stroke" d="
  M 1091.54 377.48
  C 1088.89 367.97 1079.14 363.96 1069.77 365.03
  C 1062.41 365.88 1056.89 370.63 1053.42 376.97
  A 0.66 0.66 0.0 0 0 1054.00 377.95
  L 1091.19 377.95
  A 0.37 0.37 0.0 0 0 1091.54 377.48"
/>
<path stroke="#818182" vector-effect="non-scaling-stroke" d="
  M 1663.4442 369.1572
  A 21.49 20.55 -86.2 0 0 1641.5152 389.2381
  A 21.49 20.55 -86.2 0 0 1660.5958 412.0428
  A 21.49 20.55 -86.2 0 0 1682.5248 391.9619
  A 21.49 20.55 -86.2 0 0 1663.4442 369.1572"
/>
<path stroke="#818182" vector-effect="non-scaling-stroke" d="
  M 1779.6713 369.6394
  A 21.28 20.51 -88.3 0 0 1758.5390 390.3015
  A 21.28 20.51 -88.3 0 0 1778.4087 412.1806
  A 21.28 20.51 -88.3 0 0 1799.5410 391.5185
  A 21.28 20.51 -88.3 0 0 1779.6713 369.6394"
/>
</g>
<path fill="#020204" d="
  M 2172.00 0.00
  L 2172.00 724.00
  L 0.00 724.00
  L 0.00 0.00
  L 2172.00 0.00
  Z
  M 304.39 463.28
  L 209.34 463.21
  A 0.69 0.69 0.0 0 1 208.65 462.52
  L 208.65 453.54
  A 3.59 3.58 90.0 0 0 205.07 449.95
  L 204.58 449.95
  A 3.38 3.37 90.0 0 0 201.21 453.33
  L 201.20 480.07
  A 3.51 3.51 0.0 0 0 204.67 483.58
  L 204.84 483.58
  A 3.74 3.74 0.0 0 0 208.66 479.83
  L 208.63 470.96
  A 0.75 0.74 90.0 0 1 209.37 470.21
  L 304.45 470.14
  L 304.52 494.75
  A 0.41 0.40 90.0 0 1 304.12 495.16
  L 118.37 495.16
  A 3.84 3.84 0.0 0 0 114.55 499.37
  L 114.57 499.63
  A 4.63 4.63 0.0 0 0 119.18 503.82
  Q 322.31 503.86 492.79 503.81
  Q 495.55 503.81 496.53 503.08
  C 499.00 501.22 498.28 497.49 496.44 495.68
  Q 495.49 494.75 492.39 494.93
  C 478.92 495.73 462.36 495.18 447.05 495.18
  Q 367.75 495.15 312.64 495.31
  A 0.64 0.64 0.0 0 1 312.00 494.66
  L 312.39 470.15
  L 405.55 470.20
  A 0.72 0.72 0.0 0 1 406.27 470.93
  L 406.27 479.98
  A 3.60 3.60 0.0 0 0 409.97 483.58
  L 410.00 483.58
  A 3.79 3.78 89.7 0 0 413.74 479.79
  L 413.69 453.17
  A 3.20 3.19 89.9 0 0 410.50 449.98
  L 409.78 449.98
  A 3.52 3.51 -90.0 0 0 406.27 453.50
  L 406.27 462.30
  A 0.91 0.91 0.0 0 1 405.36 463.21
  L 312.04 463.27
  Q 312.41 459.18 312.41 455.00
  Q 312.17 310.60 312.26 250.50
  Q 312.29 224.07 312.11 218.07
  Q 312.06 216.44 312.30 214.73
  A 0.63 0.62 12.9 0 1 313.10 214.23
  Q 321.22 216.78 326.57 222.77
  Q 332.15 229.01 334.34 232.83
  Q 335.87 235.52 339.49 241.88
  C 343.38 248.71 344.91 253.32 348.77 262.12
  Q 351.23 267.72 353.30 273.23
  Q 362.76 298.43 369.61 319.62
  C 380.41 353.05 390.86 382.16 405.79 412.50
  Q 418.15 437.61 435.10 457.17
  C 450.82 475.31 469.30 488.73 493.53 492.38
  A 3.61 3.61 0.0 0 0 497.64 489.35
  L 497.67 489.17
  A 4.14 4.14 0.0 0 0 494.60 484.54
  C 485.84 482.27 476.75 480.26 468.45 474.66
  Q 454.59 465.31 448.57 458.97
  Q 425.85 435.01 411.29 404.24
  Q 397.24 374.53 386.93 344.32
  C 382.72 331.97 379.30 322.59 375.51 310.90
  Q 368.09 287.96 359.80 266.45
  Q 352.14 246.55 345.81 235.48
  Q 339.07 223.69 336.23 220.57
  Q 330.35 214.11 326.73 211.50
  C 314.95 203.03 301.40 203.39 289.85 211.61
  C 278.08 219.99 269.66 234.58 263.71 247.73
  Q 252.17 273.21 243.66 298.11
  C 229.30 340.12 221.78 364.08 206.81 396.29
  Q 194.03 423.79 176.62 446.10
  Q 164.10 462.14 147.12 472.83
  Q 133.50 481.41 117.77 484.17
  A 4.08 4.07 80.6 0 0 114.45 488.81
  L 114.49 489.06
  A 4.03 4.02 80.4 0 0 119.18 492.40
  Q 127.48 490.89 133.49 488.72
  Q 137.74 487.19 146.76 482.85
  C 155.81 478.48 164.16 471.62 170.96 465.55
  Q 175.52 461.49 181.38 454.34
  Q 190.13 443.68 191.58 441.57
  Q 203.07 424.82 212.50 405.02
  Q 222.94 383.07 231.09 361.11
  Q 235.09 350.30 247.94 311.90
  Q 255.88 288.15 265.10 265.83
  C 271.31 250.81 278.39 235.25 288.70 223.64
  Q 294.59 217.00 303.61 214.42
  A 0.55 0.54 81.8 0 1 304.31 214.95
  L 304.39 463.28
  Z
  M 690.27 384.81
  L 650.67 384.81
  A 0.97 0.96 -82.1 0 0 649.74 385.52
  C 645.92 399.14 635.05 407.22 621.02 408.40
  C 611.90 409.16 604.90 406.97 597.18 402.34
  C 587.25 396.39 580.70 382.51 581.31 370.86
  C 582.08 356.05 589.76 342.06 604.39 337.10
  Q 619.84 331.87 633.97 338.61
  C 641.88 342.39 647.99 349.74 649.80 358.29
  A 0.66 0.65 84.0 0 0 650.44 358.81
  L 689.56 358.81
  A 0.57 0.57 0.0 0 0 690.13 358.20
  C 689.56 348.59 686.87 340.71 682.75 332.28
  Q 676.05 318.56 662.67 309.28
  Q 651.89 301.80 640.95 299.02
  C 598.54 288.24 556.31 307.31 543.68 350.50
  Q 540.47 361.50 540.92 375.50
  Q 541.65 398.07 553.86 415.70
  C 561.22 426.32 572.94 435.25 584.61 439.92
  Q 611.32 450.61 640.40 443.58
  C 650.38 441.17 660.21 435.98 668.01 429.74
  C 680.69 419.58 688.89 401.84 691.03 385.67
  A 0.77 0.76 3.6 0 0 690.27 384.81
  Z
  M 1560.61 344.95
  L 1596.53 344.95
  A 0.28 0.27 90.0 0 0 1596.80 344.67
  Q 1596.90 327.97 1587.31 315.59
  C 1581.33 307.86 1571.58 302.06 1562.22 299.86
  C 1546.08 296.08 1528.41 296.95 1513.18 303.97
  Q 1494.73 312.48 1490.65 332.71
  C 1487.65 347.59 1491.25 363.32 1503.26 373.49
  C 1509.27 378.59 1519.09 382.78 1526.53 384.74
  Q 1545.97 389.88 1550.01 391.00
  C 1554.73 392.31 1558.98 393.98 1560.75 398.82
  C 1562.43 403.38 1559.62 408.37 1555.36 410.16
  Q 1548.79 412.92 1541.52 412.18
  C 1531.65 411.16 1525.68 405.61 1524.46 395.78
  A 0.75 0.74 86.5 0 0 1523.72 395.12
  L 1488.51 395.12
  A 0.44 0.44 0.0 0 0 1488.07 395.55
  Q 1487.71 408.99 1493.65 420.60
  C 1504.97 442.75 1530.54 445.90 1552.70 444.42
  C 1570.52 443.23 1588.86 434.91 1596.19 417.97
  Q 1601.70 405.22 1599.02 390.57
  C 1596.04 374.30 1584.59 363.66 1569.00 358.33
  Q 1559.94 355.23 1557.73 354.76
  Q 1545.85 352.20 1536.40 348.89
  C 1530.99 347.00 1524.89 343.07 1529.02 336.41
  C 1531.95 331.67 1540.00 330.53 1545.11 331.00
  C 1552.91 331.71 1558.72 336.44 1559.83 344.28
  A 0.79 0.79 0.0 0 0 1560.61 344.95
  Z
  M 972.82 433.96
  L 972.82 442.54
  A 0.88 0.87 0.0 0 0 973.70 443.41
  L 1007.55 443.41
  A 0.79 0.79 0.0 0 0 1008.34 442.62
  L 1008.34 299.22
  A 0.31 0.31 0.0 0 0 1008.03 298.91
  L 971.38 298.91
  A 0.44 0.44 0.0 0 0 970.94 299.35
  L 970.94 345.32
  A 0.31 0.31 0.0 0 1 970.41 345.54
  C 962.95 338.09 950.88 335.17 940.71 335.84
  Q 918.11 337.33 904.67 353.68
  C 893.42 367.37 890.22 385.77 893.08 403.51
  C 895.69 419.67 906.39 434.45 921.30 441.19
  C 930.88 445.52 940.60 446.08 951.91 444.93
  Q 964.65 443.62 972.09 433.72
  A 0.41 0.40 -26.7 0 1 972.82 433.96
  Z
  M 1929.62 338.88
  L 1915.56 338.88
  A 0.86 0.86 0.0 0 0 1914.70 339.74
  L 1914.70 368.50
  A 0.74 0.73 90.0 0 0 1915.43 369.24
  L 1929.59 369.24
  A 0.82 0.81 0.0 0 1 1930.41 370.05
  Q 1930.33 406.69 1930.50 412.00
  C 1930.87 423.90 1937.95 433.99 1948.36 439.13
  C 1959.17 444.47 1973.71 443.77 1985.97 441.45
  A 0.70 0.69 85.1 0 0 1986.54 440.76
  L 1986.54 411.62
  A 0.81 0.80 85.7 0 0 1985.62 410.82
  Q 1978.33 411.92 1972.29 411.29
  C 1964.27 410.46 1963.88 402.97 1963.93 396.75
  Q 1964.07 379.90 1964.13 369.89
  A 0.65 0.64 -0.0 0 1 1964.78 369.25
  L 1985.24 369.25
  A 0.59 0.58 0.0 0 0 1985.83 368.67
  L 1985.83 339.28
  A 0.42 0.42 0.0 0 0 1985.41 338.86
  L 1964.62 338.86
  A 0.55 0.54 90.0 0 1 1964.08 338.31
  L 1964.08 311.64
  A 0.80 0.80 0.0 0 0 1963.28 310.84
  L 1930.89 310.84
  A 0.47 0.47 0.0 0 0 1930.42 311.31
  L 1930.42 338.08
  A 0.80 0.80 0.0 0 1 1929.62 338.88
  Z
  M 811.67 399.88
  L 885.79 399.88
  A 0.99 0.98 3.3 0 0 886.77 399.01
  Q 889.45 375.61 877.01 357.06
  C 873.35 351.60 867.09 346.36 861.80 343.04
  C 856.74 339.87 847.76 337.20 842.69 336.31
  Q 815.81 331.59 793.31 346.53
  C 784.91 352.10 778.23 362.70 775.07 372.02
  Q 771.03 383.90 772.85 399.69
  C 775.48 422.45 793.29 439.56 815.29 444.14
  Q 836.32 448.51 855.62 441.88
  C 866.63 438.10 877.54 429.39 882.71 418.11
  Q 885.62 411.74 886.24 410.06
  A 0.87 0.87 0.0 0 0 885.47 408.90
  L 850.26 407.22
  A 1.62 1.61 -70.3 0 0 848.86 407.89
  C 839.74 420.66 813.93 417.99 811.06 400.59
  A 0.62 0.62 0.0 0 1 811.67 399.88
  Z
  M 1474.55 408.91
  L 1438.78 407.20
  A 1.16 1.15 19.1 0 0 1437.76 407.69
  Q 1435.68 410.64 1432.56 412.88
  C 1427.23 416.70 1417.88 416.06 1412.17 413.77
  Q 1403.27 410.20 1401.72 400.32
  A 0.35 0.35 0.0 0 1 1402.07 399.92
  L 1474.87 399.92
  A 1.15 1.15 0.0 0 0 1476.01 398.94
  Q 1477.14 391.62 1475.98 384.53
  Q 1475.89 383.96 1473.66 373.96
  C 1471.31 363.45 1464.18 351.29 1454.99 345.27
  C 1437.07 333.54 1415.09 331.99 1395.70 340.98
  Q 1382.82 346.95 1375.32 357.58
  C 1368.38 367.42 1364.77 379.04 1364.93 391.27
  Q 1365.03 398.54 1365.74 402.25
  C 1370.51 427.38 1389.45 442.88 1414.49 445.22
  Q 1430.17 446.68 1444.04 442.11
  C 1459.41 437.04 1469.66 424.24 1474.70 409.12
  A 0.16 0.16 0.0 0 0 1474.55 408.91
  Z
  M 1126.16 408.86
  L 1092.16 407.23
  A 1.36 1.36 0.0 0 0 1091.04 407.74
  C 1085.73 414.41 1077.07 416.84 1068.85 415.31
  C 1060.57 413.77 1055.29 408.59 1053.52 400.34
  A 0.37 0.36 -6.3 0 1 1053.88 399.90
  L 1126.98 399.90
  A 1.18 1.17 -89.5 0 0 1128.15 398.74
  C 1128.24 391.73 1129.02 386.73 1127.64 380.75
  C 1126.20 374.51 1124.98 368.25 1122.05 363.21
  C 1119.22 358.33 1116.10 353.23 1112.09 349.66
  Q 1097.53 336.69 1077.51 335.44
  Q 1062.87 334.52 1049.19 339.88
  C 1014.77 353.39 1004.57 398.09 1027.79 426.35
  Q 1035.95 436.28 1047.96 441.17
  C 1060.31 446.19 1077.58 446.99 1090.24 443.95
  Q 1118.03 437.27 1126.88 409.89
  A 0.79 0.79 0.0 0 0 1126.16 408.86
  Z
  M 1360.52 399.78
  A 0.24 0.24 0.0 0 0 1360.28 399.52
  L 1325.20 399.52
  A 1.43 1.42 10.5 0 0 1323.87 400.43
  C 1319.47 411.90 1307.02 414.14 1296.35 410.22
  Q 1294.12 409.41 1291.19 405.95
  Q 1285.79 399.59 1285.57 393.09
  C 1285.23 382.92 1289.42 373.59 1299.44 370.49
  C 1309.41 367.40 1320.32 370.86 1323.28 381.46
  A 1.19 1.18 82.3 0 0 1324.42 382.33
  L 1359.27 382.33
  A 0.51 0.51 0.0 0 0 1359.78 381.83
  C 1359.88 372.90 1356.28 362.66 1350.68 355.65
  C 1340.11 342.42 1325.67 336.42 1308.78 335.60
  C 1288.42 334.61 1268.46 342.98 1257.70 360.62
  C 1244.46 382.32 1245.91 410.05 1263.58 428.92
  C 1282.75 449.40 1322.08 450.85 1343.37 433.32
  Q 1358.51 420.85 1360.52 399.78
  Z
  M 1170.62 348.68
  L 1170.62 338.96
  A 0.61 0.61 0.0 0 0 1170.01 338.35
  L 1136.01 338.35
  A 0.77 0.77 0.0 0 0 1135.24 339.12
  L 1135.24 443.03
  A 0.36 0.35 -0.0 0 0 1135.60 443.38
  L 1170.92 443.38
  A 0.60 0.59 -0.5 0 0 1171.52 442.78
  Q 1171.39 407.81 1171.71 390.04
  Q 1171.84 383.03 1173.28 380.06
  Q 1178.64 369.01 1189.64 369.14
  C 1197.39 369.23 1203.60 373.42 1205.44 381.30
  C 1206.10 384.15 1206.60 389.11 1206.64 392.93
  Q 1206.91 418.26 1206.65 442.86
  A 0.54 0.53 -0.0 0 0 1207.19 443.39
  L 1241.34 443.39
  A 0.64 0.64 0.0 0 0 1241.98 442.76
  Q 1242.25 415.89 1242.03 380.66
  Q 1241.97 372.04 1241.01 367.50
  Q 1239.44 360.06 1236.79 354.98
  Q 1229.06 340.17 1211.55 336.71
  C 1198.16 334.07 1179.96 336.79 1171.59 348.98
  A 0.53 0.53 0.0 0 1 1170.62 348.68
  Z
  M 1641.25 347.49
  L 1641.25 339.23
  A 0.57 0.57 0.0 0 0 1640.68 338.66
  L 1607.14 338.66
  A 0.68 0.68 0.0 0 0 1606.46 339.34
  L 1606.46 480.80
  A 0.75 0.75 0.0 0 0 1607.21 481.55
  L 1641.20 481.55
  A 0.66 0.65 -0.0 0 0 1641.86 480.90
  L 1641.86 436.43
  A 0.47 0.47 0.0 0 1 1642.64 436.07
  C 1651.53 443.68 1661.78 445.24 1673.45 444.49
  Q 1694.45 443.14 1707.74 425.50
  C 1715.45 415.26 1719.09 400.84 1718.32 388.52
  C 1717.50 375.31 1714.08 363.19 1705.69 352.84
  C 1693.86 338.25 1677.29 334.07 1659.00 337.45
  C 1652.11 338.73 1646.41 342.86 1641.79 347.70
  A 0.31 0.31 0.0 0 1 1641.25 347.49
  Z
  M 734.71 443.12
  Q 734.62 440.37 734.74 394.07
  Q 734.78 379.53 746.90 373.98
  C 754.48 370.52 762.68 371.82 770.72 372.91
  A 0.48 0.48 0.0 0 0 771.27 372.43
  L 771.27 338.00
  A 0.85 0.85 0.0 0 0 770.59 337.17
  Q 763.95 335.75 755.82 336.66
  Q 741.69 338.25 734.62 350.45
  A 0.45 0.44 -30.0 0 1 733.79 350.23
  L 733.79 339.23
  A 0.56 0.56 0.0 0 0 733.23 338.67
  L 697.97 338.67
  A 0.38 0.37 90.0 0 0 697.60 339.05
  L 697.60 442.85
  A 0.58 0.58 0.0 0 0 698.18 443.43
  L 734.41 443.43
  A 0.30 0.30 0.0 0 0 734.71 443.12
  Z
  M 1734.41 356.85
  C 1722.04 373.24 1719.27 393.27 1726.97 412.38
  C 1736.51 436.05 1757.92 445.75 1782.49 444.71
  C 1815.92 443.30 1838.38 417.75 1834.48 384.54
  C 1831.51 359.27 1812.87 338.34 1786.58 336.79
  Q 1777.50 336.25 1771.41 336.89
  C 1756.97 338.40 1743.22 345.17 1734.41 356.85
  Z
  M 2080.61 370.61
  Q 2080.89 358.76 2072.48 349.42
  C 2061.57 337.29 2041.33 334.89 2025.90 337.07
  C 2005.63 339.92 1990.93 352.15 1992.05 373.60
  C 1993.25 396.43 2017.35 401.60 2035.02 404.52
  C 2038.76 405.14 2048.29 406.89 2047.66 412.40
  C 2046.84 419.58 2035.54 418.86 2030.79 417.69
  Q 2024.23 416.08 2023.12 409.00
  A 0.63 0.62 -4.3 0 0 2022.50 408.47
  L 1991.49 408.47
  A 0.59 0.59 0.0 0 0 1990.90 409.04
  C 1990.42 427.43 2004.59 440.23 2022.28 443.30
  C 2041.38 446.62 2071.90 444.50 2080.02 423.04
  Q 2086.34 406.34 2077.44 392.23
  C 2072.81 384.88 2062.66 380.60 2054.39 378.61
  Q 2050.57 377.69 2031.63 373.64
  C 2029.14 373.11 2024.86 371.05 2025.16 367.93
  C 2025.73 361.78 2034.42 361.54 2039.13 362.38
  Q 2046.46 363.69 2047.96 370.86
  A 0.61 0.60 84.1 0 0 2048.55 371.35
  L 2079.85 371.35
  A 0.76 0.76 0.0 0 0 2080.61 370.61
  Z
  M 1875.60 350.40
  L 1875.60 339.48
  A 0.68 0.68 0.0 0 0 1874.92 338.80
  L 1842.10 338.80
  A 0.44 0.44 0.0 0 0 1841.66 339.24
  L 1841.66 441.65
  A 0.59 0.59 0.0 0 0 1842.25 442.24
  L 1875.77 442.24
  A 0.61 0.60 0.0 0 0 1876.38 441.64
  Q 1876.29 415.43 1876.36 393.01
  Q 1876.40 378.72 1888.36 373.40
  C 1894.78 370.54 1903.61 370.91 1910.86 371.71
  A 0.39 0.39 0.0 0 0 1911.29 371.32
  L 1911.29 338.59
  A 0.78 0.78 0.0 0 0 1910.63 337.82
  Q 1902.14 336.48 1893.76 337.82
  C 1885.12 339.19 1881.04 343.86 1876.29 350.61
  A 0.38 0.38 0.0 0 1 1875.60 350.40
  Z"
/>
<path fill="#00c275" d="
  M 312.04 463.27
  L 304.39 463.28
  L 304.31 214.95
  A 0.55 0.54 81.8 0 0 303.61 214.42
  Q 294.59 217.00 288.70 223.64
  C 278.39 235.25 271.31 250.81 265.10 265.83
  Q 255.88 288.15 247.94 311.90
  Q 235.09 350.30 231.09 361.11
  Q 222.94 383.07 212.50 405.02
  Q 203.07 424.82 191.58 441.57
  Q 190.13 443.68 181.38 454.34
  Q 175.52 461.49 170.96 465.55
  C 164.16 471.62 155.81 478.48 146.76 482.85
  Q 137.74 487.19 133.49 488.72
  Q 127.48 490.89 119.18 492.40
  A 4.03 4.02 80.4 0 1 114.49 489.06
  L 114.45 488.81
  A 4.08 4.07 80.6 0 1 117.77 484.17
  Q 133.50 481.41 147.12 472.83
  Q 164.10 462.14 176.62 446.10
  Q 194.03 423.79 206.81 396.29
  C 221.78 364.08 229.30 340.12 243.66 298.11
  Q 252.17 273.21 263.71 247.73
  C 269.66 234.58 278.08 219.99 289.85 211.61
  C 301.40 203.39 314.95 203.03 326.73 211.50
  Q 330.35 214.11 336.23 220.57
  Q 339.07 223.69 345.81 235.48
  Q 352.14 246.55 359.80 266.45
  Q 368.09 287.96 375.51 310.90
  C 379.30 322.59 382.72 331.97 386.93 344.32
  Q 397.24 374.53 411.29 404.24
  Q 425.85 435.01 448.57 458.97
  Q 454.59 465.31 468.45 474.66
  C 476.75 480.26 485.84 482.27 494.60 484.54
  A 4.14 4.14 0.0 0 1 497.67 489.17
  L 497.64 489.35
  A 3.61 3.61 0.0 0 1 493.53 492.38
  C 469.30 488.73 450.82 475.31 435.10 457.17
  Q 418.15 437.61 405.79 412.50
  C 390.86 382.16 380.41 353.05 369.61 319.62
  Q 362.76 298.43 353.30 273.23
  Q 351.23 267.72 348.77 262.12
  C 344.91 253.32 343.38 248.71 339.49 241.88
  Q 335.87 235.52 334.34 232.83
  Q 332.15 229.01 326.57 222.77
  Q 321.22 216.78 313.10 214.23
  A 0.63 0.62 12.9 0 0 312.30 214.73
  Q 312.06 216.44 312.11 218.07
  Q 312.29 224.07 312.26 250.50
  Q 312.17 310.60 312.41 455.00
  Q 312.41 459.18 312.04 463.27
  Z"
/>
<path fill="#00c275" d="
  M 690.27 384.81
  A 0.77 0.76 3.6 0 1 691.03 385.67
  C 688.89 401.84 680.69 419.58 668.01 429.74
  C 660.21 435.98 650.38 441.17 640.40 443.58
  Q 611.32 450.61 584.61 439.92
  C 572.94 435.25 561.22 426.32 553.86 415.70
  Q 541.65 398.07 540.92 375.50
  Q 540.47 361.50 543.68 350.50
  C 556.31 307.31 598.54 288.24 640.95 299.02
  Q 651.89 301.80 662.67 309.28
  Q 676.05 318.56 682.75 332.28
  C 686.87 340.71 689.56 348.59 690.13 358.20
  A 0.57 0.57 0.0 0 1 689.56 358.81
  L 650.44 358.81
  A 0.66 0.65 84.0 0 1 649.80 358.29
  C 647.99 349.74 641.88 342.39 633.97 338.61
  Q 619.84 331.87 604.39 337.10
  C 589.76 342.06 582.08 356.05 581.31 370.86
  C 580.70 382.51 587.25 396.39 597.18 402.34
  C 604.90 406.97 611.90 409.16 621.02 408.40
  C 635.05 407.22 645.92 399.14 649.74 385.52
  A 0.97 0.96 -82.1 0 1 650.67 384.81
  L 690.27 384.81
  Z"
/>
<path fill="#ffffff" d="
  M 1559.83 344.28
  C 1558.72 336.44 1552.91 331.71 1545.11 331.00
  C 1540.00 330.53 1531.95 331.67 1529.02 336.41
  C 1524.89 343.07 1530.99 347.00 1536.40 348.89
  Q 1545.85 352.20 1557.73 354.76
  Q 1559.94 355.23 1569.00 358.33
  C 1584.59 363.66 1596.04 374.30 1599.02 390.57
  Q 1601.70 405.22 1596.19 417.97
  C 1588.86 434.91 1570.52 443.23 1552.70 444.42
  C 1530.54 445.90 1504.97 442.75 1493.65 420.60
  Q 1487.71 408.99 1488.07 395.55
  A 0.44 0.44 0.0 0 1 1488.51 395.12
  L 1523.72 395.12
  A 0.75 0.74 86.5 0 1 1524.46 395.78
  C 1525.68 405.61 1531.65 411.16 1541.52 412.18
  Q 1548.79 412.92 1555.36 410.16
  C 1559.62 408.37 1562.43 403.38 1560.75 398.82
  C 1558.98 393.98 1554.73 392.31 1550.01 391.00
  Q 1545.97 389.88 1526.53 384.74
  C 1519.09 382.78 1509.27 378.59 1503.26 373.49
  C 1491.25 363.32 1487.65 347.59 1490.65 332.71
  Q 1494.73 312.48 1513.18 303.97
  C 1528.41 296.95 1546.08 296.08 1562.22 299.86
  C 1571.58 302.06 1581.33 307.86 1587.31 315.59
  Q 1596.90 327.97 1596.80 344.67
  A 0.28 0.27 -90.0 0 1 1596.53 344.95
  L 1560.61 344.95
  A 0.79 0.79 0.0 0 1 1559.83 344.28
  Z"
/>
<path fill="#00c275" d="
  M 972.82 433.96
  A 0.41 0.40 -26.7 0 0 972.09 433.72
  Q 964.65 443.62 951.91 444.93
  C 940.60 446.08 930.88 445.52 921.30 441.19
  C 906.39 434.45 895.69 419.67 893.08 403.51
  C 890.22 385.77 893.42 367.37 904.67 353.68
  Q 918.11 337.33 940.71 335.84
  C 950.88 335.17 962.95 338.09 970.41 345.54
  A 0.31 0.31 0.0 0 0 970.94 345.32
  L 970.94 299.35
  A 0.44 0.44 0.0 0 1 971.38 298.91
  L 1008.03 298.91
  A 0.31 0.31 0.0 0 1 1008.34 299.22
  L 1008.34 442.62
  A 0.79 0.79 0.0 0 1 1007.55 443.41
  L 973.70 443.41
  A 0.88 0.87 -0.0 0 1 972.82 442.54
  L 972.82 433.96
  Z
  M 947.6961 369.2516
  A 21.59 21.05 -98.4 0 0 930.0258 393.6850
  A 21.59 21.05 -98.4 0 0 954.0039 411.9684
  A 21.59 21.05 -98.4 0 0 971.6742 387.5350
  A 21.59 21.05 -98.4 0 0 947.6961 369.2516
  Z"
/>
<path fill="#ffffff" d="
  M 1929.62 338.88
  A 0.80 0.80 0.0 0 0 1930.42 338.08
  L 1930.42 311.31
  A 0.47 0.47 0.0 0 1 1930.89 310.84
  L 1963.28 310.84
  A 0.80 0.80 0.0 0 1 1964.08 311.64
  L 1964.08 338.31
  A 0.55 0.54 90.0 0 0 1964.62 338.86
  L 1985.41 338.86
  A 0.42 0.42 0.0 0 1 1985.83 339.28
  L 1985.83 368.67
  A 0.59 0.58 0.0 0 1 1985.24 369.25
  L 1964.78 369.25
  A 0.65 0.64 -0.0 0 0 1964.13 369.89
  Q 1964.07 379.90 1963.93 396.75
  C 1963.88 402.97 1964.27 410.46 1972.29 411.29
  Q 1978.33 411.92 1985.62 410.82
  A 0.81 0.80 85.7 0 1 1986.54 411.62
  L 1986.54 440.76
  A 0.70 0.69 85.1 0 1 1985.97 441.45
  C 1973.71 443.77 1959.17 444.47 1948.36 439.13
  C 1937.95 433.99 1930.87 423.90 1930.50 412.00
  Q 1930.33 406.69 1930.41 370.05
  A 0.82 0.81 0.0 0 0 1929.59 369.24
  L 1915.43 369.24
  A 0.74 0.73 -90.0 0 1 1914.70 368.50
  L 1914.70 339.74
  A 0.86 0.86 0.0 0 1 1915.56 338.88
  L 1929.62 338.88
  Z"
/>
<path fill="#00c275" d="
  M 811.67 399.88
  A 0.62 0.62 0.0 0 0 811.06 400.59
  C 813.93 417.99 839.74 420.66 848.86 407.89
  A 1.62 1.61 -70.3 0 1 850.26 407.22
  L 885.47 408.90
  A 0.87 0.87 0.0 0 1 886.24 410.06
  Q 885.62 411.74 882.71 418.11
  C 877.54 429.39 866.63 438.10 855.62 441.88
  Q 836.32 448.51 815.29 444.14
  C 793.29 439.56 775.48 422.45 772.85 399.69
  Q 771.03 383.90 775.07 372.02
  C 778.23 362.70 784.91 352.10 793.31 346.53
  Q 815.81 331.59 842.69 336.31
  C 847.76 337.20 856.74 339.87 861.80 343.04
  C 867.09 346.36 873.35 351.60 877.01 357.06
  Q 889.45 375.61 886.77 399.01
  A 0.99 0.98 3.3 0 1 885.79 399.88
  L 811.67 399.88
  Z
  M 830.77 378.11
  Q 839.82 378.08 849.71 377.88
  A 0.52 0.52 0.0 0 0 850.18 377.15
  C 846.72 368.99 839.66 364.83 830.73 364.86
  C 821.79 364.89 814.76 369.09 811.35 377.27
  A 0.52 0.52 0.0 0 0 811.82 377.99
  Q 821.72 378.14 830.77 378.11
  Z"
/>
<path fill="#00c275" d="
  M 1474.55 408.91
  A 0.16 0.16 0.0 0 1 1474.70 409.12
  C 1469.66 424.24 1459.41 437.04 1444.04 442.11
  Q 1430.17 446.68 1414.49 445.22
  C 1389.45 442.88 1370.51 427.38 1365.74 402.25
  Q 1365.03 398.54 1364.93 391.27
  C 1364.77 379.04 1368.38 367.42 1375.32 357.58
  Q 1382.82 346.95 1395.70 340.98
  C 1415.09 331.99 1437.07 333.54 1454.99 345.27
  C 1464.18 351.29 1471.31 363.45 1473.66 373.96
  Q 1475.89 383.96 1475.98 384.53
  Q 1477.14 391.62 1476.01 398.94
  A 1.15 1.15 0.0 0 1 1474.87 399.92
  L 1402.07 399.92
  A 0.35 0.35 0.0 0 0 1401.72 400.32
  Q 1403.27 410.20 1412.17 413.77
  C 1417.88 416.06 1427.23 416.70 1432.56 412.88
  Q 1435.68 410.64 1437.76 407.69
  A 1.16 1.15 19.1 0 1 1438.78 407.20
  L 1474.55 408.91
  Z
  M 1420.91 377.94
  Q 1429.79 377.91 1438.86 377.74
  A 0.38 0.38 0.0 0 0 1439.21 377.24
  C 1436.33 369.26 1429.30 364.84 1420.85 364.87
  C 1412.40 364.90 1405.41 369.39 1402.60 377.38
  A 0.38 0.38 0.0 0 0 1402.96 377.89
  Q 1412.03 377.98 1420.91 377.94
  Z"
/>
<path fill="#00c275" d="
  M 1126.16 408.86
  A 0.79 0.79 0.0 0 1 1126.88 409.89
  Q 1118.03 437.27 1090.24 443.95
  C 1077.58 446.99 1060.31 446.19 1047.96 441.17
  Q 1035.95 436.28 1027.79 426.35
  C 1004.57 398.09 1014.77 353.39 1049.19 339.88
  Q 1062.87 334.52 1077.51 335.44
  Q 1097.53 336.69 1112.09 349.66
  C 1116.10 353.23 1119.22 358.33 1122.05 363.21
  C 1124.98 368.25 1126.20 374.51 1127.64 380.75
  C 1129.02 386.73 1128.24 391.73 1128.15 398.74
  A 1.18 1.17 -89.5 0 1 1126.98 399.90
  L 1053.88 399.90
  A 0.37 0.36 -6.3 0 0 1053.52 400.34
  C 1055.29 408.59 1060.57 413.77 1068.85 415.31
  C 1077.07 416.84 1085.73 414.41 1091.04 407.74
  A 1.36 1.36 0.0 0 1 1092.16 407.23
  L 1126.16 408.86
  Z
  M 1091.54 377.48
  C 1088.89 367.97 1079.14 363.96 1069.77 365.03
  C 1062.41 365.88 1056.89 370.63 1053.42 376.97
  A 0.66 0.66 0.0 0 0 1054.00 377.95
  L 1091.19 377.95
  A 0.37 0.37 0.0 0 0 1091.54 377.48
  Z"
/>
<path fill="#00c275" d="
  M 1360.52 399.78
  Q 1358.51 420.85 1343.37 433.32
  C 1322.08 450.85 1282.75 449.40 1263.58 428.92
  C 1245.91 410.05 1244.46 382.32 1257.70 360.62
  C 1268.46 342.98 1288.42 334.61 1308.78 335.60
  C 1325.67 336.42 1340.11 342.42 1350.68 355.65
  C 1356.28 362.66 1359.88 372.90 1359.78 381.83
  A 0.51 0.51 0.0 0 1 1359.27 382.33
  L 1324.42 382.33
  A 1.19 1.18 82.3 0 1 1323.28 381.46
  C 1320.32 370.86 1309.41 367.40 1299.44 370.49
  C 1289.42 373.59 1285.23 382.92 1285.57 393.09
  Q 1285.79 399.59 1291.19 405.95
  Q 1294.12 409.41 1296.35 410.22
  C 1307.02 414.14 1319.47 411.90 1323.87 400.43
  A 1.43 1.42 10.5 0 1 1325.20 399.52
  L 1360.28 399.52
  A 0.24 0.24 0.0 0 1 1360.52 399.78
  Z"
/>
<path fill="#00c275" d="
  M 1170.62 348.68
  A 0.53 0.53 0.0 0 0 1171.59 348.98
  C 1179.96 336.79 1198.16 334.07 1211.55 336.71
  Q 1229.06 340.17 1236.79 354.98
  Q 1239.44 360.06 1241.01 367.50
  Q 1241.97 372.04 1242.03 380.66
  Q 1242.25 415.89 1241.98 442.76
  A 0.64 0.64 0.0 0 1 1241.34 443.39
  L 1207.19 443.39
  A 0.54 0.53 0.0 0 1 1206.65 442.86
  Q 1206.91 418.26 1206.64 392.93
  C 1206.60 389.11 1206.10 384.15 1205.44 381.30
  C 1203.60 373.42 1197.39 369.23 1189.64 369.14
  Q 1178.64 369.01 1173.28 380.06
  Q 1171.84 383.03 1171.71 390.04
  Q 1171.39 407.81 1171.52 442.78
  A 0.60 0.59 -0.5 0 1 1170.92 443.38
  L 1135.60 443.38
  A 0.36 0.35 0.0 0 1 1135.24 443.03
  L 1135.24 339.12
  A 0.77 0.77 0.0 0 1 1136.01 338.35
  L 1170.01 338.35
  A 0.61 0.61 0.0 0 1 1170.62 338.96
  L 1170.62 348.68
  Z"
/>
<path fill="#ffffff" d="
  M 1641.25 347.49
  A 0.31 0.31 0.0 0 0 1641.79 347.70
  C 1646.41 342.86 1652.11 338.73 1659.00 337.45
  C 1677.29 334.07 1693.86 338.25 1705.69 352.84
  C 1714.08 363.19 1717.50 375.31 1718.32 388.52
  C 1719.09 400.84 1715.45 415.26 1707.74 425.50
  Q 1694.45 443.14 1673.45 444.49
  C 1661.78 445.24 1651.53 443.68 1642.64 436.07
  A 0.47 0.47 0.0 0 0 1641.86 436.43
  L 1641.86 480.90
  A 0.66 0.65 0.0 0 1 1641.20 481.55
  L 1607.21 481.55
  A 0.75 0.75 0.0 0 1 1606.46 480.80
  L 1606.46 339.34
  A 0.68 0.68 0.0 0 1 1607.14 338.66
  L 1640.68 338.66
  A 0.57 0.57 0.0 0 1 1641.25 339.23
  L 1641.25 347.49
  Z
  M 1663.4442 369.1572
  A 21.49 20.55 -86.2 0 0 1641.5152 389.2381
  A 21.49 20.55 -86.2 0 0 1660.5958 412.0428
  A 21.49 20.55 -86.2 0 0 1682.5248 391.9619
  A 21.49 20.55 -86.2 0 0 1663.4442 369.1572
  Z"
/>
<path fill="#00c275" d="
  M 734.71 443.12
  A 0.30 0.30 0.0 0 1 734.41 443.43
  L 698.18 443.43
  A 0.58 0.58 0.0 0 1 697.60 442.85
  L 697.60 339.05
  A 0.38 0.37 90.0 0 1 697.97 338.67
  L 733.23 338.67
  A 0.56 0.56 0.0 0 1 733.79 339.23
  L 733.79 350.23
  A 0.45 0.44 -30.0 0 0 734.62 350.45
  Q 741.69 338.25 755.82 336.66
  Q 763.95 335.75 770.59 337.17
  A 0.85 0.85 0.0 0 1 771.27 338.00
  L 771.27 372.43
  A 0.48 0.48 0.0 0 1 770.72 372.91
  C 762.68 371.82 754.48 370.52 746.90 373.98
  Q 734.78 379.53 734.74 394.07
  Q 734.62 440.37 734.71 443.12
  Z"
/>
<path fill="#ffffff" d="
  M 1726.97 412.38
  C 1719.27 393.27 1722.04 373.24 1734.41 356.85
  C 1743.22 345.17 1756.97 338.40 1771.41 336.89
  Q 1777.50 336.25 1786.58 336.79
  C 1812.87 338.34 1831.51 359.27 1834.48 384.54
  C 1838.38 417.75 1815.92 443.30 1782.49 444.71
  C 1757.92 445.75 1736.51 436.05 1726.97 412.38
  Z
  M 1779.6713 369.6394
  A 21.28 20.51 -88.3 0 0 1758.5390 390.3015
  A 21.28 20.51 -88.3 0 0 1778.4087 412.1806
  A 21.28 20.51 -88.3 0 0 1799.5410 391.5185
  A 21.28 20.51 -88.3 0 0 1779.6713 369.6394
  Z"
/>
<path fill="#ffffff" d="
  M 2079.85 371.35
  L 2048.55 371.35
  A 0.61 0.60 84.1 0 1 2047.96 370.86
  Q 2046.46 363.69 2039.13 362.38
  C 2034.42 361.54 2025.73 361.78 2025.16 367.93
  C 2024.86 371.05 2029.14 373.11 2031.63 373.64
  Q 2050.57 377.69 2054.39 378.61
  C 2062.66 380.60 2072.81 384.88 2077.44 392.23
  Q 2086.34 406.34 2080.02 423.04
  C 2071.90 444.50 2041.38 446.62 2022.28 443.30
  C 2004.59 440.23 1990.42 427.43 1990.90 409.04
  A 0.59 0.59 0.0 0 1 1991.49 408.47
  L 2022.50 408.47
  A 0.63 0.62 -4.3 0 1 2023.12 409.00
  Q 2024.23 416.08 2030.79 417.69
  C 2035.54 418.86 2046.84 419.58 2047.66 412.40
  C 2048.29 406.89 2038.76 405.14 2035.02 404.52
  C 2017.35 401.60 1993.25 396.43 1992.05 373.60
  C 1990.93 352.15 2005.63 339.92 2025.90 337.07
  C 2041.33 334.89 2061.57 337.29 2072.48 349.42
  Q 2080.89 358.76 2080.61 370.61
  A 0.76 0.76 0.0 0 1 2079.85 371.35
  Z"
/>
<path fill="#ffffff" d="
  M 1875.60 350.40
  A 0.38 0.38 0.0 0 0 1876.29 350.61
  C 1881.04 343.86 1885.12 339.19 1893.76 337.82
  Q 1902.14 336.48 1910.63 337.82
  A 0.78 0.78 0.0 0 1 1911.29 338.59
  L 1911.29 371.32
  A 0.39 0.39 0.0 0 1 1910.86 371.71
  C 1903.61 370.91 1894.78 370.54 1888.36 373.40
  Q 1876.40 378.72 1876.36 393.01
  Q 1876.29 415.43 1876.38 441.64
  A 0.61 0.60 0.0 0 1 1875.77 442.24
  L 1842.25 442.24
  A 0.59 0.59 0.0 0 1 1841.66 441.65
  L 1841.66 339.24
  A 0.44 0.44 0.0 0 1 1842.10 338.80
  L 1874.92 338.80
  A 0.68 0.68 0.0 0 1 1875.60 339.48
  L 1875.60 350.40
  Z"
/>
<path fill="#020204" d="
  M 830.73 364.86
  C 839.66 364.83 846.72 368.99 850.18 377.15
  A 0.52 0.52 0.0 0 1 849.71 377.88
  Q 839.82 378.08 830.77 378.11
  Q 821.72 378.14 811.82 377.99
  A 0.52 0.52 0.0 0 1 811.35 377.27
  C 814.76 369.09 821.79 364.89 830.73 364.86
  Z"
/>
<path fill="#020204" d="
  M 1091.54 377.48
  A 0.37 0.37 0.0 0 1 1091.19 377.95
  L 1054.00 377.95
  A 0.66 0.66 0.0 0 1 1053.42 376.97
  C 1056.89 370.63 1062.41 365.88 1069.77 365.03
  C 1079.14 363.96 1088.89 367.97 1091.54 377.48
  Z"
/>
<path fill="#020204" d="
  M 1420.85 364.87
  C 1429.30 364.84 1436.33 369.26 1439.21 377.24
  A 0.38 0.38 0.0 0 1 1438.86 377.74
  Q 1429.79 377.91 1420.91 377.94
  Q 1412.03 377.98 1402.96 377.89
  A 0.38 0.38 0.0 0 1 1402.60 377.38
  C 1405.41 369.39 1412.40 364.90 1420.85 364.87
  Z"
/>
<ellipse fill="#020204" cx="0.00" cy="0.00" transform="translate(950.85,390.61) rotate(-98.4)" rx="21.59" ry="21.05"/>
<ellipse fill="#020204" cx="0.00" cy="0.00" transform="translate(1662.02,390.60) rotate(-86.2)" rx="21.49" ry="20.55"/>
<ellipse fill="#020204" cx="0.00" cy="0.00" transform="translate(1779.04,390.91) rotate(-88.3)" rx="21.28" ry="20.51"/>
<path fill="#ffffff" d="
  M 304.39 463.28
  L 312.04 463.27
  L 405.36 463.21
  A 0.91 0.91 0.0 0 0 406.27 462.30
  L 406.27 453.50
  A 3.52 3.51 90.0 0 1 409.78 449.98
  L 410.50 449.98
  A 3.20 3.19 89.9 0 1 413.69 453.17
  L 413.74 479.79
  A 3.79 3.78 89.7 0 1 410.00 483.58
  L 409.97 483.58
  A 3.60 3.60 0.0 0 1 406.27 479.98
  L 406.27 470.93
  A 0.72 0.72 0.0 0 0 405.55 470.20
  L 312.39 470.15
  L 304.45 470.14
  L 209.37 470.21
  A 0.75 0.74 90.0 0 0 208.63 470.96
  L 208.66 479.83
  A 3.74 3.74 0.0 0 1 204.84 483.58
  L 204.67 483.58
  A 3.51 3.51 0.0 0 1 201.20 480.07
  L 201.21 453.33
  A 3.38 3.37 -90.0 0 1 204.58 449.95
  L 205.07 449.95
  A 3.59 3.58 -90.0 0 1 208.65 453.54
  L 208.65 462.52
  A 0.69 0.69 0.0 0 0 209.34 463.21
  L 304.39 463.28
  Z"
/>
<path fill="#00c275" d="
  M 312.39 470.15
  L 312.00 494.66
  A 0.64 0.64 0.0 0 0 312.64 495.31
  Q 367.75 495.15 447.05 495.18
  C 462.36 495.18 478.92 495.73 492.39 494.93
  Q 495.49 494.75 496.44 495.68
  C 498.28 497.49 499.00 501.22 496.53 503.08
  Q 495.55 503.81 492.79 503.81
  Q 322.31 503.86 119.18 503.82
  A 4.63 4.63 0.0 0 1 114.57 499.63
  L 114.55 499.37
  A 3.84 3.84 0.0 0 1 118.37 495.16
  L 304.12 495.16
  A 0.41 0.40 -90.0 0 0 304.52 494.75
  L 304.45 470.14
  L 312.39 470.15
  Z"
/>
</svg>
