<?xml version="1.0" encoding="UTF-8" standalone="no"?>
<!DOCTYPE svg PUBLIC "-//W3C//DTD SVG 1.1//EN" "http://www.w3.org/Graphics/SVG/1.1/DTD/svg11.dtd">
<svg xmlns="http://www.w3.org/2000/svg" version="1.1" viewBox="0.00 0.00 2508.00 627.00">
<g stroke-width="2.00" fill="none" stroke-linecap="butt">
<path stroke="#86e2bf" vector-effect="non-scaling-stroke" d="
  M 309.16 279.90
  C 304.80 248.96 285.84 223.04 257.35 209.92
  C 244.92 204.20 232.55 201.55 218.71 200.00
  Q 208.37 198.84 199.51 199.58
  C 182.72 200.97 167.60 204.03 152.16 211.66
  Q 124.32 225.42 110.05 254.31
  Q 98.99 276.69 98.44 302.24
  Q 98.11 317.82 100.16 330.18
  Q 102.46 343.98 108.62 357.41
  Q 122.71 388.10 152.71 402.02
  Q 168.40 409.30 186.89 411.37
  C 212.67 414.27 237.60 412.56 260.44 402.14
  C 288.07 389.52 304.76 364.74 309.57 335.10
  A 0.77 0.77 0.0 0 0 308.81 334.21
  L 249.36 334.21
  A 1.34 1.33 9.0 0 0 248.09 335.13
  C 244.18 347.25 236.05 354.95 223.77 358.88
  C 204.43 365.08 179.98 359.67 167.64 342.72
  C 157.32 328.55 155.95 306.37 160.09 289.22
  C 163.73 274.13 174.67 261.22 189.66 256.32
  Q 207.81 250.38 225.28 256.39
  C 235.77 259.99 245.51 268.81 247.91 279.86
  A 1.05 1.03 -6.2 0 0 248.93 280.67
  L 308.49 280.67
  A 0.68 0.67 -4.1 0 0 309.16 279.90"
/>
<path stroke="#86e2bf" vector-effect="non-scaling-stroke" d="
  M 731.48 396.16
  L 731.48 407.93
  A 0.49 0.49 0.0 0 0 731.97 408.42
  L 785.93 408.42
  A 0.78 0.77 0.0 0 0 786.71 407.65
  L 786.71 202.33
  A 0.55 0.55 0.0 0 0 786.16 201.78
  L 731.46 201.78
  A 0.31 0.31 0.0 0 0 731.15 202.09
  L 731.15 267.56
  A 0.49 0.49 0.0 0 1 730.30 267.88
  Q 722.19 258.66 710.48 255.03
  Q 695.58 250.40 680.75 251.98
  Q 666.77 253.46 656.26 258.21
  C 625.65 272.03 614.60 304.51 615.16 335.39
  C 615.21 338.63 616.14 341.55 616.24 344.73
  C 616.41 350.48 618.54 358.53 619.82 362.95
  C 624.41 378.79 633.41 393.47 647.82 401.86
  Q 659.32 408.56 672.02 410.42
  C 691.54 413.29 716.84 411.92 730.83 395.92
  A 0.37 0.37 0.0 0 1 731.48 396.16"
/>
<path stroke="#828282" vector-effect="non-scaling-stroke" d="
  M 1704.21 271.11
  C 1703.85 254.31 1697.93 238.09 1685.67 226.34
  Q 1672.61 213.83 1654.43 208.58
  Q 1636.69 203.46 1620.72 203.02
  Q 1607.68 202.65 1593.89 204.69
  Q 1581.99 206.45 1569.94 211.04
  C 1564.66 213.05 1560.12 215.84 1555.49 219.01
  Q 1546.14 225.40 1539.81 235.56
  Q 1528.38 253.91 1531.14 275.71
  C 1534.54 302.55 1552.43 315.40 1576.89 322.17
  Q 1593.88 326.87 1627.90 333.96
  Q 1636.04 335.66 1642.13 338.48
  Q 1648.80 341.57 1649.89 348.30
  C 1651.45 358.02 1643.54 363.77 1635.07 366.09
  Q 1629.04 367.74 1621.50 368.01
  Q 1608.55 368.46 1598.34 364.18
  Q 1584.96 358.57 1584.22 343.89
  A 0.37 0.37 0.0 0 0 1583.85 343.54
  L 1528.13 343.54
  A 0.64 0.63 -84.5 0 0 1527.51 344.06
  Q 1527.16 345.91 1527.42 347.82
  Q 1528.33 354.51 1529.23 358.76
  Q 1531.31 368.57 1537.47 378.81
  C 1554.14 406.54 1588.90 412.57 1619.71 412.86
  C 1628.41 412.94 1639.45 411.39 1647.21 410.18
  C 1670.94 406.47 1695.39 393.45 1703.64 369.19
  Q 1709.16 352.95 1705.84 335.86
  Q 1701.53 313.70 1681.06 302.89
  Q 1667.89 295.93 1651.22 291.77
  Q 1627.71 285.91 1608.15 281.58
  C 1603.37 280.52 1599.15 278.92 1595.06 276.96
  Q 1589.30 274.21 1587.96 268.58
  C 1585.78 259.40 1592.90 253.31 1601.14 251.08
  Q 1613.75 247.67 1625.78 249.77
  C 1638.18 251.93 1647.15 257.54 1647.81 270.83
  A 0.76 0.76 0.0 0 0 1648.57 271.55
  L 1703.78 271.55
  A 0.43 0.43 0.0 0 0 1704.21 271.11"
/>
<path stroke="#828282" vector-effect="non-scaling-stroke" d="
  M 2273.30 303.48
  A 0.51 0.50 -90.0 0 0 2273.80 302.97
  L 2273.80 260.32
  A 0.55 0.54 90.0 0 0 2273.26 259.77
  L 2244.77 259.77
  A 0.86 0.85 0.0 0 1 2243.91 258.92
  L 2243.91 225.92
  A 0.36 0.35 -90.0 0 0 2243.56 225.56
  L 2192.65 225.56
  A 0.56 0.56 0.0 0 0 2192.09 226.12
  L 2192.09 259.07
  A 0.63 0.63 0.0 0 1 2191.46 259.70
  L 2175.84 259.70
  A 0.99 0.98 90.0 0 0 2174.86 260.69
  L 2174.86 302.82
  A 0.62 0.62 0.0 0 0 2175.48 303.44
  L 2191.72 303.44
  A 0.54 0.54 0.0 0 1 2192.26 304.03
  Q 2192.03 306.29 2192.03 306.50
  Q 2192.00 308.74 2191.96 358.20
  C 2191.94 373.82 2195.07 388.85 2207.73 398.39
  C 2216.94 405.34 2230.73 407.84 2242.27 408.33
  Q 2242.96 408.36 2274.43 408.29
  A 0.56 0.56 0.0 0 0 2274.99 407.73
  L 2274.99 365.55
  A 1.06 1.06 0.0 0 0 2273.74 364.51
  Q 2265.35 366.07 2256.72 365.21
  C 2244.91 364.02 2243.68 355.65 2243.90 344.90
  Q 2243.99 340.91 2243.86 304.18
  A 0.71 0.70 -0.0 0 1 2244.57 303.48
  L 2273.30 303.48"
/>
<path stroke="#86e2bf" vector-effect="non-scaling-stroke" d="
  M 495.32 345.66
  L 605.25 345.66
  A 1.08 1.08 0.0 0 0 606.33 344.62
  C 606.65 334.91 606.65 325.44 604.50 315.10
  C 602.14 303.75 598.62 292.31 592.44 283.33
  Q 583.53 270.37 572.59 263.93
  Q 561.49 257.39 550.12 254.65
  Q 528.95 249.55 505.80 252.82
  C 481.16 256.30 459.41 268.05 447.77 290.05
  Q 440.39 304.01 438.28 320.56
  Q 435.43 342.83 443.33 363.75
  Q 452.01 386.75 472.15 399.40
  C 485.67 407.90 501.94 411.68 518.00 412.34
  Q 536.93 413.12 555.37 408.63
  Q 568.53 405.43 579.20 397.93
  C 593.34 387.99 601.18 372.90 604.87 356.01
  A 0.79 0.79 0.0 0 0 604.10 355.05
  L 550.98 355.05
  A 1.25 1.25 0.0 0 0 549.87 355.73
  Q 548.01 359.44 544.58 362.72
  C 541.04 366.12 533.84 368.58 529.26 368.81
  Q 520.99 369.21 518.76 368.81
  Q 508.20 366.96 502.21 361.62
  Q 496.00 356.08 494.68 346.40
  A 0.65 0.65 0.0 0 1 495.32 345.66"
/>
<path stroke="#86e2bf" vector-effect="non-scaling-stroke" d="
  M 858.89 345.63
  L 969.17 345.63
  A 0.39 0.38 2.4 0 0 969.56 345.28
  C 971.37 325.03 967.85 301.58 957.38 284.88
  C 943.42 262.63 919.83 253.84 894.23 251.78
  Q 884.04 250.96 873.17 252.33
  C 845.88 255.77 823.64 266.98 810.37 292.16
  C 800.88 310.20 799.51 332.89 803.73 352.46
  C 807.69 370.92 819.14 389.39 835.54 399.16
  C 840.86 402.33 845.28 404.84 850.74 406.55
  Q 870.84 412.84 892.36 412.39
  C 900.45 412.22 906.66 410.96 915.27 409.29
  C 943.24 403.85 963.14 383.94 968.51 356.03
  A 0.85 0.85 0.0 0 0 967.68 355.02
  L 914.59 355.02
  A 1.49 1.47 12.6 0 0 913.25 355.86
  Q 910.47 361.53 904.58 364.66
  Q 890.48 372.15 875.01 366.85
  C 866.48 363.92 858.87 355.65 858.26 346.31
  A 0.64 0.63 88.3 0 1 858.89 345.63"
/>
<path stroke="#86e2bf" vector-effect="non-scaling-stroke" d="
  M 1038.86 268.96
  L 1038.86 256.08
  A 0.94 0.94 0.0 0 0 1037.92 255.14
  L 984.91 255.14
  A 0.38 0.38 0.0 0 0 984.53 255.52
  L 984.53 407.35
  A 1.05 1.05 0.0 0 0 985.58 408.40
  L 1038.66 408.40
  A 0.76 0.76 0.0 0 0 1039.42 407.65
  Q 1039.49 387.70 1039.41 330.92
  Q 1039.40 319.08 1041.15 314.31
  Q 1044.72 304.59 1053.89 301.04
  C 1059.46 298.89 1066.00 298.26 1071.24 298.89
  Q 1085.42 300.58 1089.76 312.44
  Q 1091.61 317.48 1091.47 329.51
  Q 1091.31 343.17 1091.47 407.82
  A 0.56 0.56 0.0 0 0 1092.03 408.38
  L 1145.56 408.38
  A 0.86 0.86 0.0 0 0 1146.42 407.52
  Q 1146.32 354.60 1146.45 314.01
  C 1146.50 298.71 1143.77 280.93 1133.34 269.20
  Q 1127.71 262.89 1123.44 260.33
  C 1111.25 253.01 1096.26 251.03 1082.00 251.44
  Q 1072.90 251.71 1064.91 254.12
  C 1054.12 257.38 1046.41 260.88 1039.40 269.16
  A 0.31 0.31 0.0 0 1 1038.86 268.96"
/>
<path stroke="#86e2bf" vector-effect="non-scaling-stroke" d="
  M 1273.47 347.75
  C 1271.03 358.35 1261.20 364.51 1250.75 365.30
  Q 1234.34 366.54 1224.80 356.18
  C 1215.03 345.57 1215.20 327.53 1220.53 314.80
  C 1224.44 305.45 1235.34 299.30 1245.01 298.89
  C 1252.39 298.58 1258.59 299.41 1264.89 303.67
  Q 1271.45 308.11 1273.21 315.58
  A 1.17 1.16 -6.5 0 0 1274.35 316.48
  L 1328.41 316.48
  A 0.81 0.81 0.0 0 0 1329.21 315.55
  Q 1327.53 304.11 1323.13 293.35
  C 1320.71 287.46 1316.95 282.26 1313.21 277.52
  Q 1309.51 272.82 1304.00 268.73
  Q 1289.74 258.13 1272.45 254.46
  C 1262.23 252.29 1250.30 250.75 1239.39 251.73
  Q 1224.58 253.06 1214.81 255.83
  C 1196.23 261.08 1179.56 273.23 1170.62 290.62
  Q 1159.33 312.58 1160.73 337.79
  Q 1161.33 348.69 1165.65 361.58
  Q 1174.15 386.99 1196.59 400.14
  Q 1208.70 407.23 1220.77 409.49
  C 1231.01 411.40 1243.13 413.25 1254.50 412.23
  Q 1266.61 411.15 1278.31 408.37
  Q 1289.65 405.67 1301.02 398.30
  C 1317.82 387.42 1327.42 367.60 1329.53 348.15
  A 0.70 0.69 -87.0 0 0 1328.84 347.38
  L 1273.94 347.38
  A 0.48 0.47 5.9 0 0 1273.47 347.75"
/>
<path stroke="#86e2bf" vector-effect="non-scaling-stroke" d="
  M 1503.66 355.03
  L 1449.98 355.03
  A 0.68 0.68 0.0 0 0 1449.36 355.43
  C 1448.41 357.55 1447.36 359.54 1445.54 361.23
  Q 1437.54 368.68 1426.76 368.97
  Q 1420.29 369.14 1416.74 368.51
  Q 1398.29 365.21 1394.46 346.64
  A 0.84 0.84 0.0 0 1 1395.28 345.64
  L 1504.80 345.64
  A 0.79 0.78 0.7 0 0 1505.59 344.88
  Q 1505.87 335.58 1505.46 327.03
  Q 1504.82 313.52 1499.47 298.74
  Q 1491.79 277.52 1473.56 265.12
  C 1462.92 257.88 1450.20 254.21 1437.26 252.45
  Q 1411.24 248.92 1386.97 257.47
  Q 1362.83 265.98 1349.81 287.07
  Q 1345.19 294.56 1341.90 304.52
  C 1340.52 308.68 1339.94 312.84 1339.12 316.66
  C 1335.67 332.71 1337.84 350.37 1343.72 365.30
  Q 1354.73 393.27 1382.37 404.94
  C 1391.09 408.62 1398.98 410.08 1408.90 411.60
  C 1421.98 413.60 1436.13 412.30 1449.05 409.82
  C 1467.99 406.17 1484.89 396.78 1494.85 379.94
  C 1499.40 372.23 1502.61 364.43 1504.25 355.73
  A 0.60 0.59 5.2 0 0 1503.66 355.03"
/>
<path stroke="#86e2bf" vector-effect="non-scaling-stroke" d="
  M 430.94 302.83
  L 430.94 254.77
  A 0.83 0.83 0.0 0 0 430.23 253.95
  C 418.05 252.25 405.83 252.81 394.69 258.37
  Q 385.69 262.86 381.02 270.72
  A 0.32 0.32 0.0 0 1 380.42 270.56
  L 380.42 255.69
  A 0.56 0.56 0.0 0 0 379.86 255.13
  L 326.53 255.13
  A 0.61 0.61 0.0 0 0 325.92 255.74
  L 325.92 407.42
  A 0.94 0.94 0.0 0 0 326.86 408.36
  L 380.33 408.36
  A 0.87 0.87 0.0 0 0 381.20 407.49
  Q 381.32 381.80 381.24 332.95
  C 381.23 327.93 381.80 323.74 383.15 319.38
  C 386.37 309.04 397.22 302.95 407.55 302.39
  Q 417.88 301.82 421.53 302.55
  Q 425.75 303.40 430.33 303.44
  A 0.61 0.61 0.0 0 0 430.94 302.83"
/>
<path stroke="#828282" vector-effect="non-scaling-stroke" d="
  M 1773.98 395.97
  C 1779.23 402.26 1789.08 406.96 1796.60 408.86
  Q 1805.01 410.97 1811.25 411.26
  C 1831.41 412.22 1851.97 407.57 1865.94 392.71
  C 1872.91 385.29 1877.73 376.15 1880.54 366.52
  Q 1888.73 338.39 1882.47 309.53
  Q 1879.29 294.86 1872.83 284.91
  Q 1858.36 262.65 1831.21 257.83
  Q 1819.55 255.76 1810.75 256.52
  C 1796.55 257.73 1783.94 262.46 1774.31 273.25
  A 0.44 0.44 0.0 0 1 1773.55 272.96
  L 1773.55 260.24
  A 0.52 0.52 0.0 0 0 1773.03 259.72
  L 1722.00 259.72
  A 0.68 0.68 0.0 0 0 1721.32 260.40
  L 1721.32 461.37
  A 0.52 0.52 0.0 0 0 1721.84 461.89
  L 1772.71 461.89
  A 0.74 0.73 0.0 0 0 1773.45 461.16
  L 1773.45 396.16
  A 0.30 0.30 0.0 0 1 1773.98 395.97"
/>
<path stroke="#828282" vector-effect="non-scaling-stroke" d="
  M 1893.83 337.94
  C 1893.52 343.09 1895.25 350.35 1896.25 355.48
  Q 1898.97 369.31 1907.68 382.05
  C 1925.05 407.47 1956.40 412.80 1985.00 411.49
  Q 1992.36 411.15 2002.80 409.07
  Q 2022.09 405.24 2035.57 393.47
  C 2046.66 383.79 2054.32 369.56 2057.17 354.90
  Q 2061.57 332.25 2056.04 309.99
  C 2048.82 280.99 2026.08 263.11 1997.25 258.24
  Q 1979.80 255.30 1962.38 257.22
  Q 1942.80 259.38 1928.99 267.02
  Q 1908.57 278.30 1899.12 302.34
  Q 1896.75 308.36 1894.49 322.06
  C 1893.55 327.80 1894.16 332.44 1893.83 337.94"
/>
<path stroke="#828282" vector-effect="non-scaling-stroke" d="
  M 2420.23 308.08
  Q 2419.18 287.13 2405.75 274.21
  Q 2394.22 263.10 2371.81 258.81
  Q 2356.48 255.87 2342.36 256.85
  C 2323.12 258.18 2303.83 262.82 2291.20 278.42
  C 2285.45 285.53 2283.11 294.03 2282.70 303.50
  Q 2282.22 314.92 2286.31 323.89
  C 2292.54 337.54 2305.17 342.85 2319.05 347.01
  Q 2323.73 348.42 2359.86 355.88
  C 2365.42 357.04 2370.89 358.45 2370.89 364.93
  C 2370.90 370.23 2364.30 372.54 2360.29 373.33
  Q 2357.72 373.83 2352.67 373.93
  C 2343.30 374.11 2331.65 371.00 2330.31 360.24
  A 0.71 0.70 -3.7 0 0 2329.61 359.63
  L 2280.31 359.63
  A 0.66 0.66 0.0 0 0 2279.65 360.29
  C 2280.05 389.17 2300.91 405.12 2327.52 409.41
  C 2340.34 411.47 2352.80 412.40 2365.40 410.90
  C 2376.40 409.59 2384.91 408.22 2394.56 404.26
  C 2414.41 396.12 2424.34 380.01 2422.60 358.53
  Q 2421.02 338.96 2405.08 329.74
  C 2400.32 326.99 2394.89 324.48 2389.41 322.89
  Q 2375.59 318.90 2354.60 314.70
  C 2347.70 313.32 2332.53 311.60 2333.19 303.13
  C 2333.55 298.56 2338.09 296.30 2342.33 295.31
  Q 2350.79 293.35 2358.30 295.43
  C 2364.69 297.21 2371.06 300.89 2370.37 307.99
  A 0.48 0.48 0.0 0 0 2370.85 308.52
  L 2419.82 308.52
  A 0.41 0.41 0.0 0 0 2420.23 308.08"
/>
<path stroke="#828282" vector-effect="non-scaling-stroke" d="
  M 2124.48 273.84
  L 2124.48 260.19
  A 0.45 0.45 0.0 0 0 2124.03 259.74
  L 2073.22 259.74
  A 0.67 0.66 0.0 0 0 2072.55 260.40
  L 2072.55 407.72
  A 0.64 0.64 0.0 0 0 2073.19 408.36
  L 2124.63 408.36
  A 0.39 0.39 0.0 0 0 2125.02 407.97
  Q 2125.13 375.54 2125.02 333.81
  C 2125.00 324.29 2127.26 315.53 2135.71 310.01
  Q 2143.56 304.89 2152.97 304.38
  Q 2162.59 303.86 2172.51 305.49
  A 0.64 0.64 0.0 0 0 2173.25 304.86
  L 2173.25 258.92
  A 0.78 0.77 8.7 0 0 2172.70 258.18
  C 2169.67 257.23 2166.87 257.32 2163.68 257.27
  C 2151.61 257.10 2141.04 259.54 2131.58 266.93
  C 2129.13 268.84 2126.56 272.32 2125.09 274.06
  A 0.35 0.34 -25.0 0 1 2124.48 273.84"
/>
<path stroke="#86e2bf" vector-effect="non-scaling-stroke" d="
  M 732.23 333.97
  C 733.27 315.36 723.78 300.64 704.05 299.54
  C 684.32 298.43 673.24 312.01 672.20 330.62
  C 671.16 349.22 680.66 363.95 700.38 365.05
  C 720.11 366.15 731.19 352.58 732.23 333.97"
/>
<path stroke="#86e2bf" vector-effect="non-scaling-stroke" d="
  M 523.11 313.46
  Q 546.60 313.43 550.02 313.34
  A 0.57 0.57 0.0 0 0 550.54 312.58
  C 546.12 300.27 536.11 294.45 523.08 294.47
  C 510.05 294.49 500.05 300.34 495.67 312.66
  A 0.57 0.57 0.0 0 0 496.19 313.42
  Q 499.61 313.50 523.11 313.46"
/>
<path stroke="#86e2bf" vector-effect="non-scaling-stroke" d="
  M 886.72 313.49
  Q 910.29 313.52 913.72 313.44
  A 0.57 0.57 0.0 0 0 914.24 312.68
  C 909.85 300.32 899.81 294.45 886.74 294.43
  C 873.67 294.41 863.62 300.26 859.19 312.60
  A 0.57 0.57 0.0 0 0 859.72 313.37
  Q 863.14 313.46 886.72 313.49"
/>
<path stroke="#86e2bf" vector-effect="non-scaling-stroke" d="
  M 1422.90 313.34
  Q 1446.13 313.33 1449.51 313.25
  A 0.56 0.56 0.0 0 0 1450.03 312.50
  C 1445.67 300.33 1435.78 294.56 1422.90 294.56
  C 1410.02 294.56 1400.12 300.34 1395.78 312.51
  A 0.56 0.56 0.0 0 0 1396.30 313.27
  Q 1399.67 313.35 1422.90 313.34"
/>
<path stroke="#828282" vector-effect="non-scaling-stroke" d="
  M 1773.19 333.37
  C 1772.54 351.44 1782.04 365.54 1801.20 366.23
  C 1820.37 366.92 1830.85 353.53 1831.50 335.46
  C 1832.14 317.38 1822.65 303.28 1803.48 302.59
  C 1784.32 301.90 1773.84 315.29 1773.19 333.37"
/>
<path stroke="#828282" vector-effect="non-scaling-stroke" d="
  M 1947.37 334.23
  C 1947.25 352.47 1957.25 366.40 1976.58 366.52
  C 1995.91 366.65 2006.08 352.84 2006.20 334.60
  C 2006.31 316.37 1996.32 302.44 1976.99 302.32
  C 1957.65 302.19 1947.49 316.00 1947.37 334.23"
/>
</g>
<path fill="#ffffff" d="
  M 2508.00 0.00
  L 2508.00 627.00
  L 0.00 627.00
  L 0.00 0.00
  L 2508.00 0.00
  Z
  M 309.16 279.90
  C 304.80 248.96 285.84 223.04 257.35 209.92
  C 244.92 204.20 232.55 201.55 218.71 200.00
  Q 208.37 198.84 199.51 199.58
  C 182.72 200.97 167.60 204.03 152.16 211.66
  Q 124.32 225.42 110.05 254.31
  Q 98.99 276.69 98.44 302.24
  Q 98.11 317.82 100.16 330.18
  Q 102.46 343.98 108.62 357.41
  Q 122.71 388.10 152.71 402.02
  Q 168.40 409.30 186.89 411.37
  C 212.67 414.27 237.60 412.56 260.44 402.14
  C 288.07 389.52 304.76 364.74 309.57 335.10
  A 0.77 0.77 0.0 0 0 308.81 334.21
  L 249.36 334.21
  A 1.34 1.33 9.0 0 0 248.09 335.13
  C 244.18 347.25 236.05 354.95 223.77 358.88
  C 204.43 365.08 179.98 359.67 167.64 342.72
  C 157.32 328.55 155.95 306.37 160.09 289.22
  C 163.73 274.13 174.67 261.22 189.66 256.32
  Q 207.81 250.38 225.28 256.39
  C 235.77 259.99 245.51 268.81 247.91 279.86
  A 1.05 1.03 -6.2 0 0 248.93 280.67
  L 308.49 280.67
  A 0.68 0.67 -4.1 0 0 309.16 279.90
  Z
  M 731.48 396.16
  L 731.48 407.93
  A 0.49 0.49 0.0 0 0 731.97 408.42
  L 785.93 408.42
  A 0.78 0.77 0.0 0 0 786.71 407.65
  L 786.71 202.33
  A 0.55 0.55 0.0 0 0 786.16 201.78
  L 731.46 201.78
  A 0.31 0.31 0.0 0 0 731.15 202.09
  L 731.15 267.56
  A 0.49 0.49 0.0 0 1 730.30 267.88
  Q 722.19 258.66 710.48 255.03
  Q 695.58 250.40 680.75 251.98
  Q 666.77 253.46 656.26 258.21
  C 625.65 272.03 614.60 304.51 615.16 335.39
  C 615.21 338.63 616.14 341.55 616.24 344.73
  C 616.41 350.48 618.54 358.53 619.82 362.95
  C 624.41 378.79 633.41 393.47 647.82 401.86
  Q 659.32 408.56 672.02 410.42
  C 691.54 413.29 716.84 411.92 730.83 395.92
  A 0.37 0.37 0.0 0 1 731.48 396.16
  Z
  M 1704.21 271.11
  C 1703.85 254.31 1697.93 238.09 1685.67 226.34
  Q 1672.61 213.83 1654.43 208.58
  Q 1636.69 203.46 1620.72 203.02
  Q 1607.68 202.65 1593.89 204.69
  Q 1581.99 206.45 1569.94 211.04
  C 1564.66 213.05 1560.12 215.84 1555.49 219.01
  Q 1546.14 225.40 1539.81 235.56
  Q 1528.38 253.91 1531.14 275.71
  C 1534.54 302.55 1552.43 315.40 1576.89 322.17
  Q 1593.88 326.87 1627.90 333.96
  Q 1636.04 335.66 1642.13 338.48
  Q 1648.80 341.57 1649.89 348.30
  C 1651.45 358.02 1643.54 363.77 1635.07 366.09
  Q 1629.04 367.74 1621.50 368.01
  Q 1608.55 368.46 1598.34 364.18
  Q 1584.96 358.57 1584.22 343.89
  A 0.37 0.37 0.0 0 0 1583.85 343.54
  L 1528.13 343.54
  A 0.64 0.63 -84.5 0 0 1527.51 344.06
  Q 1527.16 345.91 1527.42 347.82
  Q 1528.33 354.51 1529.23 358.76
  Q 1531.31 368.57 1537.47 378.81
  C 1554.14 406.54 1588.90 412.57 1619.71 412.86
  C 1628.41 412.94 1639.45 411.39 1647.21 410.18
  C 1670.94 406.47 1695.39 393.45 1703.64 369.19
  Q 1709.16 352.95 1705.84 335.86
  Q 1701.53 313.70 1681.06 302.89
  Q 1667.89 295.93 1651.22 291.77
  Q 1627.71 285.91 1608.15 281.58
  C 1603.37 280.52 1599.15 278.92 1595.06 276.96
  Q 1589.30 274.21 1587.96 268.58
  C 1585.78 259.40 1592.90 253.31 1601.14 251.08
  Q 1613.75 247.67 1625.78 249.77
  C 1638.18 251.93 1647.15 257.54 1647.81 270.83
  A 0.76 0.76 0.0 0 0 1648.57 271.55
  L 1703.78 271.55
  A 0.43 0.43 0.0 0 0 1704.21 271.11
  Z
  M 2273.30 303.48
  A 0.51 0.50 -90.0 0 0 2273.80 302.97
  L 2273.80 260.32
  A 0.55 0.54 90.0 0 0 2273.26 259.77
  L 2244.77 259.77
  A 0.86 0.85 0.0 0 1 2243.91 258.92
  L 2243.91 225.92
  A 0.36 0.35 -90.0 0 0 2243.56 225.56
  L 2192.65 225.56
  A 0.56 0.56 0.0 0 0 2192.09 226.12
  L 2192.09 259.07
  A 0.63 0.63 0.0 0 1 2191.46 259.70
  L 2175.84 259.70
  A 0.99 0.98 90.0 0 0 2174.86 260.69
  L 2174.86 302.82
  A 0.62 0.62 0.0 0 0 2175.48 303.44
  L 2191.72 303.44
  A 0.54 0.54 0.0 0 1 2192.26 304.03
  Q 2192.03 306.29 2192.03 306.50
  Q 2192.00 308.74 2191.96 358.20
  C 2191.94 373.82 2195.07 388.85 2207.73 398.39
  C 2216.94 405.34 2230.73 407.84 2242.27 408.33
  Q 2242.96 408.36 2274.43 408.29
  A 0.56 0.56 0.0 0 0 2274.99 407.73
  L 2274.99 365.55
  A 1.06 1.06 0.0 0 0 2273.74 364.51
  Q 2265.35 366.07 2256.72 365.21
  C 2244.91 364.02 2243.68 355.65 2243.90 344.90
  Q 2243.99 340.91 2243.86 304.18
  A 0.71 0.70 -0.0 0 1 2244.57 303.48
  L 2273.30 303.48
  Z
  M 495.32 345.66
  L 605.25 345.66
  A 1.08 1.08 0.0 0 0 606.33 344.62
  C 606.65 334.91 606.65 325.44 604.50 315.10
  C 602.14 303.75 598.62 292.31 592.44 283.33
  Q 583.53 270.37 572.59 263.93
  Q 561.49 257.39 550.12 254.65
  Q 528.95 249.55 505.80 252.82
  C 481.16 256.30 459.41 268.05 447.77 290.05
  Q 440.39 304.01 438.28 320.56
  Q 435.43 342.83 443.33 363.75
  Q 452.01 386.75 472.15 399.40
  C 485.67 407.90 501.94 411.68 518.00 412.34
  Q 536.93 413.12 555.37 408.63
  Q 568.53 405.43 579.20 397.93
  C 593.34 387.99 601.18 372.90 604.87 356.01
  A 0.79 0.79 0.0 0 0 604.10 355.05
  L 550.98 355.05
  A 1.25 1.25 0.0 0 0 549.87 355.73
  Q 548.01 359.44 544.58 362.72
  C 541.04 366.12 533.84 368.58 529.26 368.81
  Q 520.99 369.21 518.76 368.81
  Q 508.20 366.96 502.21 361.62
  Q 496.00 356.08 494.68 346.40
  A 0.65 0.65 0.0 0 1 495.32 345.66
  Z
  M 858.89 345.63
  L 969.17 345.63
  A 0.39 0.38 2.4 0 0 969.56 345.28
  C 971.37 325.03 967.85 301.58 957.38 284.88
  C 943.42 262.63 919.83 253.84 894.23 251.78
  Q 884.04 250.96 873.17 252.33
  C 845.88 255.77 823.64 266.98 810.37 292.16
  C 800.88 310.20 799.51 332.89 803.73 352.46
  C 807.69 370.92 819.14 389.39 835.54 399.16
  C 840.86 402.33 845.28 404.84 850.74 406.55
  Q 870.84 412.84 892.36 412.39
  C 900.45 412.22 906.66 410.96 915.27 409.29
  C 943.24 403.85 963.14 383.94 968.51 356.03
  A 0.85 0.85 0.0 0 0 967.68 355.02
  L 914.59 355.02
  A 1.49 1.47 12.6 0 0 913.25 355.86
  Q 910.47 361.53 904.58 364.66
  Q 890.48 372.15 875.01 366.85
  C 866.48 363.92 858.87 355.65 858.26 346.31
  A 0.64 0.63 88.3 0 1 858.89 345.63
  Z
  M 1038.86 268.96
  L 1038.86 256.08
  A 0.94 0.94 0.0 0 0 1037.92 255.14
  L 984.91 255.14
  A 0.38 0.38 0.0 0 0 984.53 255.52
  L 984.53 407.35
  A 1.05 1.05 0.0 0 0 985.58 408.40
  L 1038.66 408.40
  A 0.76 0.76 0.0 0 0 1039.42 407.65
  Q 1039.49 387.70 1039.41 330.92
  Q 1039.40 319.08 1041.15 314.31
  Q 1044.72 304.59 1053.89 301.04
  C 1059.46 298.89 1066.00 298.26 1071.24 298.89
  Q 1085.42 300.58 1089.76 312.44
  Q 1091.61 317.48 1091.47 329.51
  Q 1091.31 343.17 1091.47 407.82
  A 0.56 0.56 0.0 0 0 1092.03 408.38
  L 1145.56 408.38
  A 0.86 0.86 0.0 0 0 1146.42 407.52
  Q 1146.32 354.60 1146.45 314.01
  C 1146.50 298.71 1143.77 280.93 1133.34 269.20
  Q 1127.71 262.89 1123.44 260.33
  C 1111.25 253.01 1096.26 251.03 1082.00 251.44
  Q 1072.90 251.71 1064.91 254.12
  C 1054.12 257.38 1046.41 260.88 1039.40 269.16
  A 0.31 0.31 0.0 0 1 1038.86 268.96
  Z
  M 1273.47 347.75
  C 1271.03 358.35 1261.20 364.51 1250.75 365.30
  Q 1234.34 366.54 1224.80 356.18
  C 1215.03 345.57 1215.20 327.53 1220.53 314.80
  C 1224.44 305.45 1235.34 299.30 1245.01 298.89
  C 1252.39 298.58 1258.59 299.41 1264.89 303.67
  Q 1271.45 308.11 1273.21 315.58
  A 1.17 1.16 -6.5 0 0 1274.35 316.48
  L 1328.41 316.48
  A 0.81 0.81 0.0 0 0 1329.21 315.55
  Q 1327.53 304.11 1323.13 293.35
  C 1320.71 287.46 1316.95 282.26 1313.21 277.52
  Q 1309.51 272.82 1304.00 268.73
  Q 1289.74 258.13 1272.45 254.46
  C 1262.23 252.29 1250.30 250.75 1239.39 251.73
  Q 1224.58 253.06 1214.81 255.83
  C 1196.23 261.08 1179.56 273.23 1170.62 290.62
  Q 1159.33 312.58 1160.73 337.79
  Q 1161.33 348.69 1165.65 361.58
  Q 1174.15 386.99 1196.59 400.14
  Q 1208.70 407.23 1220.77 409.49
  C 1231.01 411.40 1243.13 413.25 1254.50 412.23
  Q 1266.61 411.15 1278.31 408.37
  Q 1289.65 405.67 1301.02 398.30
  C 1317.82 387.42 1327.42 367.60 1329.53 348.15
  A 0.70 0.69 -87.0 0 0 1328.84 347.38
  L 1273.94 347.38
  A 0.48 0.47 5.9 0 0 1273.47 347.75
  Z
  M 1503.66 355.03
  L 1449.98 355.03
  A 0.68 0.68 0.0 0 0 1449.36 355.43
  C 1448.41 357.55 1447.36 359.54 1445.54 361.23
  Q 1437.54 368.68 1426.76 368.97
  Q 1420.29 369.14 1416.74 368.51
  Q 1398.29 365.21 1394.46 346.64
  A 0.84 0.84 0.0 0 1 1395.28 345.64
  L 1504.80 345.64
  A 0.79 0.78 0.7 0 0 1505.59 344.88
  Q 1505.87 335.58 1505.46 327.03
  Q 1504.82 313.52 1499.47 298.74
  Q 1491.79 277.52 1473.56 265.12
  C 1462.92 257.88 1450.20 254.21 1437.26 252.45
  Q 1411.24 248.92 1386.97 257.47
  Q 1362.83 265.98 1349.81 287.07
  Q 1345.19 294.56 1341.90 304.52
  C 1340.52 308.68 1339.94 312.84 1339.12 316.66
  C 1335.67 332.71 1337.84 350.37 1343.72 365.30
  Q 1354.73 393.27 1382.37 404.94
  C 1391.09 408.62 1398.98 410.08 1408.90 411.60
  C 1421.98 413.60 1436.13 412.30 1449.05 409.82
  C 1467.99 406.17 1484.89 396.78 1494.85 379.94
  C 1499.40 372.23 1502.61 364.43 1504.25 355.73
  A 0.60 0.59 5.2 0 0 1503.66 355.03
  Z
  M 430.94 302.83
  L 430.94 254.77
  A 0.83 0.83 0.0 0 0 430.23 253.95
  C 418.05 252.25 405.83 252.81 394.69 258.37
  Q 385.69 262.86 381.02 270.72
  A 0.32 0.32 0.0 0 1 380.42 270.56
  L 380.42 255.69
  A 0.56 0.56 0.0 0 0 379.86 255.13
  L 326.53 255.13
  A 0.61 0.61 0.0 0 0 325.92 255.74
  L 325.92 407.42
  A 0.94 0.94 0.0 0 0 326.86 408.36
  L 380.33 408.36
  A 0.87 0.87 0.0 0 0 381.20 407.49
  Q 381.32 381.80 381.24 332.95
  C 381.23 327.93 381.80 323.74 383.15 319.38
  C 386.37 309.04 397.22 302.95 407.55 302.39
  Q 417.88 301.82 421.53 302.55
  Q 425.75 303.40 430.33 303.44
  A 0.61 0.61 0.0 0 0 430.94 302.83
  Z
  M 1773.98 395.97
  C 1779.23 402.26 1789.08 406.96 1796.60 408.86
  Q 1805.01 410.97 1811.25 411.26
  C 1831.41 412.22 1851.97 407.57 1865.94 392.71
  C 1872.91 385.29 1877.73 376.15 1880.54 366.52
  Q 1888.73 338.39 1882.47 309.53
  Q 1879.29 294.86 1872.83 284.91
  Q 1858.36 262.65 1831.21 257.83
  Q 1819.55 255.76 1810.75 256.52
  C 1796.55 257.73 1783.94 262.46 1774.31 273.25
  A 0.44 0.44 0.0 0 1 1773.55 272.96
  L 1773.55 260.24
  A 0.52 0.52 0.0 0 0 1773.03 259.72
  L 1722.00 259.72
  A 0.68 0.68 0.0 0 0 1721.32 260.40
  L 1721.32 461.37
  A 0.52 0.52 0.0 0 0 1721.84 461.89
  L 1772.71 461.89
  A 0.74 0.73 0.0 0 0 1773.45 461.16
  L 1773.45 396.16
  A 0.30 0.30 0.0 0 1 1773.98 395.97
  Z
  M 1893.83 337.94
  C 1893.52 343.09 1895.25 350.35 1896.25 355.48
  Q 1898.97 369.31 1907.68 382.05
  C 1925.05 407.47 1956.40 412.80 1985.00 411.49
  Q 1992.36 411.15 2002.80 409.07
  Q 2022.09 405.24 2035.57 393.47
  C 2046.66 383.79 2054.32 369.56 2057.17 354.90
  Q 2061.57 332.25 2056.04 309.99
  C 2048.82 280.99 2026.08 263.11 1997.25 258.24
  Q 1979.80 255.30 1962.38 257.22
  Q 1942.80 259.38 1928.99 267.02
  Q 1908.57 278.30 1899.12 302.34
  Q 1896.75 308.36 1894.49 322.06
  C 1893.55 327.80 1894.16 332.44 1893.83 337.94
  Z
  M 2420.23 308.08
  Q 2419.18 287.13 2405.75 274.21
  Q 2394.22 263.10 2371.81 258.81
  Q 2356.48 255.87 2342.36 256.85
  C 2323.12 258.18 2303.83 262.82 2291.20 278.42
  C 2285.45 285.53 2283.11 294.03 2282.70 303.50
  Q 2282.22 314.92 2286.31 323.89
  C 2292.54 337.54 2305.17 342.85 2319.05 347.01
  Q 2323.73 348.42 2359.86 355.88
  C 2365.42 357.04 2370.89 358.45 2370.89 364.93
  C 2370.90 370.23 2364.30 372.54 2360.29 373.33
  Q 2357.72 373.83 2352.67 373.93
  C 2343.30 374.11 2331.65 371.00 2330.31 360.24
  A 0.71 0.70 -3.7 0 0 2329.61 359.63
  L 2280.31 359.63
  A 0.66 0.66 0.0 0 0 2279.65 360.29
  C 2280.05 389.17 2300.91 405.12 2327.52 409.41
  C 2340.34 411.47 2352.80 412.40 2365.40 410.90
  C 2376.40 409.59 2384.91 408.22 2394.56 404.26
  C 2414.41 396.12 2424.34 380.01 2422.60 358.53
  Q 2421.02 338.96 2405.08 329.74
  C 2400.32 326.99 2394.89 324.48 2389.41 322.89
  Q 2375.59 318.90 2354.60 314.70
  C 2347.70 313.32 2332.53 311.60 2333.19 303.13
  C 2333.55 298.56 2338.09 296.30 2342.33 295.31
  Q 2350.79 293.35 2358.30 295.43
  C 2364.69 297.21 2371.06 300.89 2370.37 307.99
  A 0.48 0.48 0.0 0 0 2370.85 308.52
  L 2419.82 308.52
  A 0.41 0.41 0.0 0 0 2420.23 308.08
  Z
  M 2124.48 273.84
  L 2124.48 260.19
  A 0.45 0.45 0.0 0 0 2124.03 259.74
  L 2073.22 259.74
  A 0.67 0.66 0.0 0 0 2072.55 260.40
  L 2072.55 407.72
  A 0.64 0.64 0.0 0 0 2073.19 408.36
  L 2124.63 408.36
  A 0.39 0.39 0.0 0 0 2125.02 407.97
  Q 2125.13 375.54 2125.02 333.81
  C 2125.00 324.29 2127.26 315.53 2135.71 310.01
  Q 2143.56 304.89 2152.97 304.38
  Q 2162.59 303.86 2172.51 305.49
  A 0.64 0.64 0.0 0 0 2173.25 304.86
  L 2173.25 258.92
  A 0.78 0.77 8.7 0 0 2172.70 258.18
  C 2169.67 257.23 2166.87 257.32 2163.68 257.27
  C 2151.61 257.10 2141.04 259.54 2131.58 266.93
  C 2129.13 268.84 2126.56 272.32 2125.09 274.06
  A 0.35 0.34 -25.0 0 1 2124.48 273.84
  Z"
/>
<path fill="#0cc47f" d="
  M 309.16 279.90
  A 0.68 0.67 -4.1 0 1 308.49 280.67
  L 248.93 280.67
  A 1.05 1.03 -6.2 0 1 247.91 279.86
  C 245.51 268.81 235.77 259.99 225.28 256.39
  Q 207.81 250.38 189.66 256.32
  C 174.67 261.22 163.73 274.13 160.09 289.22
  C 155.95 306.37 157.32 328.55 167.64 342.72
  C 179.98 359.67 204.43 365.08 223.77 358.88
  C 236.05 354.95 244.18 347.25 248.09 335.13
  A 1.34 1.33 9.0 0 1 249.36 334.21
  L 308.81 334.21
  A 0.77 0.77 0.0 0 1 309.57 335.10
  C 304.76 364.74 288.07 389.52 260.44 402.14
  C 237.60 412.56 212.67 414.27 186.89 411.37
  Q 168.40 409.30 152.71 402.02
  Q 122.71 388.10 108.62 357.41
  Q 102.46 343.98 100.16 330.18
  Q 98.11 317.82 98.44 302.24
  Q 98.99 276.69 110.05 254.31
  Q 124.32 225.42 152.16 211.66
  C 167.60 204.03 182.72 200.97 199.51 199.58
  Q 208.37 198.84 218.71 200.00
  C 232.55 201.55 244.92 204.20 257.35 209.92
  C 285.84 223.04 304.80 248.96 309.16 279.90
  Z"
/>
<path fill="#0cc47f" d="
  M 731.48 396.16
  A 0.37 0.37 0.0 0 0 730.83 395.92
  C 716.84 411.92 691.54 413.29 672.02 410.42
  Q 659.32 408.56 647.82 401.86
  C 633.41 393.47 624.41 378.79 619.82 362.95
  C 618.54 358.53 616.41 350.48 616.24 344.73
  C 616.14 341.55 615.21 338.63 615.16 335.39
  C 614.60 304.51 625.65 272.03 656.26 258.21
  Q 666.77 253.46 680.75 251.98
  Q 695.58 250.40 710.48 255.03
  Q 722.19 258.66 730.30 267.88
  A 0.49 0.49 0.0 0 0 731.15 267.56
  L 731.15 202.09
  A 0.31 0.31 0.0 0 1 731.46 201.78
  L 786.16 201.78
  A 0.55 0.55 0.0 0 1 786.71 202.33
  L 786.71 407.65
  A 0.78 0.77 0.0 0 1 785.93 408.42
  L 731.97 408.42
  A 0.49 0.49 0.0 0 1 731.48 407.93
  L 731.48 396.16
  Z
  M 732.23 333.97
  C 733.27 315.36 723.78 300.64 704.05 299.54
  C 684.32 298.43 673.24 312.01 672.20 330.62
  C 671.16 349.22 680.66 363.95 700.38 365.05
  C 720.11 366.15 731.19 352.58 732.23 333.97
  Z"
/>
<path fill="#040404" d="
  M 1704.21 271.11
  A 0.43 0.43 0.0 0 1 1703.78 271.55
  L 1648.57 271.55
  A 0.76 0.76 0.0 0 1 1647.81 270.83
  C 1647.15 257.54 1638.18 251.93 1625.78 249.77
  Q 1613.75 247.67 1601.14 251.08
  C 1592.90 253.31 1585.78 259.40 1587.96 268.58
  Q 1589.30 274.21 1595.06 276.96
  C 1599.15 278.92 1603.37 280.52 1608.15 281.58
  Q 1627.71 285.91 1651.22 291.77
  Q 1667.89 295.93 1681.06 302.89
  Q 1701.53 313.70 1705.84 335.86
  Q 1709.16 352.95 1703.64 369.19
  C 1695.39 393.45 1670.94 406.47 1647.21 410.18
  C 1639.45 411.39 1628.41 412.94 1619.71 412.86
  C 1588.90 412.57 1554.14 406.54 1537.47 378.81
  Q 1531.31 368.57 1529.23 358.76
  Q 1528.33 354.51 1527.42 347.82
  Q 1527.16 345.91 1527.51 344.06
  A 0.64 0.63 -84.5 0 1 1528.13 343.54
  L 1583.85 343.54
  A 0.37 0.37 0.0 0 1 1584.22 343.89
  Q 1584.96 358.57 1598.34 364.18
  Q 1608.55 368.46 1621.50 368.01
  Q 1629.04 367.74 1635.07 366.09
  C 1643.54 363.77 1651.45 358.02 1649.89 348.30
  Q 1648.80 341.57 1642.13 338.48
  Q 1636.04 335.66 1627.90 333.96
  Q 1593.88 326.87 1576.89 322.17
  C 1552.43 315.40 1534.54 302.55 1531.14 275.71
  Q 1528.38 253.91 1539.81 235.56
  Q 1546.14 225.40 1555.49 219.01
  C 1560.12 215.84 1564.66 213.05 1569.94 211.04
  Q 1581.99 206.45 1593.89 204.69
  Q 1607.68 202.65 1620.72 203.02
  Q 1636.69 203.46 1654.43 208.58
  Q 1672.61 213.83 1685.67 226.34
  C 1697.93 238.09 1703.85 254.31 1704.21 271.11
  Z"
/>
<path fill="#040404" d="
  M 2273.30 303.48
  L 2244.57 303.48
  A 0.71 0.70 0.0 0 0 2243.86 304.18
  Q 2243.99 340.91 2243.90 344.90
  C 2243.68 355.65 2244.91 364.02 2256.72 365.21
  Q 2265.35 366.07 2273.74 364.51
  A 1.06 1.06 0.0 0 1 2274.99 365.55
  L 2274.99 407.73
  A 0.56 0.56 0.0 0 1 2274.43 408.29
  Q 2242.96 408.36 2242.27 408.33
  C 2230.73 407.84 2216.94 405.34 2207.73 398.39
  C 2195.07 388.85 2191.94 373.82 2191.96 358.20
  Q 2192.00 308.74 2192.03 306.50
  Q 2192.03 306.29 2192.26 304.03
  A 0.54 0.54 0.0 0 0 2191.72 303.44
  L 2175.48 303.44
  A 0.62 0.62 0.0 0 1 2174.86 302.82
  L 2174.86 260.69
  A 0.99 0.98 90.0 0 1 2175.84 259.70
  L 2191.46 259.70
  A 0.63 0.63 0.0 0 0 2192.09 259.07
  L 2192.09 226.12
  A 0.56 0.56 0.0 0 1 2192.65 225.56
  L 2243.56 225.56
  A 0.36 0.35 90.0 0 1 2243.91 225.92
  L 2243.91 258.92
  A 0.86 0.85 -0.0 0 0 2244.77 259.77
  L 2273.26 259.77
  A 0.55 0.54 90.0 0 1 2273.80 260.32
  L 2273.80 302.97
  A 0.51 0.50 -90.0 0 1 2273.30 303.48
  Z"
/>
<path fill="#0cc47f" d="
  M 494.68 346.40
  Q 496.00 356.08 502.21 361.62
  Q 508.20 366.96 518.76 368.81
  Q 520.99 369.21 529.26 368.81
  C 533.84 368.58 541.04 366.12 544.58 362.72
  Q 548.01 359.44 549.87 355.73
  A 1.25 1.25 0.0 0 1 550.98 355.05
  L 604.10 355.05
  A 0.79 0.79 0.0 0 1 604.87 356.01
  C 601.18 372.90 593.34 387.99 579.20 397.93
  Q 568.53 405.43 555.37 408.63
  Q 536.93 413.12 518.00 412.34
  C 501.94 411.68 485.67 407.90 472.15 399.40
  Q 452.01 386.75 443.33 363.75
  Q 435.43 342.83 438.28 320.56
  Q 440.39 304.01 447.77 290.05
  C 459.41 268.05 481.16 256.30 505.80 252.82
  Q 528.95 249.55 550.12 254.65
  Q 561.49 257.39 572.59 263.93
  Q 583.53 270.37 592.44 283.33
  C 598.62 292.31 602.14 303.75 604.50 315.10
  C 606.65 325.44 606.65 334.91 606.33 344.62
  A 1.08 1.08 0.0 0 1 605.25 345.66
  L 495.32 345.66
  A 0.65 0.65 0.0 0 0 494.68 346.40
  Z
  M 523.11 313.46
  Q 546.60 313.43 550.02 313.34
  A 0.57 0.57 0.0 0 0 550.54 312.58
  C 546.12 300.27 536.11 294.45 523.08 294.47
  C 510.05 294.49 500.05 300.34 495.67 312.66
  A 0.57 0.57 0.0 0 0 496.19 313.42
  Q 499.61 313.50 523.11 313.46
  Z"
/>
<path fill="#0cc47f" d="
  M 858.26 346.31
  C 858.87 355.65 866.48 363.92 875.01 366.85
  Q 890.48 372.15 904.58 364.66
  Q 910.47 361.53 913.25 355.86
  A 1.49 1.47 12.6 0 1 914.59 355.02
  L 967.68 355.02
  A 0.85 0.85 0.0 0 1 968.51 356.03
  C 963.14 383.94 943.24 403.85 915.27 409.29
  C 906.66 410.96 900.45 412.22 892.36 412.39
  Q 870.84 412.84 850.74 406.55
  C 845.28 404.84 840.86 402.33 835.54 399.16
  C 819.14 389.39 807.69 370.92 803.73 352.46
  C 799.51 332.89 800.88 310.20 810.37 292.16
  C 823.64 266.98 845.88 255.77 873.17 252.33
  Q 884.04 250.96 894.23 251.78
  C 919.83 253.84 943.42 262.63 957.38 284.88
  C 967.85 301.58 971.37 325.03 969.56 345.28
  A 0.39 0.38 2.4 0 1 969.17 345.63
  L 858.89 345.63
  A 0.64 0.63 88.3 0 0 858.26 346.31
  Z
  M 886.72 313.49
  Q 910.29 313.52 913.72 313.44
  A 0.57 0.57 0.0 0 0 914.24 312.68
  C 909.85 300.32 899.81 294.45 886.74 294.43
  C 873.67 294.41 863.62 300.26 859.19 312.60
  A 0.57 0.57 0.0 0 0 859.72 313.37
  Q 863.14 313.46 886.72 313.49
  Z"
/>
<path fill="#0cc47f" d="
  M 1038.86 268.96
  A 0.31 0.31 0.0 0 0 1039.40 269.16
  C 1046.41 260.88 1054.12 257.38 1064.91 254.12
  Q 1072.90 251.71 1082.00 251.44
  C 1096.26 251.03 1111.25 253.01 1123.44 260.33
  Q 1127.71 262.89 1133.34 269.20
  C 1143.77 280.93 1146.50 298.71 1146.45 314.01
  Q 1146.32 354.60 1146.42 407.52
  A 0.86 0.86 0.0 0 1 1145.56 408.38
  L 1092.03 408.38
  A 0.56 0.56 0.0 0 1 1091.47 407.82
  Q 1091.31 343.17 1091.47 329.51
  Q 1091.61 317.48 1089.76 312.44
  Q 1085.42 300.58 1071.24 298.89
  C 1066.00 298.26 1059.46 298.89 1053.89 301.04
  Q 1044.72 304.59 1041.15 314.31
  Q 1039.40 319.08 1039.41 330.92
  Q 1039.49 387.70 1039.42 407.65
  A 0.76 0.76 0.0 0 1 1038.66 408.40
  L 985.58 408.40
  A 1.05 1.05 0.0 0 1 984.53 407.35
  L 984.53 255.52
  A 0.38 0.38 0.0 0 1 984.91 255.14
  L 1037.92 255.14
  A 0.94 0.94 0.0 0 1 1038.86 256.08
  L 1038.86 268.96
  Z"
/>
<path fill="#0cc47f" d="
  M 1273.47 347.75
  A 0.48 0.47 5.9 0 1 1273.94 347.38
  L 1328.84 347.38
  A 0.70 0.69 -87.0 0 1 1329.53 348.15
  C 1327.42 367.60 1317.82 387.42 1301.02 398.30
  Q 1289.65 405.67 1278.31 408.37
  Q 1266.61 411.15 1254.50 412.23
  C 1243.13 413.25 1231.01 411.40 1220.77 409.49
  Q 1208.70 407.23 1196.59 400.14
  Q 1174.15 386.99 1165.65 361.58
  Q 1161.33 348.69 1160.73 337.79
  Q 1159.33 312.58 1170.62 290.62
  C 1179.56 273.23 1196.23 261.08 1214.81 255.83
  Q 1224.58 253.06 1239.39 251.73
  C 1250.30 250.75 1262.23 252.29 1272.45 254.46
  Q 1289.74 258.13 1304.00 268.73
  Q 1309.51 272.82 1313.21 277.52
  C 1316.95 282.26 1320.71 287.46 1323.13 293.35
  Q 1327.53 304.11 1329.21 315.55
  A 0.81 0.81 0.0 0 1 1328.41 316.48
  L 1274.35 316.48
  A 1.17 1.16 -6.5 0 1 1273.21 315.58
  Q 1271.45 308.11 1264.89 303.67
  C 1258.59 299.41 1252.39 298.58 1245.01 298.89
  C 1235.34 299.30 1224.44 305.45 1220.53 314.80
  C 1215.20 327.53 1215.03 345.57 1224.80 356.18
  Q 1234.34 366.54 1250.75 365.30
  C 1261.20 364.51 1271.03 358.35 1273.47 347.75
  Z"
/>
<path fill="#0cc47f" d="
  M 1503.66 355.03
  A 0.60 0.59 5.2 0 1 1504.25 355.73
  C 1502.61 364.43 1499.40 372.23 1494.85 379.94
  C 1484.89 396.78 1467.99 406.17 1449.05 409.82
  C 1436.13 412.30 1421.98 413.60 1408.90 411.60
  C 1398.98 410.08 1391.09 408.62 1382.37 404.94
  Q 1354.73 393.27 1343.72 365.30
  C 1337.84 350.37 1335.67 332.71 1339.12 316.66
  C 1339.94 312.84 1340.52 308.68 1341.90 304.52
  Q 1345.19 294.56 1349.81 287.07
  Q 1362.83 265.98 1386.97 257.47
  Q 1411.24 248.92 1437.26 252.45
  C 1450.20 254.21 1462.92 257.88 1473.56 265.12
  Q 1491.79 277.52 1499.47 298.74
  Q 1504.82 313.52 1505.46 327.03
  Q 1505.87 335.58 1505.59 344.88
  A 0.79 0.78 0.7 0 1 1504.80 345.64
  L 1395.28 345.64
  A 0.84 0.84 0.0 0 0 1394.46 346.64
  Q 1398.29 365.21 1416.74 368.51
  Q 1420.29 369.14 1426.76 368.97
  Q 1437.54 368.68 1445.54 361.23
  C 1447.36 359.54 1448.41 357.55 1449.36 355.43
  A 0.68 0.68 0.0 0 1 1449.98 355.03
  L 1503.66 355.03
  Z
  M 1422.90 313.34
  Q 1446.13 313.33 1449.51 313.25
  A 0.56 0.56 0.0 0 0 1450.03 312.50
  C 1445.67 300.33 1435.78 294.56 1422.90 294.56
  C 1410.02 294.56 1400.12 300.34 1395.78 312.51
  A 0.56 0.56 0.0 0 0 1396.30 313.27
  Q 1399.67 313.35 1422.90 313.34
  Z"
/>
<path fill="#0cc47f" d="
  M 430.33 303.44
  Q 425.75 303.40 421.53 302.55
  Q 417.88 301.82 407.55 302.39
  C 397.22 302.95 386.37 309.04 383.15 319.38
  C 381.80 323.74 381.23 327.93 381.24 332.95
  Q 381.32 381.80 381.20 407.49
  A 0.87 0.87 0.0 0 1 380.33 408.36
  L 326.86 408.36
  A 0.94 0.94 0.0 0 1 325.92 407.42
  L 325.92 255.74
  A 0.61 0.61 0.0 0 1 326.53 255.13
  L 379.86 255.13
  A 0.56 0.56 0.0 0 1 380.42 255.69
  L 380.42 270.56
  A 0.32 0.32 0.0 0 0 381.02 270.72
  Q 385.69 262.86 394.69 258.37
  C 405.83 252.81 418.05 252.25 430.23 253.95
  A 0.83 0.83 0.0 0 1 430.94 254.77
  L 430.94 302.83
  A 0.61 0.61 0.0 0 1 430.33 303.44
  Z"
/>
<path fill="#040404" d="
  M 1773.98 395.97
  A 0.30 0.30 0.0 0 0 1773.45 396.16
  L 1773.45 461.16
  A 0.74 0.73 0.0 0 1 1772.71 461.89
  L 1721.84 461.89
  A 0.52 0.52 0.0 0 1 1721.32 461.37
  L 1721.32 260.40
  A 0.68 0.68 0.0 0 1 1722.00 259.72
  L 1773.03 259.72
  A 0.52 0.52 0.0 0 1 1773.55 260.24
  L 1773.55 272.96
  A 0.44 0.44 0.0 0 0 1774.31 273.25
  C 1783.94 262.46 1796.55 257.73 1810.75 256.52
  Q 1819.55 255.76 1831.21 257.83
  Q 1858.36 262.65 1872.83 284.91
  Q 1879.29 294.86 1882.47 309.53
  Q 1888.73 338.39 1880.54 366.52
  C 1877.73 376.15 1872.91 385.29 1865.94 392.71
  C 1851.97 407.57 1831.41 412.22 1811.25 411.26
  Q 1805.01 410.97 1796.60 408.86
  C 1789.08 406.96 1779.23 402.26 1773.98 395.97
  Z
  M 1773.19 333.37
  C 1772.54 351.44 1782.04 365.54 1801.20 366.23
  C 1820.37 366.92 1830.85 353.53 1831.50 335.46
  C 1832.14 317.38 1822.65 303.28 1803.48 302.59
  C 1784.32 301.90 1773.84 315.29 1773.19 333.37
  Z"
/>
<path fill="#040404" d="
  M 1893.83 337.94
  C 1894.16 332.44 1893.55 327.80 1894.49 322.06
  Q 1896.75 308.36 1899.12 302.34
  Q 1908.57 278.30 1928.99 267.02
  Q 1942.80 259.38 1962.38 257.22
  Q 1979.80 255.30 1997.25 258.24
  C 2026.08 263.11 2048.82 280.99 2056.04 309.99
  Q 2061.57 332.25 2057.17 354.90
  C 2054.32 369.56 2046.66 383.79 2035.57 393.47
  Q 2022.09 405.24 2002.80 409.07
  Q 1992.36 411.15 1985.00 411.49
  C 1956.40 412.80 1925.05 407.47 1907.68 382.05
  Q 1898.97 369.31 1896.25 355.48
  C 1895.25 350.35 1893.52 343.09 1893.83 337.94
  Z
  M 1947.37 334.23
  C 1947.25 352.47 1957.25 366.40 1976.58 366.52
  C 1995.91 366.65 2006.08 352.84 2006.20 334.60
  C 2006.31 316.37 1996.32 302.44 1976.99 302.32
  C 1957.65 302.19 1947.49 316.00 1947.37 334.23
  Z"
/>
<path fill="#040404" d="
  M 2420.23 308.08
  A 0.41 0.41 0.0 0 1 2419.82 308.52
  L 2370.85 308.52
  A 0.48 0.48 0.0 0 1 2370.37 307.99
  C 2371.06 300.89 2364.69 297.21 2358.30 295.43
  Q 2350.79 293.35 2342.33 295.31
  C 2338.09 296.30 2333.55 298.56 2333.19 303.13
  C 2332.53 311.60 2347.70 313.32 2354.60 314.70
  Q 2375.59 318.90 2389.41 322.89
  C 2394.89 324.48 2400.32 326.99 2405.08 329.74
  Q 2421.02 338.96 2422.60 358.53
  C 2424.34 380.01 2414.41 396.12 2394.56 404.26
  C 2384.91 408.22 2376.40 409.59 2365.40 410.90
  C 2352.80 412.40 2340.34 411.47 2327.52 409.41
  C 2300.91 405.12 2280.05 389.17 2279.65 360.29
  A 0.66 0.66 0.0 0 1 2280.31 359.63
  L 2329.61 359.63
  A 0.71 0.70 -3.7 0 1 2330.31 360.24
  C 2331.65 371.00 2343.30 374.11 2352.67 373.93
  Q 2357.72 373.83 2360.29 373.33
  C 2364.30 372.54 2370.90 370.23 2370.89 364.93
  C 2370.89 358.45 2365.42 357.04 2359.86 355.88
  Q 2323.73 348.42 2319.05 347.01
  C 2305.17 342.85 2292.54 337.54 2286.31 323.89
  Q 2282.22 314.92 2282.70 303.50
  C 2283.11 294.03 2285.45 285.53 2291.20 278.42
  C 2303.83 262.82 2323.12 258.18 2342.36 256.85
  Q 2356.48 255.87 2371.81 258.81
  Q 2394.22 263.10 2405.75 274.21
  Q 2419.18 287.13 2420.23 308.08
  Z"
/>
<path fill="#040404" d="
  M 2124.48 273.84
  A 0.35 0.34 -25.0 0 0 2125.09 274.06
  C 2126.56 272.32 2129.13 268.84 2131.58 266.93
  C 2141.04 259.54 2151.61 257.10 2163.68 257.27
  C 2166.87 257.32 2169.67 257.23 2172.70 258.18
  A 0.78 0.77 8.7 0 1 2173.25 258.92
  L 2173.25 304.86
  A 0.64 0.64 0.0 0 1 2172.51 305.49
  Q 2162.59 303.86 2152.97 304.38
  Q 2143.56 304.89 2135.71 310.01
  C 2127.26 315.53 2125.00 324.29 2125.02 333.81
  Q 2125.13 375.54 2125.02 407.97
  A 0.39 0.39 0.0 0 1 2124.63 408.36
  L 2073.19 408.36
  A 0.64 0.64 0.0 0 1 2072.55 407.72
  L 2072.55 260.40
  A 0.67 0.66 0.0 0 1 2073.22 259.74
  L 2124.03 259.74
  A 0.45 0.45 0.0 0 1 2124.48 260.19
  L 2124.48 273.84
  Z"
/>
<path fill="#ffffff" d="
  M 886.74 294.43
  C 899.81 294.45 909.85 300.32 914.24 312.68
  A 0.57 0.57 0.0 0 1 913.72 313.44
  Q 910.29 313.52 886.72 313.49
  Q 863.14 313.46 859.72 313.37
  A 0.57 0.57 0.0 0 1 859.19 312.60
  C 863.62 300.26 873.67 294.41 886.74 294.43
  Z"
/>
<path fill="#ffffff" d="
  M 523.11 313.46
  Q 499.61 313.50 496.19 313.42
  A 0.57 0.57 0.0 0 1 495.67 312.66
  C 500.05 300.34 510.05 294.49 523.08 294.47
  C 536.11 294.45 546.12 300.27 550.54 312.58
  A 0.57 0.57 0.0 0 1 550.02 313.34
  Q 546.60 313.43 523.11 313.46
  Z"
/>
<path fill="#ffffff" d="
  M 1422.90 313.34
  Q 1399.67 313.35 1396.30 313.27
  A 0.56 0.56 0.0 0 1 1395.78 312.51
  C 1400.12 300.34 1410.02 294.56 1422.90 294.56
  C 1435.78 294.56 1445.67 300.33 1450.03 312.50
  A 0.56 0.56 0.0 0 1 1449.51 313.25
  Q 1446.13 313.33 1422.90 313.34
  Z"
/>
<path fill="#ffffff" d="
  M 732.23 333.97
  C 731.19 352.58 720.11 366.15 700.38 365.05
  C 680.66 363.95 671.16 349.22 672.20 330.62
  C 673.24 312.01 684.32 298.43 704.05 299.54
  C 723.78 300.64 733.27 315.36 732.23 333.97
  Z"
/>
<path fill="#ffffff" d="
  M 1773.19 333.37
  C 1773.84 315.29 1784.32 301.90 1803.48 302.59
  C 1822.65 303.28 1832.14 317.38 1831.50 335.46
  C 1830.85 353.53 1820.37 366.92 1801.20 366.23
  C 1782.04 365.54 1772.54 351.44 1773.19 333.37
  Z"
/>
<path fill="#ffffff" d="
  M 1976.99 302.32
  C 1996.32 302.44 2006.31 316.37 2006.20 334.60
  C 2006.08 352.84 1995.91 366.65 1976.58 366.52
  C 1957.25 366.40 1947.25 352.47 1947.37 334.23
  C 1947.49 316.00 1957.65 302.19 1976.99 302.32
  Z"
/>
</svg>
